<svg width="24" height="24" viewBox="0 0 24 24" fill="none" xmlns="http://www.w3.org/2000/svg">
<path d="M2 12C2 6.47715 6.47715 2 12 2C17.5228 2 22 6.47715 22 12C22 17.5228 17.5228 22 12 22C6.47715 22 2 17.5228 2 12Z" fill="#06D03F"/>
<path fill-rule="evenodd" clip-rule="evenodd" d="M16.6247 8.21913C17.056 8.56414 17.1259 9.19343 16.7809 9.6247L11.9809 15.6247C11.793 15.8595 11.5096 15.9973 11.2089 16C10.9083 16.0026 10.6224 15.8699 10.4304 15.6385L7.23038 11.7814C6.87774 11.3563 6.93645 10.7259 7.3615 10.3732C7.78655 10.0206 8.41699 10.0793 8.76962 10.5044L11.1859 13.4168L15.2191 8.37531C15.5641 7.94404 16.1934 7.87412 16.6247 8.21913Z" fill="white"/>
</svg>
