<svg width="24" height="24" viewBox="0 0 24 24" fill="none" xmlns="http://www.w3.org/2000/svg">
<path fill-rule="evenodd" clip-rule="evenodd" d="M6 12C6 11.4477 6.39312 11 6.87805 11H17.122C17.6069 11 18 11.4477 18 12C18 12.5523 17.6069 13 17.122 13H6.87805C6.39312 13 6 12.5523 6 12Z" fill="#242424"/>
<path fill-rule="evenodd" clip-rule="evenodd" d="M12.0001 6C12.5524 6 13.0001 6.39312 13.0001 6.87805L13.0001 17.122C13.0001 17.6069 12.5524 18 12.0001 18C11.4478 18 11.0001 17.6069 11.0001 17.122L11.0001 6.87805C11.0001 6.39312 11.4478 6 12.0001 6Z" fill="#242424"/>
</svg>
