<svg width="24" height="24" viewBox="0 0 24 24"  fill="#242424" xmlns="http://www.w3.org/2000/svg">
<path fill-rule="evenodd" clip-rule="evenodd" d="M12 4C7.58161 4 4 7.58161 4 12C4 16.4184 7.58161 20 12 20C16.4184 20 20 16.4184 20 12C20 7.58161 16.4184 4 12 4ZM5.77778 12C5.77778 8.56345 8.56345 5.77778 12 5.77778C15.4365 5.77778 18.2222 8.56345 18.2222 12C18.2222 15.4365 15.4365 18.2222 12 18.2222C8.56345 18.2222 5.77778 15.4365 5.77778 12ZM12.8889 7.55556C12.8889 7.06464 12.4909 6.66667 12 6.66667C11.5091 6.66667 11.1111 7.06464 11.1111 7.55556V11.7237C11.1111 11.9443 11.1932 12.157 11.3413 12.3205L14.008 15.2635C14.3376 15.6273 14.8997 15.655 15.2635 15.3254C15.6273 14.9957 15.655 14.4336 15.3254 14.0698L12.8889 11.3808V7.55556Z"/>
</svg>
