<svg width="24" height="24" viewBox="0 0 24 24" fill="242424" xmlns="http://www.w3.org/2000/svg">
<path d="M11.0905 10.7735V4.92983C11.0885 4.68375 11.1836 4.44748 11.3545 4.27282C11.5254 4.09816 11.758 4 12.0003 4C12.2426 4 12.4752 4.09816 12.6461 4.27282C12.817 4.44748 12.9118 4.68408 12.9101 4.92983V10.7735C12.9121 11.0196 12.817 11.2562 12.6461 11.4308C12.4752 11.6055 12.2429 11.7037 12.0003 11.7037C11.7577 11.7037 11.5254 11.6055 11.3545 11.4308C11.1836 11.2562 11.0888 11.0196 11.0905 10.7735ZM17.5927 8.6356C17.4262 8.40204 17.1592 8.2636 16.8748 8.26394C16.7707 8.26394 16.6676 8.2812 16.5684 8.31437C16.3845 8.37327 16.2243 8.49072 16.1115 8.64947C15.9987 8.80823 15.9396 8.99947 15.9426 9.19512C15.9487 9.40024 16.0201 9.59792 16.1466 9.75768C17.2113 11.1969 17.4749 13.0887 16.8455 14.771C16.2157 16.4533 14.7805 17.6912 13.0423 18.0513C12.7019 18.1197 12.3558 18.1542 12.009 18.1542C10.6342 18.1549 9.31556 17.6025 8.34266 16.6175C7.36975 15.6325 6.82206 14.2961 6.82005 12.9019C6.81538 11.7558 7.18585 10.6401 7.87406 9.73094C7.98754 9.5881 8.05195 9.41141 8.05729 9.22795C8.05796 9.02858 7.99588 8.83361 7.8804 8.67249C7.76492 8.51103 7.60138 8.39121 7.41414 8.33028C7.31502 8.29711 7.21155 8.27984 7.10709 8.27984C6.82806 8.27883 6.56573 8.41422 6.40186 8.64304C5.44965 9.91948 4.95602 11.4884 5.00308 13.0891C5.07117 14.8871 5.80143 16.5938 7.04968 17.8726C8.29793 19.1514 9.97339 19.9089 11.7456 19.9959C11.8314 19.999 11.9169 20 12.0026 20C13.7455 20 15.4257 19.3403 16.7143 18.1502C18.0026 16.96 18.807 15.3251 18.9695 13.565C19.132 11.8052 18.6411 10.0471 17.5927 8.63492V8.6356Z" />
</svg>
