<svg width="10" height="10" viewBox="0 0 10 10" fill="#CE0F3D" xmlns="http://www.w3.org/2000/svg">
        <path
            fillRule="evenodd"
            clipRule="evenodd"
            d="M0.561058 0.561181C0.864799 0.257439 1.35726 0.257439 1.661 0.561181L9.43878 8.33896C9.74252 8.6427 9.74252 9.13516 9.43878 9.4389C9.13504 9.74264 8.64258 9.74264 8.33884 9.4389L0.561058 1.66112C0.257317 1.35738 0.257317 0.864922 0.561058 0.561181Z"
        />
        <path
            fillRule="evenodd"
            clipRule="evenodd"
            d="M0.561058 9.4389C0.257317 9.13516 0.257317 8.6427 0.561058 8.33896L8.33884 0.56118C8.64258 0.257439 9.13504 0.257439 9.43878 0.56118C9.74252 0.864921 9.74252 1.35738 9.43878 1.66112L1.661 9.4389C1.35726 9.74264 0.864799 9.74264 0.561058 9.4389Z"
        />
    </svg>