<svg width="24" height="24" viewBox="0 0 24 24" fill="none" xmlns="http://www.w3.org/2000/svg">
<path d="M12 14.6667C12.35 14.6667 12.7 14.5333 12.95 14.2833C13.2 14.0333 13.3333 13.7 13.3333 13.3333V5.33333C13.3333 4.98333 13.2 4.63333 12.95 4.38333C12.7 4.13333 12.3667 4 12 4C11.6333 4 11.3 4.13333 11.05 4.38333C10.8 4.63333 10.6667 4.96667 10.6667 5.33333V13.3333C10.6667 13.6833 10.8 14.0333 11.05 14.2833C11.3 14.5333 11.6333 14.6667 12 14.6667Z" fill="#242424"/>
<path d="M12 16C11.4667 16 10.9667 16.2167 10.5833 16.5833C10.2 16.95 10 17.4667 10 18C10 18.5333 10.2167 19.0333 10.5833 19.4167C10.95 19.8 11.4667 20 12 20C12.5333 20 13.0333 19.7833 13.4167 19.4167C13.8 19.0333 14 18.5333 14 18C14 17.4667 13.7833 16.9667 13.4167 16.5833C13.0333 16.2 12.5333 16 12 16Z" fill="#242424"/>
</svg>
