<svg width="24" height="24" viewBox="0 0 24 24" fill="#242424" xmlns="http://www.w3.org/2000/svg">
<path d="M12 20C7.5816 20 4 16.4184 4 12C4 7.5816 7.5816 4 12 4C16.4184 4 20 7.5816 20 12C20 16.4184 16.4184 20 12 20ZM10.168 18.1336C9.37873 16.4595 8.9215 14.6482 8.8216 12.8H5.6496C5.80527 14.0311 6.31514 15.1905 7.11725 16.1374C7.91937 17.0842 8.97921 17.7777 10.168 18.1336ZM10.424 12.8C10.5448 14.7512 11.1024 16.584 12 18.2016C12.9219 16.5412 13.4604 14.6956 13.576 12.8H10.424ZM18.3504 12.8H15.1784C15.0785 14.6482 14.6213 16.4595 13.832 18.1336C15.0208 17.7777 16.0806 17.0842 16.8827 16.1374C17.6849 15.1905 18.1947 14.0311 18.3504 12.8ZM5.6496 11.2H8.8216C8.9215 9.35183 9.37873 7.54055 10.168 5.8664C8.97921 6.2223 7.91937 6.9158 7.11725 7.86264C6.31514 8.80947 5.80527 9.96888 5.6496 11.2ZM10.4248 11.2H13.5752C13.4598 9.30448 12.9216 7.45883 12 5.7984C11.0781 7.45876 10.5396 9.30442 10.424 11.2H10.4248ZM13.832 5.8664C14.6213 7.54055 15.0785 9.35183 15.1784 11.2H18.3504C18.1947 9.96888 17.6849 8.80947 16.8827 7.86264C16.0806 6.9158 15.0208 6.2223 13.832 5.8664Z"/>
</svg>
