<svg width="24" height="24" viewBox="0 0 24 24" fill="#242424" xmlns="http://www.w3.org/2000/svg">
<path d="M19.77 11.83L12.18 4.26C12.11 4.18 12.02 4.12 11.91 4.07C11.8 4.02 11.71 4 11.6 4H6.8C6.69 4 6.59 4.02 6.49 4.06C6.39 4.1 6.3 4.16 6.23 4.23L4.23 6.23C4.16 6.3 4.1 6.39 4.06 6.49C4.02 6.58 4 6.69 4 6.79V11.6C4 11.81 4.09 12.01 4.23 12.17L11.82 19.77C11.97 19.92 12.18 20 12.39 20C12.5 20 12.6 19.98 12.7 19.94C12.8 19.9 12.89 19.84 12.96 19.77L19.77 12.96C19.84 12.89 19.9 12.8 19.94 12.7C19.98 12.6 20 12.5 20 12.39C20 12.18 19.91 11.98 19.77 11.83ZM7.26 7.7C7.32 7.55 7.42 7.43 7.55 7.34C7.68 7.25 7.84 7.21 7.99 7.21C8.2 7.21 8.41 7.29 8.56 7.44C8.71 7.59 8.79 7.79 8.79 8.01C8.79 8.17 8.74 8.32 8.66 8.45C8.57 8.58 8.45 8.68 8.3 8.74C8.15 8.8 7.99 8.82 7.84 8.79C7.68 8.76 7.54 8.68 7.43 8.57C7.32 8.46 7.24 8.32 7.21 8.16C7.18 8 7.19 7.84 7.26 7.7Z" />
</svg>
