<svg width="20" height="20" viewBox="0 0 20 20" fill="none" xmlns="http://www.w3.org/2000/svg">
<path d="M16.2741 4.97171C15.3197 4.97098 14.3649 4.96953 13.4105 4.97425C13.2819 4.97497 13.2209 4.94303 13.1691 4.81782C12.8163 3.96561 12.1685 3.44478 11.2274 3.37727C10.4325 3.32028 9.62742 3.32028 8.83132 3.36965C7.85156 3.43062 7.1784 3.95944 6.81928 4.85085C6.77346 4.96445 6.70975 4.9728 6.61103 4.9728C5.63798 4.97134 4.66456 4.96989 3.69151 4.97243C2.51953 4.97534 1.67053 5.79706 1.66941 6.93454C1.6668 9.52528 1.66792 12.116 1.67127 14.7068C1.67127 14.8741 1.68915 15.0458 1.73013 15.208C1.95477 16.1008 2.72516 16.6649 3.71572 16.6656C5.81084 16.6674 7.90595 16.6663 10.0011 16.6663C12.0962 16.6663 14.1913 16.6681 16.2864 16.6656C17.4934 16.6641 18.3335 15.845 18.3338 14.6712C18.335 12.1044 18.335 9.53798 18.3338 6.9712C18.3335 5.78544 17.4953 4.9728 16.2741 4.97134V4.97171ZM3.99661 11.8195C3.97128 12.5211 3.37039 13.0815 2.68083 13.0807V8.56419C3.3499 8.53007 3.9683 9.0999 3.99587 9.80983C4.02157 10.4791 4.02083 11.1506 3.99661 11.8199V11.8195ZM6.66691 10.8185C6.66654 9.03929 8.15965 7.58023 9.98728 7.57406C11.825 7.56789 13.3274 9.01896 13.336 10.809C13.3445 12.5824 11.8455 14.0571 10.0249 14.0654C8.18162 14.0741 6.66729 12.61 6.66691 10.8185V10.8185ZM15.7287 8.22265C15.5373 8.22919 15.3454 8.22374 15.1539 8.22374C14.9747 8.22374 14.7952 8.2281 14.616 8.22302C14.2654 8.21285 14.0021 7.96205 14.0047 7.64738C14.0073 7.33923 14.2632 7.09097 14.607 7.08299C14.984 7.07391 15.3614 7.07283 15.7384 7.08371C16.0838 7.09351 16.3319 7.34468 16.3296 7.65718C16.3274 7.9675 16.0726 8.21104 15.7284 8.22265H15.7287Z" fill="#FFB133"/>
<path d="M2.67969 13.0807V8.56417C3.34875 8.53005 3.96715 9.09988 3.99472 9.80981C4.02043 10.4791 4.01968 11.1506 3.99547 11.8198C3.97013 12.5214 3.36924 13.0818 2.67969 13.0811V13.0807Z" fill="#F45F37"/>
<path d="M15.1532 8.22368C14.974 8.22368 14.7944 8.22804 14.6152 8.22296C14.2647 8.21279 14.0013 7.96199 14.0039 7.64732C14.0065 7.33917 14.2625 7.09091 14.6063 7.08293C14.9833 7.07386 15.3607 7.07277 15.7377 7.08366C16.083 7.09345 16.3311 7.34462 16.3289 7.65712C16.3267 7.96744 16.0718 8.21098 15.7276 8.22259C15.5361 8.22913 15.3443 8.22368 15.1528 8.22368H15.1532Z" fill="#F45F36"/>
<path d="M13.3331 10.8091C13.3417 12.5824 11.8426 14.0571 10.0221 14.0654C8.17877 14.0742 6.66444 12.61 6.66406 10.8185C6.66369 9.03932 8.15679 7.58026 9.98443 7.57409C11.8221 7.56792 13.3245 9.01899 13.3331 10.8091ZM10.006 8.54897C8.71708 8.5457 7.67101 9.55362 7.66319 10.8065C7.65537 12.0558 8.69957 13.0837 9.98182 13.0895C11.2786 13.0956 12.3321 12.0794 12.3344 10.8207C12.3366 9.56886 11.2946 8.55224 10.006 8.54897Z" fill="#F45F36"/>
<path d="M10.006 8.54897C11.2946 8.55224 12.3366 9.56886 12.3344 10.8207C12.3321 12.0794 11.2786 13.0956 9.98182 13.0895C8.69957 13.0837 7.65537 12.0558 7.66319 10.8065C7.67101 9.55362 8.71708 8.5457 10.006 8.54897Z" fill="#F45F36"/>
</svg>
