<svg width="32" height="32" viewBox="0 0 32 32" fill="242424" xmlns="http://www.w3.org/2000/svg">
<path d="M25.4967 12.0611C25.153 11.2279 25.9079 8.94157 24.4837 7.51746C23.0753 6.10903 20.6974 6.83616 19.9401 6.50455C19.1611 6.19344 18.0385 4 16.0006 4C13.9627 4 12.8196 6.20067 12.0611 6.50455C11.211 6.85545 8.93313 6.10179 7.51746 7.51746C6.10179 8.93313 6.8446 11.2025 6.50455 12.0756C6.144 12.8461 4 13.9784 4 16.0006C4 18.0228 6.15606 19.1949 6.50455 19.9401C6.84701 20.7697 6.09938 23.0657 7.51746 24.4837C8.9476 25.9139 11.2279 25.1675 12.0611 25.5111C12.8099 25.8102 13.9362 28.0012 16.0006 28.0012C18.065 28.0012 19.1937 25.7909 19.9401 25.5111C20.6214 25.2133 23.1597 25.8283 24.4837 24.4837C25.9151 23.0524 25.1494 20.7842 25.4967 19.9401C25.8801 19.1189 28.0012 18.0518 28.0012 16.0006C28.0012 13.9712 25.8331 12.8292 25.4967 12.0611Z" fill="#7E25E2"/>
<path fill-rule="evenodd" clip-rule="evenodd" d="M22.2992 11.0334C22.7887 11.5223 22.7887 12.3151 22.2992 12.804L15.4616 19.6333C14.972 20.1222 14.1783 20.1222 13.6888 19.6333L9.70017 15.6495C9.21062 15.1606 9.21062 14.3678 9.70017 13.8789C10.1897 13.3899 10.9834 13.3899 11.473 13.8789L14.5752 16.9773L20.5264 11.0334C21.0159 10.5444 21.8096 10.5444 22.2992 11.0334Z" fill="white"/>
</svg>
