<svg width="24" height="24" viewBox="0 0 24 24" fill="#242424" xmlns="http://www.w3.org/2000/svg">
<path fill-rule="evenodd" clip-rule="evenodd" d="M4.072 11.826C7.736 4.058 16.264 4.058 19.912 11.826C19.912 11.826 20 12.002 20 12.218C19.984 12.434 19.912 12.61 19.912 12.61C16.264 20.378 7.736 20.378 4.072 12.61C4.072 12.61 4 12.49 4 12.274C4 11.986 4.072 11.826 4.072 11.826ZM7.552 12.122C7.552 14.578 9.544 16.57 12 16.57V16.586C14.456 16.586 16.448 14.594 16.448 12.138C16.448 9.682 14.456 7.69 12 7.69C9.544 7.69 7.552 9.666 7.552 12.122ZM9.33594 12.274C9.33594 10.818 10.5279 9.62603 11.9999 9.62603C13.4719 9.62603 14.6639 10.818 14.6639 12.274C14.6639 13.73 13.4719 14.922 11.9999 14.922C10.5279 14.922 9.33594 13.73 9.33594 12.274Z" />
</svg>
