<svg width="24" height="24" viewBox="0 0 24 24" fill="242424" xmlns="http://www.w3.org/2000/svg">
<path d="M12.7131 3.41706C12.5682 3.15943 12.2956 3 12 3C11.7044 3 11.4318 3.15943 11.2869 3.41706L8.5437 8.29384L3.71671 8.89722C3.41784 8.93458 3.16367 9.13312 3.05506 9.41405C2.94645 9.69498 3.00097 10.0129 3.19698 10.2415L6.85802 14.5128L5.63767 20.0043C5.56997 20.309 5.6815 20.6257 5.92521 20.8207C6.16892 21.0156 6.50234 21.055 6.78475 20.9221L12 18.4679L17.2152 20.9221C17.4977 21.055 17.8311 21.0156 18.0748 20.8207C18.3185 20.6257 18.43 20.309 18.3623 20.0043L17.142 14.5128L20.803 10.2415C20.999 10.0129 21.0536 9.69498 20.9449 9.41405C20.8363 9.13312 20.5822 8.93458 20.2833 8.89722L15.4563 8.29384L12.7131 3.41706Z" />
</svg>
