<svg width="24" height="24" viewBox="0 0 24 24" fill="242424" xmlns="http://www.w3.org/2000/svg">
<path fill-rule="evenodd" clip-rule="evenodd" d="M12 3C12.2956 3 12.5682 3.15943 12.7131 3.41706L15.4563 8.29384L20.2833 8.89722C20.5822 8.93458 20.8363 9.13312 20.9449 9.41405C21.0536 9.69498 20.999 10.0129 20.803 10.2415L17.142 14.5128L18.3623 20.0043C18.43 20.309 18.3185 20.6257 18.0748 20.8207C17.8311 21.0156 17.4977 21.055 17.2152 20.9221L12 18.4679L6.78475 20.9221C6.50234 21.055 6.16892 21.0156 5.92521 20.8207C5.6815 20.6257 5.56997 20.309 5.63767 20.0043L6.85802 14.5128L3.19698 10.2415C3.00097 10.0129 2.94645 9.69498 3.05506 9.41405C3.16367 9.13312 3.41784 8.93458 3.71671 8.89722L8.5437 8.29384L11.2869 3.41706C11.4318 3.15943 11.7044 3 12 3ZM12 5.48705L9.76766 9.45566C9.64045 9.68181 9.4135 9.83422 9.15603 9.8664L5.42988 10.3322L8.36667 13.7584C8.53427 13.954 8.60002 14.217 8.54416 14.4684L7.59681 18.7315L11.6516 16.8233C11.8723 16.7195 12.1277 16.7195 12.3484 16.8233L16.4032 18.7315L15.4558 14.4684C15.4 14.217 15.4657 13.954 15.6333 13.7584L18.5701 10.3322L14.844 9.8664C14.5865 9.83422 14.3596 9.68181 14.2323 9.45566L12 5.48705Z" />
</svg>
