<svg width="24" height="24" viewBox="0 0 24 24" fill="242424" xmlns="http://www.w3.org/2000/svg">
<g clip-path="url(#clip0_3663_8262)">
<path d="M11.6702 2.60791L4.39263 18.3625C4.39263 18.3625 2 16.4673 2 11.7438L11.6702 2.60791Z" fill="#89C9B2"/>
<path d="M12.7101 2L5.79541 17.1838L18.4226 4.40849L12.7101 2Z" fill="#62BC9C"/>
<path d="M12.1719 11.6197L18.9742 4.83923C18.9742 4.83923 25.7418 11.2436 19.0359 19.1322L12.1719 11.6197Z" fill="#89C9B2"/>
<path d="M18.5352 19.465L11.7459 12.1141L5.00977 18.9166L11.7725 22L18.5352 19.465Z" fill="#62BC9C"/>
<path d="M5.79541 17.1838L11.5614 4.5224L8.33679 14.6128L5.79541 17.1838Z" fill="#279C74"/>
<path d="M12.1719 12.5751L18.5353 19.4649L15.9024 20.4522L12.1719 12.5751Z" fill="#279C74"/>
</g>
<defs>
<clipPath id="clip0_3663_8262">
<rect width="20" height="20" fill="white" transform="translate(2 2)"/>
</clipPath>
</defs>
</svg>
