<svg width="168" height="24" viewBox="0 0 168 24" fill="none" xmlns="http://www.w3.org/2000/svg">
<g clip-path="url(#clip0_3183_2834)">
<path d="M-0.000103173 15.1569C-0.000103173 10.2193 3.83666 6.31372 8.74189 6.31372C11.6114 6.38657 14.5213 7.59264 15.6181 9.95217C15.6141 10.7414 14.5537 10.968 14.0842 10.3528C10.1544 5.32215 1.38 8.51945 1.66735 15.1569C1.39214 21.762 10.1544 25.0321 14.0802 19.9286C14.5294 19.3012 15.6303 19.5441 15.6141 20.3616C14.4687 22.6807 11.6114 23.9272 8.73784 24.0001C3.83261 24.0001 -0.00415039 20.0945 -0.00415039 15.1569H-0.000103173Z" fill="url(#paint0_linear_3183_2834)"/>
<path d="M19.6897 0.906633C19.6412 -0.173974 21.3855 -0.182068 21.3572 0.906633V9.38151C24.7933 3.70326 34.4418 6.25706 33.9724 13.9549V23.0328C33.9724 23.4982 33.6041 23.8989 33.1386 23.8989C32.6732 23.8989 32.3049 23.4982 32.3049 23.0328V13.9225C32.5801 5.83615 21.1265 5.77948 21.3572 13.9225V23.0328C21.3572 23.4982 20.9889 23.8989 20.5235 23.8989C18.6658 24.8338 20.1309 1.25469 19.6897 0.906633Z" fill="url(#paint1_linear_3183_2834)"/>
<path d="M53.7309 20.1956C49.3558 27.2094 37.5744 23.6721 37.9467 15.1568C37.5784 6.64548 49.3599 3.10416 53.7309 10.118C53.9211 9.39759 53.1359 6.32575 54.5646 6.41479C56.3616 5.6782 54.9977 22.5753 55.3983 23.0327C55.4145 24.1497 53.7106 24.1578 53.7309 23.0327V20.1956ZM53.7309 15.4563C54.0992 5.72271 39.6506 5.35847 39.6142 15.1568C39.5899 24.5382 53.3909 24.8418 53.7309 15.4563Z" fill="url(#paint2_linear_3183_2834)"/>
<path d="M60.174 13.9549C59.8705 3.80445 74.7845 3.81255 74.4566 13.9549V23.0328C74.4566 23.4982 74.0883 23.8989 73.6229 23.8989C70.5349 22.6685 76.7757 7.93261 67.3173 7.84762C64.2819 7.84762 61.8455 9.91575 61.8455 13.9225V23.0328C61.8698 24.1539 60.1295 24.1539 60.1781 23.0328V13.9549H60.174Z" fill="url(#paint3_linear_3183_2834)"/>
<path d="M79.2324 13.9549C78.9288 3.80445 93.8428 3.81255 93.515 13.9549V23.0328C93.515 23.4982 93.1467 23.8989 92.6813 23.8989C89.5932 22.6685 95.834 7.93261 86.3757 7.84762C83.3403 7.84762 80.9039 9.91575 80.9039 13.9225V23.0328C80.9281 24.1539 79.1878 24.1539 79.2364 23.0328V13.9549H79.2324Z" fill="url(#paint4_linear_3183_2834)"/>
<path d="M97.4894 15.1569C97.1737 7.67768 106.774 3.50095 112.039 8.51546C112.403 8.89994 112.476 9.37751 112.039 9.85104L105.264 17.9252C104.604 18.7509 103.362 17.7229 104.062 16.9256L110.469 9.38156C105.997 5.56908 98.9707 9.29657 99.1569 15.1569C98.8736 21.762 107.668 25.0322 111.57 19.9286C112.076 19.3094 113.1 19.5401 113.104 20.3617C111.958 22.6807 109.101 23.9273 106.227 24.0001C101.322 24.0001 97.4854 20.0945 97.4854 15.1569H97.4894Z" fill="url(#paint5_linear_3183_2834)"/>
<path d="M117.045 0.906603C117.045 0.441173 117.377 0.072876 117.879 0.072876C118.345 0.072876 118.713 0.441173 118.713 0.906603V23.0327C118.713 23.4982 118.345 23.8988 117.879 23.8988C117.377 23.8988 117.045 23.4982 117.045 23.0327V0.906603Z" fill="url(#paint6_linear_3183_2834)"/>
<path d="M136.743 8.18356C136.974 6.0183 140.819 5.57311 140.414 8.18356L137.678 22.0979C137.476 23.134 136.545 23.9677 135.509 23.9677C134.473 23.9677 133.805 23.134 134.007 22.0979L136.743 8.18356ZM137.512 2.6753C137.375 -0.0201493 141.843 -0.995529 141.92 1.77277C142.037 4.52488 137.613 5.46383 137.512 2.6753Z" fill="url(#paint7_linear_3183_2834)"/>
<path d="M149.488 1.90631C149.771 0.295513 152.115 -0.845802 153.159 0.805463L160.95 16.5168L163.807 1.97106C164.005 0.870218 165.042 6.64431e-05 166.11 6.64431e-05C167.178 6.64431e-05 167.947 0.866171 167.713 1.97106L163.807 21.9926C163.536 24.2915 159.521 24.7852 159.902 21.9926L160.003 23.0854L152.459 6.80749L149.52 21.9926C149.286 23.0611 148.254 23.9596 147.185 23.9596C146.117 23.9596 145.384 23.0571 145.582 21.9926L149.488 1.90226V1.90631Z" fill="url(#paint8_linear_3183_2834)"/>
</g>
<defs>
<linearGradient id="paint0_linear_3183_2834" x1="-5.11983" y1="17.3788" x2="170.987" y2="-10.9881" gradientUnits="userSpaceOnUse">
<stop stop-color="#7AB6EF"/>
<stop offset="1" stop-color="#455FEC"/>
</linearGradient>
<linearGradient id="paint1_linear_3183_2834" x1="-4.65024" y1="17.0672" x2="169.526" y2="-10.9922" gradientUnits="userSpaceOnUse">
<stop stop-color="#7AB6EF"/>
<stop offset="1" stop-color="#455FEC"/>
</linearGradient>
<linearGradient id="paint2_linear_3183_2834" x1="-3.82055" y1="23.8583" x2="171.064" y2="-4.31034" gradientUnits="userSpaceOnUse">
<stop stop-color="#7AB6EF"/>
<stop offset="1" stop-color="#455FEC"/>
</linearGradient>
<linearGradient id="paint3_linear_3183_2834" x1="-3.76395" y1="27.0355" x2="172.934" y2="-1.42861" gradientUnits="userSpaceOnUse">
<stop stop-color="#7AB6EF"/>
<stop offset="1" stop-color="#455FEC"/>
</linearGradient>
<linearGradient id="paint4_linear_3183_2834" x1="-3.33896" y1="30.0385" x2="173.363" y2="1.57445" gradientUnits="userSpaceOnUse">
<stop stop-color="#7AB6EF"/>
<stop offset="1" stop-color="#455FEC"/>
</linearGradient>
<linearGradient id="paint5_linear_3183_2834" x1="-2.65086" y1="32.7138" x2="173.524" y2="4.33469" gradientUnits="userSpaceOnUse">
<stop stop-color="#7AB6EF"/>
<stop offset="1" stop-color="#455FEC"/>
</linearGradient>
<linearGradient id="paint6_linear_3183_2834" x1="-2.85732" y1="31.4348" x2="173.318" y2="3.05573" gradientUnits="userSpaceOnUse">
<stop stop-color="#7AB6EF"/>
<stop offset="1" stop-color="#455FEC"/>
</linearGradient>
<linearGradient id="paint7_linear_3183_2834" x1="-4.62214" y1="34.9883" x2="171.533" y2="6.6132" gradientUnits="userSpaceOnUse">
<stop stop-color="#7AB6EF"/>
<stop offset="1" stop-color="#455FEC"/>
</linearGradient>
<linearGradient id="paint8_linear_3183_2834" x1="-4.1727" y1="37.8577" x2="171.999" y2="9.47863" gradientUnits="userSpaceOnUse">
<stop stop-color="#7AB6EF"/>
<stop offset="1" stop-color="#455FEC"/>
</linearGradient>
<clipPath id="clip0_3183_2834">
<rect width="167.749" height="24" fill="white"/>
</clipPath>
</defs>
</svg>
