<svg width="143" height="96" viewBox="0 0 143 96" fill="none" xmlns="http://www.w3.org/2000/svg">
<g clip-path="url(#clip0_9_37)">
<path d="M119.75 14.46V10.94H116.1V7.42H112.44V3.9H108.78V0.380005H105.13H101.47H97.8099H94.1599V3.9H90.5099H90.4999H86.8499V7.42H83.1999V10.94H79.5599V14.46H75.9099V17.98V21.5V25.02V28.55V32.07V35.59H79.5599V39.11H83.1999V42.63H86.8499V46.15H90.4999V49.67H94.1599H97.8099H101.47H105.13H108.78V46.15H112.44V42.63H116.1V39.11H119.75V35.59H123.39V32.07V28.55V25.02V21.5V17.98V14.46H119.75Z" fill="#F45F37"/>
<path d="M67.0301 14.08V10.56H63.3801V7.04H59.7201V3.52H56.0601V0H52.4101H48.7501H45.0901H41.4401V3.52H37.7901H37.7801H34.1301V7.04H30.4901V3.52H26.8501V0.37H23.2301H23.1901H19.5701V3.8V3.89V7.23V7.32V10.66V10.75V14.08V14.18V17.6V21.13V24.65V28.17V31.69V35.21V38.73V42.25V45.77V49.29H23.2301V45.77H26.8501V42.25H30.4801H30.4901H34.1301V45.77H37.7801V49.29H41.4401H45.0901H48.7501H52.4101H56.0601V45.77H59.7201V42.25H63.3801V38.73H67.0301V35.21H70.6701V31.69V28.17V24.65V21.13V17.6V14.08H67.0301Z" fill="#FFB133"/>
<path d="M108.78 18.87V15.35H105.13H101.47V18.87H97.81H94.16V20.63H90.5V24.16V27.68H94.16V29.44H97.81H101.47H105.13H108.78V25.91H112.44V22.39V18.87H108.78Z" fill="white"/>
<path d="M98.96 22.39H95.3V25.91H98.96V22.39Z" fill="black"/>
<path d="M106.96 22.39H103.3V25.91H106.96V22.39Z" fill="black"/>
<path d="M57.8901 20.63V18.87H54.2301H50.5801V15.35H46.9201H43.2601V18.87H39.6101V22.39V25.91H43.2601V29.44H46.9201H50.5801H54.2301H57.8901V27.68H61.5501V24.16V20.63H57.8901Z" fill="white"/>
<path d="M53.09 25.92H56.75V22.4H53.09V25.92Z" fill="black"/>
<path d="M45.09 25.92H48.75V22.4H45.09V25.92Z" fill="black"/>
<path d="M4.61002 67.21V79.07H6.92001V76.7H9.23001V72H13.84V76.7H11.53V79.07H9.23001V81.45H11.53V83.82H13.84V88.56H9.23001V83.82H6.92001V81.45H4.61002V88.56H0V67.21H4.61002Z" fill="white"/>
<path d="M32.2799 86.19V88.56H18.45V86.19H23.06V69.59H18.45V67.21H27.67V86.21L32.2799 86.19Z" fill="white"/>
<path d="M39.1999 74.33V72H48.4199V74.37H50.7299V88.56H39.1999V86.19H36.8899V81.45H39.1999V79.07H46.1199V74.33H39.1999ZM46.1199 81.45H41.5099V86.19H46.1199V81.45Z" fill="white"/>
<path d="M59.95 93.31V90.94H62.26V88.56H57.67V86.19H55.36V72H59.97V86.19H64.58V72H69.2V86.19H66.8701V90.94H64.5601V93.31H62.26V95.68H53.04V93.31H59.95Z" fill="white"/>
<path d="M73.79 88.56V72H87.67V74.37H89.98V88.56H85.3701V74.33H83.0601V86.19H80.67V74.33H78.36V88.56H73.79Z" fill="white"/>
<path d="M106.07 86.19V88.56H92.23V86.19H96.85V74.33H92.23V72H101.46V86.19H106.07ZM96.85 69.59V64.84H101.46V69.59H96.85Z" fill="white"/>
<path d="M124.52 74.33V88.56H119.9V74.33H115.29V88.56H110.67V72H122.2V74.37L124.52 74.33Z" fill="white"/>
<path d="M136.04 67.21V72H142.96V74.37H136.04V86.19H142.96V88.56H133.74V86.19H131.43V74.33H129.13V72H131.43V67.21H136.04Z" fill="white"/>
</g>
<defs>
<clipPath id="clip0_9_37">
<rect width="142.96" height="95.68" fill="white"/>
</clipPath>
</defs>
</svg>
