<svg width="208" height="38" viewBox="0 0 208 38" fill="none" xmlns="http://www.w3.org/2000/svg">
<g clip-path="url(#clip0_6_265)">
<path d="M97.4256 10.6276V19.4213H99.1309V17.6566H100.844V14.1421H104.262V17.6566H102.549V19.4213H100.844V21.1786H102.549V22.9359H104.262V26.4504H100.844V22.9359H99.1309V21.1786H97.4256V26.4504H94V10.6276H97.4256Z" fill="white"/>
<path d="M117.934 24.6932V26.4504H107.68V24.6932H111.135V12.3848H107.717V10.6276H114.553V24.7154L117.934 24.6932Z" fill="white"/>
<path d="M123.065 15.8771V14.1199H129.909V15.8771H131.615V26.4282H123.065V24.6709H121.36V21.1564H123.065V19.3991H128.189V15.8771H123.065ZM128.196 21.1564H124.778V24.6709H128.189L128.196 21.1564Z" fill="white"/>
<path d="M138.451 29.9651V28.2078H140.164V26.4431H136.746V24.6859H135.033V14.1422H138.451V24.6933H141.876V14.1422H145.295V24.6933H143.582V28.2152H141.876V29.9651H140.164V31.7224H133.327V29.9651H138.451Z" fill="white"/>
<path d="M148.713 26.4506V14.1422H158.967V15.8772H160.68V26.4283H157.262V15.8772H155.549V24.671H153.844V15.8772H152.131V26.4283L148.713 26.4506Z" fill="white"/>
<path d="M172.677 24.6932V26.4505H162.423V24.6932H165.841V15.8772H162.423V14.1199H169.259V24.671L172.677 24.6932ZM165.841 12.3849V8.86292H169.259V12.3849H165.841Z" fill="white"/>
<path d="M186.327 15.8771V26.4282H182.909V15.8771H179.484V26.4282H176.065V14.1199H184.615V15.8771H186.327Z" fill="white"/>
<path d="M194.876 10.6276V14.1421H200V15.8772H194.876V24.6709H200V26.4282H193.164V24.6709H191.458V15.8772H189.731V14.1199H191.443V10.6053L194.876 10.6276Z" fill="white"/>
</g>
<g clip-path="url(#clip1_6_265)">
<path d="M75.2654 10.8638V8.21925H72.5231V5.57468H69.7734V2.9301H67.0311V0.285522H64.2814H61.5316H58.7818H56.0396V2.9301H53.2974H53.2898H50.5476V5.57468H47.8053V8.21925H45.0706V10.8638H42.3284V13.5084V16.153V18.7976V21.4497V24.0942V26.7388H45.0706V29.3834H47.8053V32.028H50.5476V34.6725H53.2898V37.3171H56.0396H58.7818H61.5316H64.2814H67.0311V34.6725H69.7734V32.028H72.5231V29.3834H75.2654V26.7388H78.0001V24.0942V21.4497V18.7976V16.153V13.5084V10.8638H75.2654Z" fill="#F45F37"/>
<path d="M35.6567 10.5783V7.93373H32.9145V5.28915H30.1647V2.64458H27.415V0H24.6727H21.9229H19.1732H16.4309V2.64458H13.6887H13.6812H10.9389V5.28915H8.21171V2.64458H5.46947V0.277981H2.74976H2.71971H0V2.85494V2.92256V5.4319V5.49952V8.00886V8.07648V10.5783V10.6534V13.2229V15.875V18.5196V21.1641V23.8087V26.4533V29.0979V31.7424V34.387V37.0316H2.74976V34.387H5.46947V31.7424H8.19669H8.21171H10.9389V34.387H13.6812V37.0316H16.4309H19.1732H21.9229H24.6727H27.415V34.387H30.1647V31.7424H32.9145V29.0979H35.6567V26.4533H38.3914V23.8087V21.1641V18.5196V15.875V13.2229V10.5783H35.6567Z" fill="#FFB133"/>
<path d="M67.0311 14.177V11.5325H64.2813H61.5316V14.177H58.7818H56.0396V15.4993H53.2898V18.1514V20.796H56.0396V22.1183H58.7818H61.5316H64.2813H67.0311V19.4662H69.7733V16.8216V14.177H67.0311Z" fill="white"/>
<path d="M59.6458 16.8217H56.896V19.4662H59.6458V16.8217Z" fill="black"/>
<path d="M65.6563 16.8217H62.9065V19.4662H65.6563V16.8217Z" fill="black"/>
<path d="M28.7899 15.4993V14.177H26.0477H23.2979V11.5325H20.5482H17.8059V14.177H15.0562V16.8216V19.4662H17.8059V22.1183H20.5482H23.2979H26.0477H28.7899V20.796H31.5397V18.1514V15.4993H28.7899Z" fill="white"/>
<path d="M25.176 19.4738H27.9258V16.8292H25.176V19.4738Z" fill="black"/>
<path d="M19.1731 19.4738H21.9229V16.8292H19.1731V19.4738Z" fill="black"/>
</g>
<defs>
<clipPath id="clip0_6_265">
<rect width="106" height="22.8668" fill="white" transform="translate(94 8.86292)"/>
</clipPath>
<clipPath id="clip1_6_265">
<rect width="78" height="37.3171" fill="white"/>
</clipPath>
</defs>
</svg>
