<svg width="24" height="24" viewBox="0 0 24 24" fill="none" xmlns="http://www.w3.org/2000/svg">
<path d="M11.6539 20.3078C16.9856 20.3078 21.3078 15.9856 21.3078 10.6539C21.3078 5.3222 16.9856 1 11.6539 1C6.3222 1 2 5.3222 2 10.6539C2 15.9856 6.3222 20.3078 11.6539 20.3078Z" fill="url(#paint0_linear_6_291)"/>
<path d="M11.6539 20.3078C16.9856 20.3078 21.3078 15.9856 21.3078 10.6539C21.3078 5.3222 16.9856 1 11.6539 1C6.3222 1 2 5.3222 2 10.6539C2 15.9856 6.3222 20.3078 11.6539 20.3078Z" fill="url(#paint1_linear_6_291)"/>
<path opacity="0.3" d="M2.04395 9.72461C3.41722 8.6501 4.95199 7.79985 6.59123 7.20544C9.08838 6.29158 11.9753 5.88419 14.2567 7.07992C14.8022 7.36245 15.2789 7.76167 15.6528 8.24922C16.0352 8.6745 16.314 9.18248 16.4675 9.73342C16.5985 10.312 16.6128 10.9109 16.5094 11.4951C16.4109 12.0624 16.1941 12.6026 15.873 13.0806C15.2124 14.1023 14.2478 14.8136 13.0984 15.3377C12.1342 15.7532 11.131 16.0711 10.1035 16.2868V9.46036C10.1061 9.30598 10.0778 9.15264 10.0203 9.00933C9.96283 8.86602 9.87733 8.73563 9.76882 8.62578C9.56155 8.41541 9.28747 8.28382 8.99369 8.25362H8.39693V22.4108H8.43217C8.64939 22.4219 8.86659 22.3884 9.07033 22.3123C9.27408 22.2361 9.46004 22.119 9.6167 21.9681C9.77336 21.8172 9.8974 21.6358 9.98114 21.4351C10.0649 21.2343 10.1065 21.0185 10.1035 20.801V18.3964C11.3609 18.0595 12.8627 17.6543 13.955 17.0751C14.6307 16.7132 15.2594 16.2694 15.8267 15.7539C16.1178 15.4925 16.3859 15.2066 16.6283 14.8995C16.8544 14.6346 17.0488 14.3442 17.2074 14.0341C17.4497 13.5606 17.6985 13.2215 17.802 11.9795C17.8681 11.1978 17.8659 10.143 17.6302 9.38329C17.3946 8.62357 17.1634 7.90129 16.6305 7.33536C16.0929 6.7784 15.4407 6.34487 14.7191 6.06476C14.0383 5.78065 13.3219 5.59098 12.5897 5.50103C11.8693 5.42174 11.1422 5.42617 10.4228 5.51424C9.02318 5.70612 7.65941 6.10308 6.37543 6.69235C4.8135 7.38224 3.36442 8.3035 2.07698 9.42513L2.04395 9.72461Z" fill="white"/>
<path d="M17.388 8.83052C17.1592 8.10335 16.7693 7.43718 16.2473 6.88169C15.7283 6.34503 15.0996 5.92667 14.4042 5.65513C13.7473 5.38096 13.0561 5.19796 12.3496 5.11122C11.6542 5.0341 10.9521 5.03854 10.2576 5.12443C8.9077 5.31043 7.5923 5.69326 6.35337 6.2607C4.76024 6.99155 3.31743 8.01317 2.09896 9.27314L2.06152 9.56161C3.36623 8.34406 4.89484 7.3913 6.56257 6.75617C8.97164 5.87534 11.7551 5.47676 13.9571 6.63505C14.6694 7.04708 15.2423 7.66266 15.6021 8.40271C15.9619 9.14275 16.0923 9.97348 15.9764 10.7882C15.9062 11.3038 15.7203 11.7969 15.4325 12.2305C14.7895 13.2171 13.8514 13.7059 12.7438 14.2124C11.7551 14.6528 10.7355 14.873 9.62565 15.0932V9.47353C9.63266 9.30852 9.6062 9.14381 9.54788 8.98929C9.48957 8.83477 9.40059 8.69365 9.28631 8.57442C9.17203 8.45519 9.03481 8.36031 8.88291 8.29549C8.731 8.23068 8.56755 8.19726 8.4024 8.19726C8.23724 8.19726 8.0738 8.23068 7.92189 8.29549C7.76999 8.36031 7.63277 8.45519 7.51849 8.57442C7.40421 8.69365 7.31523 8.83477 7.25691 8.98929C7.1986 9.14381 7.17214 9.30852 7.17915 9.47353V21.1864C7.17214 21.3514 7.1986 21.5161 7.25691 21.6706C7.31523 21.8251 7.40421 21.9662 7.51849 22.0855C7.63277 22.2047 7.76999 22.2996 7.92189 22.3644C8.0738 22.4292 8.23724 22.4626 8.4024 22.4626C8.56755 22.4626 8.731 22.4292 8.88291 22.3644C9.03481 22.2996 9.17203 22.2047 9.28631 22.0855C9.40059 21.9662 9.48957 21.8251 9.54788 21.6706C9.6062 21.5161 9.63266 21.3514 9.62565 21.1864V17.6366C10.8918 17.2953 12.5148 16.8835 13.6709 16.2647C14.3225 15.9201 14.929 15.4963 15.4766 15.0029C15.7572 14.7494 16.0164 14.4732 16.2517 14.1772C16.4843 13.8865 16.6948 13.5788 16.8815 13.2567C17.2712 12.5907 17.5165 11.8502 17.6016 11.0832C17.6849 10.3256 17.6122 9.55898 17.388 8.83052Z" fill="url(#paint2_linear_6_291)"/>
<defs>
<linearGradient id="paint0_linear_6_291" x1="5.26127" y1="17.0487" x2="17.5951" y2="4.7149" gradientUnits="userSpaceOnUse">
<stop stop-color="#FFB200"/>
<stop offset="1" stop-color="#FC210D"/>
</linearGradient>
<linearGradient id="paint1_linear_6_291" x1="5.26127" y1="17.0487" x2="17.5951" y2="4.7149" gradientUnits="userSpaceOnUse">
<stop stop-color="#FFB200"/>
<stop offset="1" stop-color="#FC210D"/>
</linearGradient>
<linearGradient id="paint2_linear_6_291" x1="5.14003" y1="21.6224" x2="8.725" y2="13.129" gradientUnits="userSpaceOnUse">
<stop stop-color="#FFB200"/>
<stop offset="0.47" stop-color="white"/>
</linearGradient>
</defs>
</svg>
