<svg width="20" height="20" viewBox="0 0 20 20" fill="none" xmlns="http://www.w3.org/2000/svg">
<path d="M8.31252 2.50074C6.60017 2.50004 4.88748 2.50004 3.17513 2.50074C2.74174 2.50074 2.50104 2.74404 2.50035 3.18051C2.5 3.60898 2.5 4.03746 2.5 4.46593C2.5 4.8944 2.5 5.32287 2.5 5.75135C2.5 6.17982 2.5 6.60794 2.5 7.03641C2.5 7.46488 2.5 7.89336 2.5007 8.32183C2.50139 8.73394 2.74522 8.98942 3.15391 8.99012C4.87809 8.9929 6.60191 8.9929 8.32609 8.99012C8.73513 8.98942 8.98522 8.73673 8.98557 8.32531C8.988 6.60585 8.988 4.8864 8.98557 3.16694C8.98522 2.74438 8.73478 2.50074 8.31252 2.50074Z" fill="#FFB133"/>
<path d="M11.7079 8.99078C13.4088 8.99183 15.1096 8.99183 16.8105 8.99078C17.2554 8.99078 17.4978 8.74609 17.4982 8.3037C17.4988 7.45859 17.4982 6.61313 17.4982 5.76802C17.4982 4.91699 17.4982 4.06596 17.4982 3.21494C17.4982 2.73182 17.2686 2.5007 16.7879 2.5007C15.0985 2.5007 13.4091 2.5007 11.7201 2.5007C11.2512 2.5007 11.0126 2.73634 11.0122 3.20241C11.0115 4.89854 11.0115 6.59503 11.0122 8.29116C11.0122 8.74644 11.255 8.99078 11.7075 8.99078H11.7079Z" fill="#FFB133"/>
<path d="M8.28987 11.0092C6.589 11.0081 4.88814 11.0081 3.18727 11.0092C2.74205 11.0092 2.50066 11.2532 2.50031 11.6963C2.49961 12.5414 2.50031 13.3868 2.50031 14.2319C2.50031 15.077 2.50031 15.934 2.50031 16.785C2.50031 17.2685 2.72987 17.4993 3.21092 17.4993C4.90031 17.4993 6.5897 17.4993 8.27874 17.4993C8.74727 17.4993 8.98587 17.2636 8.98622 16.7969C8.98727 15.1007 8.98727 13.4042 8.98622 11.7081C8.98622 11.2532 8.74344 11.0092 8.29022 11.0092H8.28987Z" fill="#FFB133"/>
<path d="M17.4595 13.7924C17.1892 12.1544 15.8661 11.0263 14.2038 11.02C13.3604 11.0169 12.5165 11.0186 11.673 11.02C11.2372 11.0207 11.0143 11.2477 11.0132 11.689C11.0129 11.9069 11.0129 12.1248 11.0129 12.3427C11.0129 12.5606 11.0129 12.7785 11.0129 12.9964C11.0129 13.1951 11.0122 13.3939 11.0118 13.5926C11.0115 13.7914 11.0118 13.9901 11.0146 14.1888C11.0167 14.3681 11.0219 14.5494 11.0494 14.7263C11.3398 16.5759 13.0233 17.774 14.8654 17.4468C16.5364 17.1499 17.7346 15.4617 17.4595 13.7931V13.7924Z" fill="#F45F37"/>
</svg>
