<svg width="24" height="24" viewBox="0 0 24 24" fill="242424" xmlns="http://www.w3.org/2000/svg">
<path fill-rule="evenodd" clip-rule="evenodd" d="M9.28208 6.91296H14.7181C14.9307 6.91296 15.1129 6.75665 15.1129 6.54351V5.44937H14.3385V4.72469C14.3385 4.32682 13.9892 4 13.5641 4H10.4361C10.0109 4 9.66169 4.32682 9.66169 4.72469V5.44937H8.88729V6.54351C8.88729 6.74244 9.05432 6.91296 9.28208 6.91296Z" />
<path fill-rule="evenodd" clip-rule="evenodd" d="M19 9.34283V6.913C19 6.10306 18.3015 5.46363 17.4512 5.46363H15.9024V6.55776C15.9024 7.15456 15.3861 7.6519 14.7332 7.6519H9.282C8.64425 7.6519 8.1128 7.16877 8.1128 6.55776V5.46363H6.54881C5.6833 5.46363 5 6.11727 5 6.913V18.5506C5 19.3606 5.69848 20 6.54881 20H17.436C18.3015 20 18.9848 19.3464 18.9848 18.5506V9.34283H19ZM11.6204 17.4707H8.1128C7.90022 17.4707 7.718 17.3144 7.718 17.1013C7.718 16.8881 7.88503 16.7318 8.1128 16.7318H11.6052C11.8178 16.7318 12 16.8881 12 17.1013C12 17.3144 11.833 17.4707 11.6052 17.4707H11.6204ZM11.6204 15.2824H8.1128C7.90022 15.2824 7.718 15.1261 7.718 14.913C7.718 14.6998 7.88503 14.5435 8.1128 14.5435H11.6052C11.8178 14.5435 12 14.6998 12 14.913C12 15.1261 11.833 15.2824 11.6052 15.2824H11.6204ZM13.564 13.0942H8.1128C7.90022 13.0942 7.718 12.9379 7.718 12.7247C7.718 12.5116 7.88503 12.3553 8.1128 12.3553H13.5488C13.7614 12.3553 13.9436 12.5116 13.9436 12.7247C13.9436 12.9379 13.7766 13.0942 13.5488 13.0942H13.564ZM15.9024 10.9059H8.1128C7.90022 10.9059 7.718 10.7496 7.718 10.5364C7.718 10.3233 7.88503 10.167 8.1128 10.167H15.8872C16.0998 10.167 16.282 10.3233 16.282 10.5364C16.282 10.7496 16.115 10.9059 15.8872 10.9059H15.9024ZM16.3731 17.8401H16.3275L16.4035 17.8117L16.3731 17.8401Z" />
</svg>
