<svg width="24" height="24" viewBox="0 0 24 24" fill="#242424" xmlns="http://www.w3.org/2000/svg">
<path fill-rule="evenodd" clip-rule="evenodd" d="M7.5 5.36364C6.8724 5.36364 6.36364 5.8724 6.36364 6.5C6.36364 7.1276 6.8724 7.63636 7.5 7.63636C8.1276 7.63636 8.63636 7.1276 8.63636 6.5C8.63636 5.8724 8.1276 5.36364 7.5 5.36364ZM5 6.5C5 5.11929 6.11929 4 7.5 4C8.88071 4 10 5.11929 10 6.5C10 7.88071 8.88071 9 7.5 9C6.11929 9 5 7.88071 5 6.5Z"/>
<path fill-rule="evenodd" clip-rule="evenodd" d="M7.5 11C7.8866 11 8.2 11.3358 8.2 11.75V17.5799L9.83494 16.0228C10.1239 15.7476 10.5663 15.7755 10.8232 16.0851C11.08 16.3946 11.054 16.8687 10.765 17.1439L7.96505 19.8106C7.69983 20.0631 7.30017 20.0631 7.03495 19.8106L4.23495 17.1439C3.946 16.8687 3.91998 16.3946 4.17682 16.0851C4.43366 15.7755 4.87611 15.7476 5.16506 16.0228L6.8 17.5799V11.75C6.8 11.3358 7.1134 11 7.5 11Z"/>
<path fill-rule="evenodd" clip-rule="evenodd" d="M16.5 18.6364C17.1276 18.6364 17.6364 18.1276 17.6364 17.5C17.6364 16.8724 17.1276 16.3636 16.5 16.3636C15.8724 16.3636 15.3636 16.8724 15.3636 17.5C15.3636 18.1276 15.8724 18.6364 16.5 18.6364ZM19 17.5C19 18.8807 17.8807 20 16.5 20C15.1193 20 14 18.8807 14 17.5C14 16.1193 15.1193 15 16.5 15C17.8807 15 19 16.1193 19 17.5Z"/>
<path fill-rule="evenodd" clip-rule="evenodd" d="M16.5 13C16.1134 13 15.8 12.6642 15.8 12.25L15.8 6.42013L14.1651 7.97722C13.8761 8.25241 13.4337 8.22453 13.1768 7.91494C12.92 7.60535 12.946 7.1313 13.235 6.85611L16.0349 4.18944C16.3002 3.93685 16.6998 3.93685 16.9651 4.18944L19.765 6.85611C20.054 7.1313 20.08 7.60535 19.8232 7.91494C19.5663 8.22453 19.1239 8.25241 18.8349 7.97722L17.2 6.42013L17.2 12.25C17.2 12.6642 16.8866 13 16.5 13Z"/>
</svg>
