<svg width="24" height="24" viewBox="0 0 24 24" fill="none" xmlns="http://www.w3.org/2000/svg">
<path fill-rule="evenodd" clip-rule="evenodd" d="M12.18 4.26L19.77 11.83C19.91 11.98 20 12.18 20 12.39C20 12.5 19.98 12.6 19.94 12.7C19.9 12.8 19.84 12.89 19.77 12.96L12.96 19.77C12.89 19.84 12.8 19.9 12.7 19.94C12.6 19.98 12.5 20 12.39 20C12.18 20 11.97 19.92 11.82 19.77L4.23 12.17C4.09 12.01 4 11.81 4 11.6V6.79C4 6.69 4.02 6.58 4.06 6.49C4.1 6.39 4.16 6.3 4.23 6.23L6.23 4.23C6.3 4.16 6.39 4.1 6.49 4.06C6.59 4.02 6.69 4 6.8 4H11.6C11.71 4 11.8 4.02 11.91 4.07C12.02 4.12 12.11 4.18 12.18 4.26ZM7.55 7.34C7.42 7.43 7.32 7.55 7.26 7.7C7.19 7.84 7.18 8 7.21 8.16C7.24 8.32 7.32 8.46 7.43 8.57C7.54 8.68 7.68 8.76 7.84 8.79C7.99 8.82 8.15 8.8 8.3 8.74C8.45 8.68 8.57 8.58 8.66 8.45C8.74 8.32 8.79 8.17 8.79 8.01C8.79 7.79 8.71 7.59 8.56 7.44C8.41 7.29 8.2 7.21 7.99 7.21C7.84 7.21 7.68 7.25 7.55 7.34ZM12.5 9C12.5 8.72386 12.2761 8.5 12 8.5C11.7239 8.5 11.5 8.72386 11.5 9V11.5H9C8.72386 11.5 8.5 11.7239 8.5 12C8.5 12.2761 8.72386 12.5 9 12.5H11.5V15C11.5 15.2761 11.7239 15.5 12 15.5C12.2761 15.5 12.5 15.2761 12.5 15V12.5H15C15.2761 12.5 15.5 12.2761 15.5 12C15.5 11.7239 15.2761 11.5 15 11.5H12.5V9Z" fill="#242424"/>
</svg>
