<svg width="20" height="20" viewBox="0 0 20 20" fill="none" xmlns="http://www.w3.org/2000/svg">
<path fill-rule="evenodd" clip-rule="evenodd" d="M6.6679 10.0003C6.6679 10.4606 7.04094 10.8336 7.5012 10.8336H12.5013C12.9615 10.8336 13.3346 10.4606 13.3346 10.0003C13.3346 9.54007 12.9615 9.16703 12.5013 9.16703H7.5012C7.04094 9.16703 6.6679 9.54007 6.6679 10.0003ZM8.33449 12.5004H5.83446C4.45372 12.5004 3.33442 11.3811 3.33442 10.0003C3.33442 8.6196 4.45372 7.5003 5.83446 7.5003H8.33449C8.79475 7.5003 9.16793 7.12725 9.16793 6.667C9.16793 6.20674 8.79475 5.83356 8.33449 5.83356H5.83446C3.53321 5.83356 1.66797 7.69908 1.66797 10.0004C1.66797 12.3017 3.53335 14.1672 5.83446 14.1672H8.33449C8.79475 14.1672 9.16793 13.7941 9.16793 13.3338C9.16793 12.8736 8.79475 12.5005 8.33449 12.5005V12.5004ZM14.1681 5.83349H11.6681C11.2079 5.83349 10.8347 6.20667 10.8347 6.66693C10.8347 7.12718 11.2079 7.50022 11.6681 7.50022H14.1681C15.5489 7.50022 16.6682 8.61953 16.6682 10.0003C16.6682 11.381 15.5489 12.5003 14.1681 12.5003H11.6681C11.2079 12.5003 10.8347 12.8733 10.8347 13.3336C10.8347 13.7938 11.2079 14.167 11.6681 14.167H14.1681C16.4694 14.167 18.3346 12.3015 18.3346 10.0002C18.3346 7.69887 16.4693 5.83334 14.1681 5.83334V5.83349Z" fill="#3D3D3D"/>
</svg>
