<svg width="20" height="20" viewBox="0 0 20 20" fill="none" xmlns="http://www.w3.org/2000/svg">
<g clip-path="url(#clip0_5382_5126)">
<path d="M4.36229 8.83325H14.6564C15.1114 8.83325 15.3209 8.25575 14.9755 7.95363L9.82817 3.45377C9.6446 3.29324 9.37365 3.29324 9.19008 3.45377L4.04325 7.95363C3.69778 8.25575 3.90706 8.83325 4.36229 8.83325V8.83325Z" fill="#FFB133"/>
<path d="M11.9619 10.3334H2.1582C1.88749 10.3334 1.66797 10.5573 1.66797 10.8334V15.3333C1.66797 15.6094 1.88749 15.8333 2.1582 15.8333H4.36388C4.63459 15.8333 4.85411 15.6094 4.85411 15.3333C4.85411 14.0906 5.84172 13.0835 7.06004 13.0835C8.27835 13.0835 9.26596 14.0908 9.26596 15.3333C9.26596 15.6094 9.48548 15.8333 9.75619 15.8333H11.9621C12.2328 15.8333 12.4523 15.6094 12.4523 15.3333V10.8334C12.4523 10.5573 12.2328 10.3334 11.9621 10.3334H11.9619Z" fill="#F45F36"/>
<path d="M17.8454 11.8333H14.9043C14.6335 11.8333 14.4141 12.0571 14.4141 12.3333V15.3333C14.4141 15.6094 14.6335 15.8333 14.9043 15.8333H17.8454C18.1162 15.8333 18.3357 15.6094 18.3357 15.3333V12.3333C18.3357 12.0571 18.1162 11.8333 17.8454 11.8333Z" fill="#FFB133"/>
</g>
<defs>
<clipPath id="clip0_5382_5126">
<rect width="16.6667" height="12.5" fill="white" transform="translate(1.66797 3.33331)"/>
</clipPath>
</defs>
</svg>
