<svg width="21" height="21" viewBox="0 0 24 24" fill="none" xmlns="http://www.w3.org/2000/svg">
<path d="M10.5204 16C10.3825 16.0003 10.2459 15.9748 10.1184 15.9251C9.99095 15.8754 9.87514 15.8024 9.77763 15.7103L5.32124 11.5006C5.22084 11.4091 5.14073 11.2997 5.08558 11.1787C5.03043 11.0577 5.00136 10.9275 5.00005 10.7958C4.99874 10.6641 5.02522 10.5334 5.07795 10.4114C5.13068 10.2895 5.2086 10.1786 5.30717 10.0854C5.40574 9.9922 5.52298 9.91845 5.65204 9.86848C5.78111 9.8185 5.91943 9.79331 6.05892 9.79436C6.19841 9.79541 6.33628 9.82268 6.46449 9.87459C6.59269 9.9265 6.70867 10.002 6.80565 10.0967L10.5193 13.604L17.206 7.2909C17.403 7.10473 17.6702 7.00009 17.9489 7C18.2276 6.99991 18.4949 7.10437 18.692 7.29041C18.8891 7.47644 18.9999 7.72881 19 7.992C19.0001 8.25519 18.8895 8.50763 18.6925 8.6938L11.2631 15.7103C11.1656 15.8024 11.0498 15.8754 10.9223 15.9251C10.7949 15.9748 10.6583 16.0003 10.5204 16V16Z" fill="white"/>
</svg>
