<svg width="24" height="24" viewBox="0 0 24 24" fill="242424" xmlns="http://www.w3.org/2000/svg">
<path d="M17.3333 9.33333H14.6667V6.37333C14.6643 5.74461 14.4135 5.1423 13.9689 4.69772C13.5244 4.25314 12.9221 4.00234 12.2933 4H6.37333C5.74461 4.00234 5.1423 4.25314 4.69772 4.69772C4.25314 5.1423 4.00234 5.74461 4 6.37333V12.2933C4.00234 12.9221 4.25314 13.5244 4.69772 13.9689C5.1423 14.4135 5.74461 14.6643 6.37333 14.6667H9.33333V17.3333C9.33333 18.0406 9.61428 18.7189 10.1144 19.219C10.6145 19.719 11.2928 20 12 20H17.3333C18.0406 20 18.7189 19.719 19.219 19.219C19.719 18.7189 20 18.0406 20 17.3333V12C20 11.2928 19.719 10.6145 19.219 10.1144C18.7189 9.61428 18.0406 9.33333 17.3333 9.33333ZM9.33333 12V12.8889H6.37333C6.21538 12.8889 6.0639 12.8261 5.95221 12.7145C5.84052 12.6028 5.77778 12.4513 5.77778 12.2933V6.37333C5.77778 6.21538 5.84052 6.0639 5.95221 5.95221C6.0639 5.84052 6.21538 5.77778 6.37333 5.77778H12.2933C12.4513 5.77778 12.6028 5.84052 12.7145 5.95221C12.8261 6.0639 12.8889 6.21538 12.8889 6.37333V9.33333H12C11.2928 9.33333 10.6145 9.61428 10.1144 10.1144C9.61428 10.6145 9.33333 11.2928 9.33333 12Z" />
</svg>
