<svg width="20" height="20" viewBox="0 0 20 20" fill="none" xmlns="http://www.w3.org/2000/svg">
<path d="M9.24206 8.97782V4.10811C9.24039 3.90304 9.31966 3.70615 9.46206 3.5606C9.60446 3.41505 9.79832 3.33325 10.0002 3.33325C10.2022 3.33325 10.396 3.41505 10.5384 3.5606C10.6808 3.70615 10.7598 3.90332 10.7584 4.10811V8.97782C10.7601 9.18289 10.6808 9.38006 10.5384 9.52561C10.396 9.67116 10.2024 9.75296 10.0002 9.75296C9.79804 9.75296 9.60446 9.67116 9.46206 9.52561C9.31966 9.38006 9.24067 9.18289 9.24206 8.97782ZM14.6606 7.19625C14.5218 7.00162 14.2993 6.88625 14.0623 6.88653C13.9756 6.88653 13.8896 6.90092 13.807 6.92856C13.6538 6.97764 13.5203 7.07552 13.4263 7.20781C13.3323 7.34011 13.283 7.49948 13.2855 7.66252C13.2905 7.83345 13.3501 7.99818 13.4555 8.13132C14.3427 9.3307 14.5624 10.9072 14.0379 12.3091C13.513 13.711 12.3171 14.7426 10.8686 15.0427C10.5849 15.0997 10.2965 15.1284 10.0075 15.1284C8.86185 15.129 7.76296 14.6687 6.9522 13.8478C6.14145 13.027 5.68504 11.9134 5.68337 10.7515C5.67947 9.7964 5.9882 8.86669 6.56171 8.10904C6.65627 7.99 6.70995 7.84276 6.7144 7.68988C6.71496 7.52374 6.66322 7.36126 6.56699 7.22699C6.47076 7.09245 6.33447 6.99259 6.17844 6.94182C6.09584 6.91418 6.00962 6.89979 5.92256 6.89979C5.69004 6.89894 5.47143 7.01177 5.33487 7.20245C4.54136 8.26615 4.13001 9.57356 4.16922 10.9075C4.22596 12.4059 4.83451 13.8281 5.87472 14.8938C6.91493 15.9594 8.31115 16.5907 9.78803 16.6632C9.85951 16.6657 9.93071 16.6666 10.0022 16.6666C11.4546 16.6666 12.8547 16.1168 13.9286 15.1251C15.0022 14.1333 15.6724 12.7709 15.8079 11.3041C15.9433 9.83758 15.5342 8.3725 14.6606 7.19568V7.19625Z" fill="white"/>
</svg>
