<svg width="24" height="24" viewBox="0 0 24 24" fill="242424" xmlns="http://www.w3.org/2000/svg">
<path d="M4.96892 14.6602L4.02366 18.7482C3.99105 18.8977 3.99216 19.0525 4.02693 19.2015C4.06169 19.3504 4.12922 19.4897 4.22458 19.6092C4.31994 19.7286 4.44073 19.8252 4.57812 19.8919C4.71551 19.9586 4.86602 19.9937 5.01868 19.9946C5.0898 20.0018 5.16148 20.0018 5.23261 19.9946L9.33706 19.0474L17.2176 11.1803L12.8196 6.78317L4.96892 14.6602Z" />
<path d="M19.6952 7.24183L16.7599 4.30042C16.5669 4.10801 16.3058 4 16.0336 4C15.7613 4 15.5002 4.10801 15.3072 4.30042L13.6754 5.93564L18.0684 10.3378L19.7002 8.70257C19.7957 8.60639 19.8713 8.49228 19.9228 8.36678C19.9742 8.24128 20.0005 8.10684 20 7.97116C19.9995 7.83549 19.9724 7.70124 19.9201 7.57609C19.8678 7.45094 19.7914 7.33735 19.6952 7.24183Z" />
</svg>
