<svg width="24" height="24" viewBox="0 0 24 24" fill="242424" xmlns="http://www.w3.org/2000/svg">
<path fill-rule="evenodd" clip-rule="evenodd" d="M18.9615 5.528C18.963 5.5336 18.9645 5.53922 18.9661 5.54484H18.9652C18.9675 5.55269 18.97 5.56043 18.9725 5.56818C18.9772 5.5823 18.9818 5.59645 18.9847 5.61136C18.9947 5.66068 19.0001 5.71046 19.0001 5.76024V11.0814C19.0001 11.5014 18.6598 11.8417 18.2398 11.8417C17.8199 11.8417 17.4796 11.5014 17.4796 11.0814V7.59521L13.7092 11.3656C13.5608 11.514 13.3662 11.5883 13.1716 11.5883C12.977 11.5883 12.7824 11.514 12.634 11.3656C12.3372 11.0692 12.3372 10.5877 12.634 10.2909L16.4044 6.52047H12.6648C12.2448 6.52047 11.9045 6.18017 11.9045 5.76024C11.9045 5.3403 12.2448 5 12.6648 5H18.2398C18.2901 5 18.3394 5.00543 18.3887 5.01539C18.4049 5.0185 18.4203 5.02355 18.4357 5.02861C18.4426 5.0309 18.4496 5.03319 18.4566 5.0353C18.4628 5.03711 18.4691 5.03883 18.4753 5.04056C18.4941 5.04573 18.5128 5.05091 18.5308 5.05838C18.5523 5.06732 18.5723 5.0788 18.5925 5.09037C18.5979 5.09344 18.6032 5.09652 18.6087 5.09955C18.6148 5.10295 18.6211 5.10612 18.6274 5.1093C18.6387 5.11502 18.6501 5.12079 18.6611 5.12806C18.7449 5.18372 18.8168 5.25522 18.8725 5.33894C18.8802 5.3505 18.8863 5.36264 18.8925 5.37473C18.8957 5.3811 18.8989 5.38745 18.9023 5.39369C18.9058 5.39991 18.9093 5.40604 18.9128 5.41215C18.9235 5.43096 18.9341 5.44956 18.9426 5.46972C18.9507 5.48874 18.9561 5.50831 18.9615 5.528ZM7.59567 17.4804H11.3353L11.3358 17.4795C11.7557 17.4795 12.096 17.8198 12.096 18.2397C12.096 18.6596 11.7557 18.9999 11.3358 18.9999H5.76069C5.71091 18.9999 5.66113 18.9945 5.61226 18.985C5.59605 18.9819 5.5807 18.9768 5.56532 18.9718C5.55837 18.9695 5.55142 18.9672 5.54438 18.9651C5.53716 18.963 5.52985 18.961 5.52252 18.959C5.50507 18.9542 5.48751 18.9495 5.47062 18.9425C5.44859 18.9334 5.42829 18.9218 5.40788 18.9101C5.40272 18.9072 5.39754 18.9042 5.39234 18.9013C5.38559 18.8975 5.37878 18.8941 5.372 18.8907C5.36105 18.8852 5.35019 18.8798 5.33984 18.8728C5.25613 18.8171 5.18418 18.7456 5.12852 18.6619C5.12081 18.6503 5.11466 18.6382 5.10853 18.6261C5.1053 18.6197 5.10208 18.6134 5.09865 18.6072C5.09521 18.6009 5.09171 18.5948 5.08823 18.5887C5.07751 18.5699 5.06691 18.5513 5.05838 18.5311C5.05054 18.5127 5.04527 18.4936 5.04005 18.4746C5.03834 18.4684 5.03663 18.4622 5.03484 18.456C5.03273 18.4491 5.03044 18.4423 5.02816 18.4355C5.0231 18.4204 5.01805 18.4054 5.01493 18.3895C5.00543 18.3402 5 18.2904 5 18.2406V12.919C5 12.499 5.3403 12.1592 5.76024 12.1592C6.18018 12.1592 6.52047 12.4995 6.52047 12.9194V16.4056L10.2913 12.6352C10.5882 12.3384 11.0692 12.3384 11.3661 12.6352C11.6629 12.9316 11.6629 13.4131 11.3661 13.71L7.59567 17.4804Z" />
</svg>
