<svg width="20" height="20" viewBox="0 0 20 20" fill="none" xmlns="http://www.w3.org/2000/svg">
<path d="M11.6545 3.08197C14.6588 3.06579 17.354 5.11115 18.1102 7.98007C18.8192 10.6693 17.8005 13.5683 15.5646 15.1494C14.2047 16.111 12.6831 16.5158 11.0182 16.3715C10.4139 16.3193 9.81716 16.2378 9.25612 15.9928C8.83147 15.8072 8.47879 15.5397 8.28595 15.1008C8.13999 14.769 8.16773 14.4549 8.40747 14.1776C8.55805 14.0035 8.74099 13.8559 8.88364 13.6763C9.02827 13.4943 9.17159 13.3002 9.26042 13.0882C9.37236 12.822 9.26966 12.5509 9.022 12.4017C8.85557 12.3013 8.66735 12.228 8.48012 12.1718C7.45479 11.8637 6.57906 11.3337 5.97278 10.4342C5.23013 9.3323 5.1806 8.13461 5.61846 6.91942C6.13591 5.48331 7.15694 4.48737 8.50686 3.81406C9.49685 3.32039 10.5502 3.08792 11.6548 3.0823L11.6545 3.08197ZM15.3549 12.7319C15.8393 12.7345 16.2445 12.3426 16.2501 11.8664C16.2557 11.377 15.8545 10.9679 15.3701 10.9692C14.8863 10.9702 14.4838 11.3661 14.4818 11.8429C14.4798 12.3224 14.8797 12.7296 15.3549 12.7319V12.7319ZM11.4349 4.48209C10.9468 4.48011 10.5681 4.86481 10.5648 5.36608C10.5615 5.85051 10.9524 6.23455 11.4507 6.23587C11.9355 6.23752 12.3209 5.84654 12.3235 5.35023C12.3261 4.86778 11.9335 4.48374 11.4349 4.48176V4.48209ZM7.93328 9.10743C8.41374 9.10445 8.82123 8.69499 8.82453 8.21221C8.8275 7.73967 8.43289 7.35167 7.94913 7.35134C7.47263 7.35134 7.05226 7.75948 7.05424 8.22146C7.05622 8.69565 7.46767 9.1104 7.93328 9.10743V9.10743ZM12.0973 13.6136C12.098 13.1486 11.707 12.7669 11.2269 12.7636C10.7381 12.7603 10.3382 13.1516 10.3386 13.6327C10.3389 14.1171 10.7236 14.5114 11.1975 14.5134C11.6964 14.5154 12.0963 14.1152 12.097 13.6136H12.0973ZM16.3551 7.34242C16.3571 6.86163 15.9592 6.46933 15.4708 6.47032C14.9953 6.47131 14.6027 6.87616 14.604 7.36455C14.6053 7.83676 14.9966 8.21882 15.4843 8.22377C15.9678 8.22872 16.3531 7.83874 16.3551 7.34275V7.34242Z" fill="#FFB133"/>
<path d="M2.3718 6.97455C3.16333 7.31731 3.34957 7.32689 4.18931 7.06701C4.2286 7.40152 4.27549 7.73273 4.30521 8.06525C4.38182 8.92415 4.47098 9.78238 4.51754 10.6433C4.57368 11.6768 4.48353 12.7071 4.36465 13.7344C4.2111 15.0629 3.79074 16.3236 3.39382 17.5903C3.36839 17.6709 3.30169 17.7389 3.25447 17.8126C3.21418 17.7386 3.15771 17.6693 3.13559 17.59C2.84071 16.5336 2.48903 15.4882 2.27505 14.4156C1.99964 13.0343 1.92832 11.6233 2.03432 10.2146C2.1106 9.20186 2.23344 8.19305 2.33647 7.18226C2.34307 7.1172 2.35826 7.05314 2.3718 6.97455Z" fill="#F45F37"/>
<path d="M4.0275 1.66666C4.04335 1.96715 4.06317 2.22967 4.0701 2.49286C4.07902 2.83595 4.19459 3.14669 4.3313 3.45445C4.48914 3.80976 4.66383 4.16045 4.78799 4.52732C4.97918 5.09232 4.8755 5.6276 4.55222 6.12887C4.08397 6.85468 3.23135 6.90289 2.61682 6.50498C2.04687 6.13547 1.75264 5.59194 1.68297 4.91697C1.54989 3.62781 2.31401 2.32676 3.51137 1.83077C3.6712 1.7644 3.84225 1.72477 4.0275 1.66666Z" fill="#F45F37"/>
<path d="M15.3553 12.7319C14.8798 12.7293 14.4799 12.3221 14.4822 11.843C14.4842 11.3661 14.8868 10.9702 15.3705 10.9692C15.855 10.9682 16.2562 11.3774 16.2506 11.8664C16.2449 12.3426 15.8398 12.7346 15.3553 12.7319Z" fill="#F45F37"/>
<path d="M11.4353 4.48213C11.934 4.48444 12.3266 4.86815 12.324 5.3506C12.3213 5.84691 11.9359 6.23756 11.4512 6.23623C10.9532 6.23458 10.5622 5.85087 10.5652 5.36645C10.5685 4.86518 10.9473 4.47982 11.4353 4.48213Z" fill="#F45F37"/>
<path d="M7.93373 9.10746C7.46812 9.11044 7.05668 8.69568 7.05469 8.22149C7.05271 7.75952 7.47275 7.35104 7.94958 7.35137C8.43335 7.35137 8.82828 7.73971 8.82498 8.21225C8.82168 8.69502 8.41419 9.10449 7.93373 9.10746Z" fill="#F45F37"/>
<path d="M12.0978 13.6136C12.0971 14.1152 11.6972 14.5154 11.1982 14.5134C10.7244 14.5114 10.34 14.1175 10.3394 13.6327C10.339 13.1516 10.7389 12.7603 11.2276 12.7636C11.7078 12.7669 12.0981 13.1486 12.0978 13.6136Z" fill="#F45F37"/>
<path d="M16.3556 7.34213C16.3536 7.83811 15.9682 8.2281 15.4848 8.22314C14.9971 8.21819 14.6057 7.83613 14.6044 7.36392C14.6031 6.87553 14.9954 6.47069 15.4712 6.4697C15.9596 6.46871 16.3575 6.86166 16.3556 7.34213Z" fill="#F45F37"/>
</svg>
