<svg width="24" height="24" viewBox="0 0 24 24" fill="242424" xmlns="http://www.w3.org/2000/svg">
<path fill-rule="evenodd" clip-rule="evenodd" d="M4 6C4 5.44772 4.51167 5 5.14286 5H18.8571C19.4883 5 20 5.44772 20 6C20 6.55228 19.4883 7 18.8571 7H5.14286C4.51167 7 4 6.55228 4 6Z" />
<path fill-rule="evenodd" clip-rule="evenodd" d="M4 12C4 11.4477 4.51167 11 5.14286 11H18.8571C19.4883 11 20 11.4477 20 12C20 12.5523 19.4883 13 18.8571 13H5.14286C4.51167 13 4 12.5523 4 12Z" />
<path fill-rule="evenodd" clip-rule="evenodd" d="M4 18C4 17.4477 4.51167 17 5.14286 17H18.8571C19.4883 17 20 17.4477 20 18C20 18.5523 19.4883 19 18.8571 19H5.14286C4.51167 19 4 18.5523 4 18Z" />
</svg>
