<svg width="24" height="24" viewBox="0 0 24 24" fill="#242424" xmlns="http://www.w3.org/2000/svg">
<path d="M19.1156 5.15404C17.0836 3.4188 13.9441 3.67944 12 5.68961C10.0559 3.67944 6.91641 3.41523 4.88438 5.15404C2.24063 7.41414 2.62735 11.0989 4.51172 13.0519L10.6781 19.4323C11.0297 19.7965 11.5008 20 12 20C12.5027 20 12.9703 19.8001 13.3219 19.4359L19.4883 13.0555C21.3691 11.1024 21.7629 7.41771 19.1156 5.15404ZM18.2859 11.8486L12.1195 18.2291C12.0352 18.3147 11.9648 18.3147 11.8805 18.2291L5.71406 11.8486C4.43086 10.5204 4.17071 8.00683 5.97071 6.46797C7.33828 5.30043 9.44766 5.47538 10.7695 6.84287L12 8.11752L13.2305 6.84287C14.5594 5.46824 16.6687 5.30043 18.0293 6.4644C19.8258 8.00326 19.5586 10.5311 18.2859 11.8486Z"/>
</svg>
