<svg width="24" height="24" viewBox="0 0 24 24" fill="242424" xmlns="http://www.w3.org/2000/svg">
<path fill-rule="evenodd" clip-rule="evenodd" d="M11.1945 5.77778H5.79863V18.2222H11.1945C11.6892 18.2222 12.0939 18.6222 12.0939 19.1111C12.0939 19.6 11.6892 20 11.1945 20H5.79863C4.80939 20 4 19.2 4 18.2222V5.77778C4 4.8 4.80939 4 5.79863 4H11.1945C11.6892 4 12.0939 4.4 12.0939 4.88889C12.0939 5.37778 11.6892 5.77778 11.1945 5.77778ZM17.3638 9.20892L19.8729 11.6889C20.0438 11.8578 20.0438 12.1423 19.8639 12.3111L17.3548 14.7911C17.076 15.0756 16.5904 14.88 16.5904 14.48V12.8889H10.2952C9.80053 12.8889 9.39583 12.4889 9.39583 12C9.39583 11.5111 9.80053 11.1111 10.2952 11.1111H16.5904V9.52004C16.5903 9.4314 16.6169 9.34476 16.6669 9.27119C16.717 9.19763 16.788 9.14048 16.8711 9.10707C16.9541 9.07366 17.0454 9.06551 17.1332 9.08365C17.2209 9.1018 17.3012 9.14541 17.3638 9.20892Z" />
</svg>
