<svg width="24" height="24" viewBox="0 0 24 24" fill="242424" xmlns="http://www.w3.org/2000/svg">
<path d="M20.6051 11.5486C15.7088 11.5486 15.4385 5.86529 15.4339 4.72608C15.4339 4.717 15.4339 4.70838 15.433 4.6993C15.4339 4.69294 15.4339 4.68567 15.4339 4.67932V4.67251L15.4348 4.57897C15.4385 4.47363 15.3972 4.37057 15.3227 4.29519C15.1742 4.14354 14.9026 4.14354 14.7541 4.29519C14.6796 4.37102 14.6401 4.47363 14.6433 4.57897L14.6442 4.67251V4.72563C14.6396 5.86483 14.3689 11.5481 9.47253 11.5481C9.25465 11.5481 9.07814 11.7225 9.07814 11.9377C9.07814 12.1529 9.25465 12.3273 9.47253 12.3273C14.3693 12.3273 14.6396 18.0106 14.6442 19.1498V19.2029L14.6433 19.2964C14.6401 19.4018 14.6796 19.5048 14.7541 19.5802C14.8285 19.656 14.9311 19.6987 15.0377 19.6987H15.0409C15.1476 19.6987 15.2501 19.6556 15.3245 19.5802C15.399 19.5044 15.4385 19.4018 15.4353 19.2964L15.4344 19.2029C15.4344 19.1938 15.4344 19.1852 15.4335 19.1761C15.4344 19.1675 15.4344 19.1593 15.4344 19.1511C15.439 18.0115 15.7093 12.3273 20.6056 12.3273C20.8235 12.3273 21 12.1529 21 11.9377C21 11.7225 20.823 11.5486 20.6051 11.5486Z" />
<path d="M7.05976 7.60337C7.39945 7.25694 7.83475 7.08803 8.39186 7.08803C8.60974 7.08803 8.78626 6.91368 8.78626 6.69846C8.78626 6.48324 8.60974 6.30889 8.39186 6.30889C7.84119 6.30889 7.40956 6.14407 7.07171 5.80535C6.39048 5.12247 6.29901 3.93786 6.28798 3.52922C6.28936 3.46883 6.2889 3.4207 6.2889 3.3871H6.28706C6.28476 3.28721 6.24431 3.18732 6.17352 3.11604C6.05953 3.00162 5.88485 2.96847 5.73684 3.03158C5.58745 3.09515 5.49276 3.24226 5.49828 3.40299C5.49828 3.4039 5.49828 3.41752 5.49828 3.44068V3.4652C5.49644 3.7626 5.44771 5.05708 4.7265 5.79355C4.38681 6.13998 3.95151 6.30889 3.39439 6.30889C3.17651 6.30889 3 6.48324 3 6.69846C3 6.91368 3.17651 7.08803 3.39439 7.08803C3.94507 7.08803 4.37669 7.25285 4.71455 7.59157C5.40818 8.28671 5.49 9.50174 5.49828 9.88859C5.4969 9.96259 5.49828 10.0094 5.4992 10.0198C5.50609 10.2287 5.67755 10.3944 5.88807 10.3967H5.89313C5.94599 10.3967 5.99885 10.3867 6.04895 10.3653C6.19834 10.3018 6.29304 10.1547 6.28752 9.99438C6.28752 9.99256 6.28752 9.97894 6.28752 9.95533V9.93354C6.2889 9.63841 6.33716 8.3412 7.05976 7.60337Z" />
<path d="M11.7722 17.5996C11.3595 17.5996 11.0359 17.4771 10.7849 17.2251C10.3344 16.7737 10.2002 15.9674 10.1878 15.4883C10.1887 15.4357 10.1887 15.3939 10.1887 15.3653C10.1869 15.2654 10.1455 15.1664 10.0747 15.0951C9.9607 14.9812 9.78786 14.9471 9.63801 15.0107C9.48862 15.0742 9.39393 15.2214 9.39945 15.3816C9.39991 15.3939 9.42289 16.5917 8.81108 17.2164C8.55872 17.4743 8.23282 17.6001 7.81499 17.6001C7.5971 17.6001 7.42059 17.7745 7.42059 17.9897C7.42059 18.2049 7.5971 18.3792 7.81499 18.3792C8.22776 18.3792 8.55137 18.5018 8.80234 18.7538C9.25787 19.2106 9.39072 20.0306 9.39991 20.5074C9.39853 20.5732 9.39991 20.6136 9.39991 20.6231C9.4068 20.8306 9.57734 20.9964 9.78649 21H9.79384C9.84624 21 9.89956 20.99 9.94967 20.9682C10.0991 20.9046 10.1937 20.7575 10.1882 20.5973C10.1878 20.585 10.1648 19.3872 10.7766 18.7625C11.029 18.5046 11.3549 18.3788 11.7727 18.3788C11.9906 18.3788 12.1671 18.2044 12.1671 17.9892C12.1671 17.774 11.9901 17.5996 11.7722 17.5996Z" />
</svg>
