<svg width="24" height="24" viewBox="0 0 24 24" fill="242424" xmlns="http://www.w3.org/2000/svg">
<path fill-rule="evenodd" clip-rule="evenodd" d="M12 22C17.5228 22 22 17.5228 22 12C22 6.47715 17.5228 2 12 2C6.47715 2 2 6.47715 2 12C2 17.5228 6.47715 22 12 22ZM13.4731 10.5592C13.0284 10.788 12.5322 10.9074 12.0282 10.907C11.216 10.9063 10.4374 10.5947 9.86348 10.0406C9.28883 9.48727 8.96562 8.73654 8.96491 7.95349C8.96562 7.17044 9.28883 6.41971 9.86348 5.86636C10.2196 5.52257 10.6582 5.2688 11.1404 5.12755C11.6226 4.9863 12.1335 4.96193 12.6278 5.05661C13.1221 5.15128 13.5845 5.36208 13.9741 5.6703C14.3637 5.97853 14.6684 6.37466 14.8612 6.82359C15.054 7.27252 15.1289 7.76038 15.0794 8.24392C15.0298 8.72746 14.8573 9.19174 14.5771 9.59561C14.2969 9.99948 13.9177 10.3305 13.4731 10.5592ZM12.0282 12.7972C13.6722 12.7972 16.7355 13.5159 17.7566 14.845C17.9295 15.0784 18.0146 15.3618 17.9979 15.6482C17.9812 15.9346 17.8637 16.2069 17.6647 16.4202C16.972 17.2272 16.103 17.8769 15.1199 18.3228C14.1368 18.7688 13.0637 19 11.9772 19C10.8907 19 9.81754 18.7688 8.8344 18.3228C7.85127 17.8769 6.98234 17.2272 6.28963 16.4202C6.10226 16.1974 6 15.9194 6 15.6326C6 15.3458 6.10226 15.0677 6.28963 14.845C7.36178 13.4962 10.3842 12.7972 12.0282 12.7972Z" />
</svg>
