<svg width="20" height="20" viewBox="0 0 20 20" fill="none" xmlns="http://www.w3.org/2000/svg">
<path d="M18.3341 6.01661C18.3316 5.18735 17.6397 4.62486 16.8265 4.77397C14.6516 5.17269 12.481 5.59572 10.3004 5.95796C8.98449 6.17645 8.30256 7.14124 8.32759 8.31914C8.36585 10.1214 8.3376 11.9255 8.3376 13.7284V13.9598C8.26894 13.9076 8.23676 13.8829 8.20422 13.8586C7.59989 13.4063 6.92618 13.2439 6.18382 13.3866C4.81675 13.6494 3.92634 15.0158 4.23208 16.3764C4.54104 17.7517 5.92743 18.6064 7.28235 18.257C8.4177 17.9645 9.17294 16.9861 9.17544 15.7921C9.17866 14.1436 9.17616 12.4951 9.17651 10.8466C9.17651 10.3349 9.17759 10.3406 9.68537 10.2491C11.8206 9.86466 13.9547 9.47667 16.0895 9.09011C16.5558 9.00572 17.0221 8.92061 17.4984 8.83408V12.2666C17.4762 12.2645 17.4698 12.2655 17.4659 12.263C17.4226 12.2316 17.3797 12.1994 17.3368 12.1676C16.9445 11.8772 16.5061 11.702 16.0183 11.6773C14.3956 11.5954 13.1873 12.8849 13.3625 14.503C13.5005 15.7757 14.7625 16.7969 16.0298 16.6614C17.4026 16.5148 18.3323 15.4846 18.3352 14.1036C18.3373 13.068 18.3355 12.0324 18.3355 10.9972C18.3355 9.33685 18.3391 7.67655 18.3337 6.01589L18.3341 6.01661Z" fill="#FFB133"/>
<path d="M5.83462 10.6383C5.83856 9.02596 5.8357 7.41321 5.8357 5.80083V5.60165C5.88254 5.58985 5.8997 5.58484 5.91687 5.58163C7.08584 5.36779 8.25588 5.15895 9.42378 4.93903C9.9498 4.83998 10.3478 4.42303 10.4 3.89093C10.4354 3.53155 10.4433 3.16394 10.4097 2.80456C10.3389 2.04253 9.69591 1.55835 8.94067 1.68745C7.98018 1.85194 7.02183 2.0293 6.0642 2.21168C5.39192 2.33969 5.00537 2.8228 5.00501 3.50974C5.00465 4.56285 5.00501 5.61631 5.00501 6.66942V8.95873C4.97676 8.96087 4.96996 8.96374 4.96567 8.96159C4.93993 8.94693 4.91418 8.93191 4.88915 8.91582C4.42714 8.62259 3.9283 8.52354 3.38726 8.61365C2.28266 8.79781 1.4956 9.91028 1.7005 11.0059C1.92077 12.1828 3.02645 12.9477 4.16038 12.707C5.16056 12.495 5.83212 11.6711 5.83462 10.6383V10.6383Z" fill="#F45F37"/>
</svg>
