<svg width="24" height="24" viewBox="0 0 24 24" fill="242424" xmlns="http://www.w3.org/2000/svg">
<path d="M12.0329 10.7508C12.6209 10.7513 13.1999 10.6148 13.7186 10.3534C14.2373 10.0919 14.6797 9.71369 15.0066 9.25212C15.3335 8.79056 15.5348 8.25995 15.5926 7.70733C15.6504 7.15472 15.563 6.59717 15.338 6.08411C15.1131 5.57104 14.7576 5.11832 14.3031 4.76606C13.8486 4.4138 13.3091 4.1729 12.7324 4.0647C12.1557 3.9565 11.5597 3.98434 10.9971 4.14577C10.4346 4.3072 9.92288 4.59722 9.50739 4.99012C8.83697 5.62253 8.4599 6.4805 8.45906 7.37542C8.4599 8.27034 8.83697 9.12831 9.50739 9.76072C10.177 10.3939 11.0854 10.7501 12.0329 10.7508Z" />
<path d="M18.716 15.2514C17.5247 13.7325 13.9509 12.9111 12.0329 12.9111C10.1149 12.9111 6.58875 13.71 5.3379 15.2514C5.1193 15.506 5 15.8238 5 16.1515C5 16.4793 5.1193 16.7971 5.3379 17.0516C6.14606 17.974 7.15981 18.7164 8.3068 19.2261C9.4538 19.7357 10.7058 20 11.9733 20C13.2409 20 14.4929 19.7357 15.6399 19.2261C16.7869 18.7164 17.8006 17.974 18.6088 17.0516C18.8409 16.8079 18.9781 16.4967 18.9976 16.1693C19.0171 15.842 18.9178 15.5182 18.716 15.2514Z" />
</svg>
