<svg width="24" height="24" viewBox="0 0 24 24" fill="#242424" xmlns="http://www.w3.org/2000/svg">
<path fill-rule="evenodd" clip-rule="evenodd" d="M7.2 12C7.2 12.8837 6.48366 13.6 5.6 13.6C4.71634 13.6 4 12.8837 4 12C4 11.1164 4.71634 10.4 5.6 10.4C6.48366 10.4 7.2 11.1164 7.2 12ZM13.5999 12C13.5999 12.8837 12.8836 13.6 11.9999 13.6C11.1162 13.6 10.3999 12.8837 10.3999 12C10.3999 11.1164 11.1162 10.4 11.9999 10.4C12.8836 10.4 13.5999 11.1164 13.5999 12ZM18.4 13.6C19.2837 13.6 20 12.8837 20 12C20 11.1164 19.2837 10.4 18.4 10.4C17.5164 10.4 16.8 11.1164 16.8 12C16.8 12.8837 17.5164 13.6 18.4 13.6Z" />
</svg>
