<svg width="24" height="24" viewBox="0 0 24 24" fill="#242424" xmlns="http://www.w3.org/2000/svg">
<path fill-rule="evenodd" clip-rule="evenodd" d="M12.0001 7.2C11.1164 7.2 10.4001 6.48366 10.4001 5.6C10.4001 4.71634 11.1164 4 12.0001 4C12.8838 4 13.6001 4.71634 13.6001 5.6C13.6001 6.48366 12.8838 7.2 12.0001 7.2ZM12.0001 13.5999C11.1164 13.5999 10.4001 12.8836 10.4001 11.9999C10.4001 11.1162 11.1164 10.3999 12.0001 10.3999C12.8838 10.3999 13.6001 11.1162 13.6001 11.9999C13.6001 12.8836 12.8838 13.5999 12.0001 13.5999ZM10.4001 18.4C10.4001 19.2837 11.1164 20 12.0001 20C12.8838 20 13.6001 19.2837 13.6001 18.4C13.6001 17.5164 12.8838 16.8 12.0001 16.8C11.1164 16.8 10.4001 17.5164 10.4001 18.4Z"/>
</svg>
