<svg width="24" height="24" viewBox="0 0 24 24" fill="242424" xmlns="http://www.w3.org/2000/svg">
<path d="M5.025 5C4.48794 5 3.97287 5.20742 3.59311 5.57663C3.21335 5.94585 3 6.44661 3 6.96875V9.15625C3 9.67839 3.21335 10.1792 3.59311 10.5484C3.97287 10.9176 4.48794 11.125 5.025 11.125H7.275C7.81206 11.125 8.32713 10.9176 8.70689 10.5484C9.08665 10.1792 9.3 9.67839 9.3 9.15625V6.96875C9.3 6.44661 9.08665 5.94585 8.70689 5.57663C8.32713 5.20742 7.81206 5 7.275 5H5.025ZM11.325 5.875C11.146 5.875 10.9743 5.94414 10.8477 6.06721C10.7211 6.19028 10.65 6.3572 10.65 6.53125C10.65 6.7053 10.7211 6.87222 10.8477 6.99529C10.9743 7.11836 11.146 7.1875 11.325 7.1875H20.325C20.504 7.1875 20.6757 7.11836 20.8023 6.99529C20.9289 6.87222 21 6.7053 21 6.53125C21 6.3572 20.9289 6.19028 20.8023 6.06721C20.6757 5.94414 20.504 5.875 20.325 5.875H11.325ZM11.325 8.5C11.146 8.5 10.9743 8.56914 10.8477 8.69221C10.7211 8.81528 10.65 8.9822 10.65 9.15625C10.65 9.3303 10.7211 9.49722 10.8477 9.62029C10.9743 9.74336 11.146 9.8125 11.325 9.8125H17.625C17.804 9.8125 17.9757 9.74336 18.1023 9.62029C18.2289 9.49722 18.3 9.3303 18.3 9.15625C18.3 8.9822 18.2289 8.81528 18.1023 8.69221C17.9757 8.56914 17.804 8.5 17.625 8.5H11.325ZM5.025 12.875C4.48794 12.875 3.97287 13.0824 3.59311 13.4516C3.21335 13.8208 3 14.3216 3 14.8438V17.0312C3 17.2898 3.05238 17.5458 3.15414 17.7847C3.25591 18.0235 3.40507 18.2406 3.59311 18.4234C3.78115 18.6062 4.00438 18.7512 4.25007 18.8501C4.49575 18.9491 4.75907 19 5.025 19H7.275C7.54093 19 7.80425 18.9491 8.04993 18.8501C8.29562 18.7512 8.51885 18.6062 8.70689 18.4234C8.89493 18.2406 9.04409 18.0235 9.14586 17.7847C9.24762 17.5458 9.3 17.2898 9.3 17.0312V14.8438C9.3 14.3216 9.08665 13.8208 8.70689 13.4516C8.32713 13.0824 7.81206 12.875 7.275 12.875H5.025ZM11.325 13.75C11.146 13.75 10.9743 13.8191 10.8477 13.9422C10.7211 14.0653 10.65 14.2322 10.65 14.4062C10.65 14.5803 10.7211 14.7472 10.8477 14.8703C10.9743 14.9934 11.146 15.0625 11.325 15.0625H20.325C20.504 15.0625 20.6757 14.9934 20.8023 14.8703C20.9289 14.7472 21 14.5803 21 14.4062C21 14.2322 20.9289 14.0653 20.8023 13.9422C20.6757 13.8191 20.504 13.75 20.325 13.75H11.325ZM11.325 16.375C11.146 16.375 10.9743 16.4441 10.8477 16.5672C10.7211 16.6903 10.65 16.8572 10.65 17.0312C10.65 17.2053 10.7211 17.3722 10.8477 17.4953C10.9743 17.6184 11.146 17.6875 11.325 17.6875H17.625C17.804 17.6875 17.9757 17.6184 18.1023 17.4953C18.2289 17.3722 18.3 17.2053 18.3 17.0312C18.3 16.8572 18.2289 16.6903 18.1023 16.5672C17.9757 16.4441 17.804 16.375 17.625 16.375H11.325Z" />
</svg>
