<svg width="24" height="24" viewBox="0 0 24 24" fill="242424" xmlns="http://www.w3.org/2000/svg">
<path d="M18.6845 7C18.3414 7 17.9839 7.12931 17.7265 7.4023L16.4826 8.6523C16.7256 8.98276 16.8686 9.38506 16.8686 9.81609C16.8686 10.9224 15.9678 11.8276 14.8668 11.8276H12.2931C12.2073 11.8276 12.1358 11.8132 12.0786 11.7557C12.0214 11.6983 11.9786 11.6264 11.9786 11.5402C11.9786 11.454 12.0071 11.3822 12.0786 11.3247C12.1358 11.2672 12.2216 11.2385 12.2931 11.2529H14.8668C15.6533 11.2529 16.2967 10.6063 16.2967 9.81609C16.2967 9.5431 16.2109 9.28448 16.0822 9.0546C16.0679 9.02586 16.0393 8.99713 16.025 8.96839C15.7676 8.6092 15.353 8.37931 14.8668 8.37931H10.2913C9.06166 8.45115 8.37534 9.04023 7.8034 9.61494L6.97408 10.4483L10.5201 14.0115C10.7918 13.7385 10.9777 13.5517 11.4209 13.5517H15.4245C16.4111 13.5517 17.2261 13.0632 17.8123 12.2155C18.4844 11.2385 19.1421 10.0316 19.6568 9.28448C19.857 8.99713 19.9857 8.68103 20 8.35057C20 8.02012 19.8999 7.67529 19.6282 7.4023C19.3852 7.12931 19.0277 7 18.6845 7ZM6.00179 10.3908C5.93029 10.3908 5.8588 10.4195 5.80161 10.477L4.08579 12.2011C4.08579 12.2011 4 12.3305 4 12.4023C4 12.4741 4.0286 12.546 4.08579 12.6034L8.37534 16.9138C8.48972 17.0287 8.6613 17.0287 8.77569 16.9138L10.4915 15.1897C10.6059 15.0747 10.6059 14.9023 10.4915 14.7874L6.20197 10.477C6.20197 10.477 6.07328 10.3908 6.00179 10.3908Z" />
</svg>
