<svg width="24" height="24" viewBox="0 0 24 24" fill="242424" xmlns="http://www.w3.org/2000/svg">
<path fill-rule="evenodd" clip-rule="evenodd" d="M11.9999 2.0415C9.83549 2.0409 7.74339 2.82031 6.10698 4.23688C4.47057 5.65345 3.39946 7.61229 3.08996 9.75442C4.22422 8.58077 5.56709 7.62855 7.04992 6.94645C8.19255 6.42107 9.40504 6.06339 10.6499 5.88446C11.2959 5.81247 11.9479 5.81247 12.5939 5.88446C13.2527 5.96506 13.8976 6.13461 14.5108 6.38846C15.1577 6.64466 15.7433 7.03409 16.2298 7.53145C16.713 8.0452 17.0758 8.66006 17.2918 9.33143C17.5006 10.0095 17.568 10.7232 17.4898 11.4284C17.4382 12.1425 17.239 12.8382 16.9048 13.4714C16.7325 13.7855 16.5369 14.0864 16.3198 14.3714C16.1011 14.6484 15.8603 14.9072 15.5998 15.1454C15.072 15.5896 14.4917 15.9675 13.8718 16.2704C12.6642 16.83 11.4 17.2584 10.1009 17.5483V19.8703C10.7255 20.0008 11.3618 20.0672 11.9999 20.0683C14.3868 20.0683 16.6759 19.1201 18.3638 17.4323C20.0516 15.7445 20.9998 13.4553 20.9998 11.0684C21.0033 9.88426 20.7732 8.71104 20.3225 7.61601C19.8718 6.52097 19.2094 5.52564 18.3733 4.68706C17.5372 3.84848 16.5439 3.18313 15.4502 2.72916C14.3565 2.27518 13.184 2.0415 11.9999 2.0415ZM7.81495 9.97043C7.81495 9.82033 7.84451 9.6717 7.90195 9.53302C7.95939 9.39435 8.04358 9.26835 8.14972 9.16221C8.25586 9.05608 8.38186 8.97188 8.52053 8.91444C8.65921 8.857 8.80784 8.82744 8.95794 8.82744C9.10803 8.82744 9.25666 8.857 9.39534 8.91444C9.53401 8.97188 9.66001 9.05608 9.76615 9.16221C9.87229 9.26835 9.95648 9.39435 10.0139 9.53302C10.0714 9.6717 10.1009 9.82033 10.1009 9.97043V15.1904C11.0991 15.0294 12.0748 14.7515 13.0079 14.3624C13.999 14.0182 14.8685 13.3927 15.5099 12.5624C15.7834 12.1584 15.959 11.6961 16.0229 11.2124C16.1465 10.4421 16.0328 9.65237 15.6968 8.94823C15.3608 8.2441 14.8185 7.65891 14.1419 7.27045C12.0899 6.19047 9.49793 6.55946 7.24795 7.37845C5.69535 7.9752 4.27164 8.86426 3.054 9.99743C3.01782 10.3352 2.9998 10.6747 3 11.0144C2.99887 12.6563 3.44691 14.2672 4.29562 15.6728C5.14433 17.0783 6.36137 18.2248 7.81495 18.9883V9.97043ZM7.81481 20.8152V19.0152C8.53622 19.3988 9.30475 19.6862 10.1008 19.8702V20.8152C10.1008 21.1183 9.98037 21.4091 9.76601 21.6234C9.55166 21.8378 9.26094 21.9582 8.9578 21.9582C8.65466 21.9582 8.36394 21.8378 8.14958 21.6234C7.93523 21.4091 7.81481 21.1183 7.81481 20.8152Z" />
</svg>
