<svg width="24" height="24" viewBox="0 0 24 24" fill="242424" xmlns="http://www.w3.org/2000/svg">
<path d="M8.63869 11.2727C9.55898 11.2727 10.4416 10.8896 11.0923 10.2077C11.7431 9.52571 12.1087 8.60079 12.1087 7.63636C12.1087 6.67194 11.7431 5.74702 11.0923 5.06507C10.4416 4.38312 9.55898 4 8.63869 4C7.7184 4 6.8358 4.38312 6.18506 5.06507C5.53431 5.74702 5.16873 6.67194 5.16873 7.63636C5.16873 8.60079 5.53431 9.52571 6.18506 10.2077C6.8358 10.8896 7.7184 11.2727 8.63869 11.2727ZM16.4461 11.2727C17.1363 11.2727 17.7983 10.9854 18.2863 10.4739C18.7744 9.96247 19.0486 9.26877 19.0486 8.54545C19.0486 7.82214 18.7744 7.12844 18.2863 6.61698C17.7983 6.10552 17.1363 5.81818 16.4461 5.81818C15.7559 5.81818 15.0939 6.10552 14.6059 6.61698C14.1178 7.12844 13.8436 7.82214 13.8436 8.54545C13.8436 9.26877 14.1178 9.96247 14.6059 10.4739C15.0939 10.9854 15.7559 11.2727 16.4461 11.2727ZM4.62655 12.6364C4.19516 12.6364 3.78144 12.8159 3.4764 13.1356C3.17137 13.4553 3 13.8888 3 14.3409V14.9091C3 14.9091 3 19 8.63869 19C14.2774 19 14.2774 14.9091 14.2774 14.9091V14.3409C14.2774 13.8888 14.106 13.4553 13.801 13.1356C13.4959 12.8159 13.0822 12.6364 12.6508 12.6364H4.62655ZM14.136 17.6768C14.7328 17.9305 15.4888 18.0909 16.4457 18.0909C21 18.0909 21 14.4545 21 14.4545V14.3409C21 13.8889 20.8287 13.4554 20.5237 13.1358C20.2188 12.8161 19.8052 12.6365 19.3739 12.6364H14.5407C14.9307 13.1101 15.1449 13.7152 15.144 14.3409V14.9295L15.1436 14.9555C15.141 15.0437 15.1352 15.1318 15.1262 15.2195C15.1047 15.4224 15.0698 15.6235 15.0217 15.8214C14.8574 16.4995 14.5553 17.1324 14.136 17.6768Z" />
</svg>
