<svg width="24" height="24" viewBox="0 0 24 24" fill="242424" xmlns="http://www.w3.org/2000/svg">
<path d="M17.377 4H6.64167C4.6312 4 3 5.68188 3 7.75489V15.2451C3 17.3181 4.63116 19 6.64167 19H17.358C19.3685 19 20.9997 17.3181 20.9997 15.2451L20.9998 7.75489C21.0188 5.68191 19.3876 4 17.3771 4H17.377ZM15.9165 6.8162C16.6183 6.8162 17.1684 7.40294 17.1684 8.10698C17.1684 8.83054 16.5993 9.39776 15.9165 9.39776C15.2148 9.39776 14.6647 8.81102 14.6647 8.10698C14.6457 7.38328 15.2148 6.8162 15.9165 6.8162ZM17.1304 15.7341H6.85027C6.58474 15.7341 6.41406 15.4211 6.56582 15.206L10.1696 9.29987C10.3024 9.08474 10.5868 9.08474 10.7386 9.28036L12.9388 12.3312C13.0526 12.5072 13.2992 12.5268 13.451 12.3703L14.3613 11.4706C14.5131 11.3142 14.7597 11.3533 14.8735 11.5098L17.415 15.1865C17.5666 15.4211 17.396 15.734 17.1304 15.734L17.1304 15.7341Z" />
</svg>
