<svg width="24" height="24" viewBox="0 0 24 24" fill="242424" xmlns="http://www.w3.org/2000/svg">
<path d="M3.1422 16.956C3.23177 17.1572 3.36134 17.34 3.52379 17.4943C3.69072 17.6549 3.8895 17.7823 4.10857 17.8691C4.32765 17.9559 4.56265 18.0004 4.79994 18L15.5995 18C15.8668 18 16.1197 17.8869 16.2916 17.6923L20.7914 12.5494C21.0695 12.2314 21.0695 11.7694 20.7914 11.4514L16.2916 6.30859C16.1197 6.11316 15.8668 6.00002 15.5995 6.00002L4.79994 6.00002C4.56427 5.99899 4.33075 6.04255 4.11291 6.12819C3.89507 6.21383 3.69727 6.33983 3.53098 6.49887C3.36235 6.65786 3.22857 6.84718 3.13742 7.05583C3.04627 7.26449 2.99956 7.48831 3 7.7143L3.00001 16.2857C3.00001 16.5137 3.0468 16.7357 3.1422 16.956Z" />
</svg>
