<svg width="24" height="24" viewBox="0 0 24 24" fill="#242424" xmlns="http://www.w3.org/2000/svg">
<path d="M12 2C6.47778 2 2 5.97557 2 10.8728C2 13.7712 3.56667 16.3365 5.97778 17.9578V21.8445C5.97778 21.8445 6.01111 21.9445 6.06667 21.9778C6.08889 21.9889 6.11111 22 6.13333 22C6.16667 22 6.2 22 6.22222 21.9667L9.8 19.5236C10.5111 19.668 11.2444 19.7457 12 19.7457C17.5222 19.7457 22 15.7701 22 10.8728C22 5.97557 17.5222 2 12 2ZM9.01111 13.2382C10 13.2382 10.8444 12.6274 11.1778 11.7723H12.6889C12.3111 13.4381 10.8111 14.6707 9.02222 14.6707C6.94444 14.6707 5.25556 13.005 5.25556 10.9395C5.25556 8.87396 6.94444 7.20822 9.02222 7.20822C9.92222 7.20822 10.7444 7.51916 11.3889 8.04109C12.0333 8.56302 12.5 9.28484 12.7 10.1177H11.1889C10.8556 9.26263 10.0111 8.65186 9.02222 8.65186C7.74444 8.65186 6.7 9.68462 6.7 10.9506C6.7 12.2165 7.73333 13.2493 9.02222 13.2493L9.01111 13.2382ZM18.7444 14.6707H17.3333V11.3726C17.3333 10.9839 17.2556 10.7063 17.1 10.5619C16.9444 10.4175 16.7222 10.3398 16.4333 10.3398C16.2667 10.3398 16.1111 10.3731 15.9556 10.4398C15.8111 10.5064 15.6778 10.6063 15.5667 10.7285C15.4556 10.8506 15.3667 11.0172 15.3 11.1949C15.2333 11.3837 15.2 11.5947 15.2 11.8279V14.6707H13.7889V7.06385H15.2111V9.92893C15.3667 9.78456 15.5556 9.6513 15.7667 9.54026C16.0556 9.39589 16.3889 9.31816 16.7444 9.31816C17.2333 9.31816 17.6444 9.4181 17.9556 9.61799C17.9556 9.61799 17.9667 9.6291 17.9778 9.6402C18.0667 9.69572 18.1556 9.76235 18.2222 9.84009C18.5556 10.1954 18.7333 10.7396 18.7333 11.4392V14.6818L18.7444 14.6707Z"/>
</svg>
