<svg width="24" height="24" viewBox="0 0 24 24" fill="#242424" xmlns="http://www.w3.org/2000/svg">
<path d="M10.309 17C10.1514 17.0003 9.99527 16.9692 9.84961 16.9084C9.70394 16.8477 9.57159 16.7585 9.46015 16.6459L4.36713 11.5007C4.25239 11.3889 4.16083 11.2552 4.0978 11.1073C4.03478 10.9594 4.00155 10.8003 4.00005 10.6393C3.99856 10.4783 4.02882 10.3186 4.08909 10.1695C4.14935 10.0205 4.2384 9.885 4.35105 9.77106C4.4637 9.65713 4.59769 9.56699 4.74519 9.50591C4.8927 9.44484 5.05077 9.41404 5.21019 9.41533C5.36961 9.41661 5.52717 9.44995 5.6737 9.51339C5.82022 9.57684 5.95277 9.66912 6.0636 9.78486L10.3078 14.0715L17.9497 6.35555C18.1748 6.12801 18.4802 6.00011 18.7987 6C19.1172 5.99989 19.4227 6.12756 19.648 6.35494C19.8733 6.58232 19.9999 6.89077 20 7.21245C20.0001 7.53412 19.8737 7.84266 19.6486 8.0702L11.1578 16.6459C11.0464 16.7585 10.914 16.8477 10.7684 16.9084C10.6227 16.9692 10.4666 17.0003 10.309 17Z" />
</svg>
