<svg width="24" height="24" viewBox="0 0 24 24" fill="#242424" xmlns="http://www.w3.org/2000/svg">
<path d="M7.64062 6C10.7562 6 13.2812 8.68657 13.2812 12.0004C13.2812 15.3143 10.7555 18 7.64062 18C4.52578 18 2 15.3134 2 12.0004C2 8.68739 4.52578 6 7.64062 6ZM16.6484 6.35161C18.2062 6.35161 19.4688 8.88053 19.4688 12.0004C19.4688 15.1195 18.2062 17.6492 16.6484 17.6492C15.0906 17.6492 13.8281 15.1195 13.8281 12.0004C13.8281 8.88135 15.0906 6.35161 16.6484 6.35161ZM21.0078 6.94009C21.5555 6.94009 22 9.20572 22 12.0004C22 14.7951 21.5562 17.0607 21.0078 17.0607C20.4594 17.0607 20.0164 14.7951 20.0164 12.0004C20.0164 9.20572 20.4602 6.94009 21.0078 6.94009Z"/>
</svg>
