<svg width="24" height="24" viewBox="0 0 24 24" fill="242424" xmlns="http://www.w3.org/2000/svg">
<path d="M10.1538 17.7273C10.1538 18.072 10.0321 18.3703 9.78846 18.6222C9.54487 18.8741 9.25641 19 8.92308 19C8.58974 19 8.30128 18.8741 8.05769 18.6222C7.8141 18.3703 7.69231 18.072 7.69231 17.7273C7.69231 17.3826 7.8141 17.0843 8.05769 16.8324C8.30128 16.5805 8.58974 16.4545 8.92308 16.4545C9.25641 16.4545 9.54487 16.5805 9.78846 16.8324C10.0321 17.0843 10.1538 17.3826 10.1538 17.7273ZM18.7692 17.7273C18.7692 18.072 18.6474 18.3703 18.4038 18.6222C18.1603 18.8741 17.8718 19 17.5385 19C17.2051 19 16.9167 18.8741 16.6731 18.6222C16.4295 18.3703 16.3077 18.072 16.3077 17.7273C16.3077 17.3826 16.4295 17.0843 16.6731 16.8324C16.9167 16.5805 17.2051 16.4545 17.5385 16.4545C17.8718 16.4545 18.1603 16.5805 18.4038 16.8324C18.6474 17.0843 18.7692 17.3826 18.7692 17.7273ZM20 6.90909V12C20 12.1591 19.9471 12.3 19.8413 12.4226C19.7356 12.5452 19.6058 12.6165 19.4519 12.6364L9.41346 13.8494C9.4968 14.2472 9.53846 14.4792 9.53846 14.5455C9.53846 14.6515 9.46154 14.8636 9.30769 15.1818H18.1538C18.3205 15.1818 18.4647 15.2448 18.5865 15.3707C18.7083 15.4967 18.7692 15.6458 18.7692 15.8182C18.7692 15.9905 18.7083 16.1397 18.5865 16.2656C18.4647 16.3916 18.3205 16.4545 18.1538 16.4545H8.30769C8.14103 16.4545 7.99679 16.3916 7.875 16.2656C7.75321 16.1397 7.69231 15.9905 7.69231 15.8182C7.69231 15.7453 7.71795 15.6409 7.76923 15.505C7.82051 15.3691 7.87179 15.2498 7.92308 15.147C7.97436 15.0443 8.04327 14.9117 8.12981 14.7493C8.21635 14.5869 8.26603 14.4891 8.27885 14.456L6.57692 6.27273H4.61538C4.44872 6.27273 4.30449 6.20975 4.18269 6.08381C4.0609 5.95786 4 5.80871 4 5.63636C4 5.46402 4.0609 5.31487 4.18269 5.18892C4.30449 5.06297 4.44872 5 4.61538 5H7.07692C7.17949 5 7.27083 5.02154 7.35096 5.06463C7.43109 5.10772 7.49359 5.15909 7.53846 5.21875C7.58333 5.27841 7.625 5.35961 7.66346 5.46236C7.70192 5.5651 7.72756 5.65128 7.74038 5.72088C7.75321 5.79048 7.77083 5.88826 7.79327 6.0142C7.81571 6.14015 7.83013 6.22633 7.83654 6.27273H19.3846C19.5513 6.27273 19.6955 6.3357 19.8173 6.46165C19.9391 6.58759 20 6.73674 20 6.90909Z" />
</svg>
