<svg width="24" height="24" viewBox="0 0 24 24" fill="242424" xmlns="http://www.w3.org/2000/svg">
<path d="M13.5009 20H10.4996C10.3115 20 10.1291 19.9377 9.98257 19.8233C9.83605 19.709 9.73422 19.5494 9.69398 19.3712L9.35838 17.864C8.9107 17.6737 8.4862 17.4357 8.09269 17.1544L6.57799 17.6224C6.3987 17.6779 6.20525 17.6722 6.02976 17.6063C5.85427 17.5403 5.7073 17.4181 5.61326 17.26L4.10927 14.7392C4.01622 14.5809 3.98129 14.3967 4.01019 14.2166C4.0391 14.0365 4.13014 13.8713 4.26841 13.748L5.4434 12.708C5.38997 12.2369 5.38997 11.7615 5.4434 11.2904L4.26841 10.2528C4.12994 10.1294 4.03878 9.96406 4.00987 9.78383C3.98096 9.60359 4.016 9.41918 4.10927 9.2608L5.60996 6.7384C5.704 6.58025 5.85097 6.45807 6.02646 6.39215C6.20195 6.32623 6.3954 6.32053 6.57469 6.376L8.08939 6.844C8.29058 6.7 8.50002 6.5656 8.71605 6.444C8.92467 6.3304 9.13905 6.2272 9.35838 6.1352L9.6948 4.6296C9.73485 4.45136 9.83648 4.29175 9.98285 4.17724C10.1292 4.06273 10.3115 4.00019 10.4996 4H13.5009C13.689 4.00019 13.8713 4.06273 14.0177 4.17724C14.164 4.29175 14.2657 4.45136 14.3057 4.6296L14.6454 6.136C15.0925 6.32741 15.5169 6.56534 15.9111 6.8456L17.4266 6.3776C17.6058 6.32233 17.7991 6.32814 17.9744 6.39405C18.1497 6.45996 18.2965 6.58202 18.3905 6.74L19.8912 9.2624C20.0825 9.588 20.0166 10 19.7321 10.2536L18.5571 11.2936C18.6105 11.7647 18.6105 12.2401 18.5571 12.7112L19.7321 13.7512C20.0166 14.0056 20.0825 14.4168 19.8912 14.7424L18.3905 17.2648C18.2965 17.4229 18.1495 17.5451 17.974 17.6111C17.7986 17.677 17.6051 17.6827 17.4258 17.6272L15.9111 17.1592C15.5179 17.4403 15.0937 17.678 14.6462 17.868L14.3057 19.3712C14.2655 19.5493 14.1638 19.7087 14.0174 19.8231C13.8711 19.9374 13.6889 19.9998 13.5009 20V20ZM11.997 8.8C11.1222 8.8 10.2833 9.13714 9.66476 9.73726C9.04623 10.3374 8.69874 11.1513 8.69874 12C8.69874 12.8487 9.04623 13.6626 9.66476 14.2627C10.2833 14.8629 11.1222 15.2 11.997 15.2C12.8717 15.2 13.7106 14.8629 14.3291 14.2627C14.9477 13.6626 15.2952 12.8487 15.2952 12C15.2952 11.1513 14.9477 10.3374 14.3291 9.73726C13.7106 9.13714 12.8717 8.8 11.997 8.8V8.8Z" />
</svg>
