<svg width="24" height="24" viewBox="0 0 24 24" fill="#242424" xmlns="http://www.w3.org/2000/svg">
<path d="M7.6367 20.993C9.2786 21.0487 10.9149 20.7704 12.4488 20.1745C13.9827 19.5787 15.3831 18.6774 16.5673 17.524C17.7516 16.3706 18.6955 14.9884 19.3434 13.4591C19.9913 11.9298 20.3299 10.2845 20.3394 8.6204C21.0919 7.67717 21.6506 6.5911 21.9828 5.42601C22.0076 5.33396 22.0056 5.23661 21.977 5.14569C21.9485 5.05476 21.8946 4.97414 21.8218 4.91352C21.7491 4.85291 21.6606 4.81489 21.567 4.80404C21.4734 4.79319 21.3787 4.80998 21.2943 4.85237C20.9007 5.04432 20.4575 5.10633 20.0272 5.02965C19.597 4.95297 19.2013 4.74147 18.8959 4.42496C18.5061 3.99256 18.0346 3.64383 17.5093 3.39941C16.984 3.15499 16.4157 3.01986 15.8379 3.00203C15.2601 2.9842 14.6847 3.08403 14.1457 3.2956C13.6067 3.50718 13.1151 3.82619 12.7 4.23374C12.1317 4.79125 11.7155 5.4882 11.4917 6.25687C11.268 7.02553 11.2443 7.83975 11.4231 8.6204C7.70332 8.84536 5.14945 7.05695 3.10636 4.60492C3.04498 4.53451 2.96469 4.48373 2.87529 4.45878C2.78589 4.43383 2.69126 4.43578 2.60294 4.46441C2.51462 4.49304 2.43645 4.5471 2.37796 4.61999C2.31947 4.69288 2.2832 4.78145 2.27357 4.87487C1.88435 7.06193 2.16512 9.31726 3.07817 11.338C3.99122 13.3587 5.49283 15.048 7.38131 16.179C6.11508 17.65 4.33689 18.5687 2.41792 18.7435C2.31512 18.7607 2.22021 18.8101 2.14649 18.8848C2.07277 18.9594 2.02393 19.0555 2.0068 19.1596C1.98967 19.2637 2.0051 19.3707 2.05095 19.4655C2.09679 19.5603 2.17075 19.6382 2.26247 19.6883C3.93194 20.5334 5.77041 20.9798 7.6367 20.993Z" />
</svg>
