<svg width="24" height="24" viewBox="0 0 24 24" fill="#242424" xmlns="http://www.w3.org/2000/svg">
<path d="M14.4476 6.4285L15.0263 7.00935L16.2993 8.307L17.6435 9.67724C18.2044 10.2489 19.1789 9.86274 19.1866 9.06278L19.2175 5.83596C19.2222 5.3416 18.8216 4.93325 18.3273 4.92852L15.1004 4.8976C14.3005 4.88994 13.8867 5.8568 14.4476 6.4285Z" />
<path fill-rule="evenodd" clip-rule="evenodd" d="M17.4147 7.00452C17.7156 7.3348 17.6918 7.84647 17.3615 8.14737L9.82932 15.0096C9.49904 15.3105 8.98737 15.2867 8.68647 14.9565C8.38557 14.6262 8.40938 14.1145 8.73966 13.8136L16.2719 6.95133C16.6022 6.65043 17.1138 6.67425 17.4147 7.00452Z" />
<path fill-rule="evenodd" clip-rule="evenodd" d="M4 4.80899C4 4.3622 4.3622 4 4.80899 4H10.6517C11.0985 4 11.4607 4.3622 11.4607 4.80899C11.4607 5.25578 11.0985 5.61798 10.6517 5.61798H5.61798V18.382H18.382V12.8989C18.382 12.4521 18.7442 12.0899 19.191 12.0899C19.6378 12.0899 20 12.4521 20 12.8989V19.191C20 19.6378 19.6378 20 19.191 20H4.80899C4.3622 20 4 19.6378 4 19.191V4.80899Z" />
</svg>
