<svg width="32" height="32" viewBox="0 0 32 32" fill="none" xmlns="http://www.w3.org/2000/svg">
<rect width="32" height="32" rx="16" fill="#67626D"/>
<path d="M16 13.3333C15.65 13.3333 15.3 13.4667 15.05 13.7167C14.8 13.9667 14.6667 14.3 14.6667 14.6667L14.6667 22.6667C14.6667 23.0167 14.8 23.3667 15.05 23.6167C15.3 23.8667 15.6333 24 16 24C16.3667 24 16.7 23.8667 16.95 23.6167C17.2 23.3667 17.3333 23.0333 17.3333 22.6667L17.3333 14.6667C17.3333 14.3167 17.2 13.9667 16.95 13.7167C16.7 13.4667 16.3667 13.3333 16 13.3333Z" fill="white"/>
<path d="M16 12C16.5333 12 17.0333 11.7833 17.4167 11.4167C17.8 11.05 18 10.5333 18 10C18 9.46667 17.7833 8.96667 17.4167 8.58333C17.05 8.2 16.5333 8 16 8C15.4667 8 14.9667 8.21667 14.5833 8.58333C14.2 8.96667 14 9.46667 14 10C14 10.5333 14.2167 11.0333 14.5833 11.4167C14.9667 11.8 15.4667 12 16 12Z" fill="white"/>
</svg>
