<svg width="20" height="20" viewBox="0 0 20 20" fill="none" xmlns="http://www.w3.org/2000/svg">
<g clip-path="url(#clip0_5382_6212)">
<path d="M13.3365 7.97187L12.0448 6.68085C11.9781 6.61422 11.8865 6.57257 11.7865 6.57257C11.6865 6.57257 11.5948 6.61422 11.5281 6.68085L1.77813 16.4176C1.63646 16.5592 1.63646 16.7925 1.77813 16.9341L3.06979 18.2251C3.13646 18.2917 3.22813 18.3334 3.32813 18.3334C3.42813 18.3334 3.51979 18.2917 3.58646 18.2251L13.3365 8.48828C13.4781 8.34668 13.4781 8.11347 13.3365 7.97187V7.97187Z" fill="#FFB133"/>
<path d="M11.5195 10.1458C11.4279 10.1458 11.3362 10.1125 11.2612 10.0375L9.96953 8.74651C9.82786 8.60491 9.82786 8.37169 9.96953 8.2301C10.1112 8.0885 10.3445 8.0885 10.4862 8.2301L11.7779 9.52112C11.9195 9.66272 11.9195 9.89593 11.7779 10.0375C11.7029 10.1125 11.6112 10.1458 11.5195 10.1458V10.1458Z" fill="#F45F36"/>
<path d="M8.24349 6.19773L6.75182 5.38147L5.93516 3.89055C5.86849 3.77394 5.75182 3.69897 5.61016 3.69897C5.46849 3.69897 5.35182 3.77394 5.28516 3.89055L4.46849 5.38147L2.97682 6.19773C2.86016 6.26436 2.78516 6.38097 2.78516 6.52256C2.78516 6.66416 2.86016 6.78077 2.97682 6.8474L4.46849 7.66366L5.28516 9.15458C5.35182 9.27119 5.46849 9.34615 5.61016 9.34615C5.75182 9.34615 5.86849 9.27119 5.93516 9.15458L6.75182 7.66366L8.24349 6.8474C8.36016 6.78077 8.43516 6.66416 8.43516 6.52256C8.43516 6.38097 8.36016 6.26436 8.24349 6.19773V6.19773Z" fill="#F45F36"/>
<path d="M18.2251 6.13113L16.7501 4.65686L17.7001 2.79113C17.7751 2.64953 17.7417 2.47462 17.6334 2.36634C17.5251 2.25806 17.3501 2.22474 17.2084 2.29971L15.3417 3.24923L13.8667 1.77497C13.7584 1.66669 13.5834 1.63337 13.4417 1.70834C13.3001 1.77497 13.2167 1.93322 13.2417 2.08315L13.5417 4.1821L11.6417 5.16494C11.5001 5.2399 11.4251 5.38983 11.4501 5.54808C11.4751 5.70634 11.6001 5.82295 11.7584 5.84793L13.8251 6.17277L14.1584 8.23008C14.1834 8.38833 14.3084 8.50494 14.4667 8.52993C14.4834 8.52993 14.5084 8.52993 14.5251 8.52993C14.6584 8.52993 14.7834 8.45496 14.8501 8.33003L15.8167 6.44763L17.9251 6.74748C18.0834 6.77247 18.2334 6.68918 18.3001 6.54758C18.3667 6.40599 18.3417 6.2394 18.2334 6.1228L18.2251 6.13113Z" fill="#F45F36"/>
<path d="M15.9263 14.2437L15.143 13.8189L14.718 13.036C14.6513 12.9194 14.5346 12.8444 14.393 12.8444C14.2513 12.8444 14.1346 12.9194 14.068 13.036L13.643 13.8189L12.8596 14.2437C12.743 14.3104 12.668 14.427 12.668 14.5686C12.668 14.7102 12.743 14.8268 12.8596 14.8934L13.643 15.3182L14.068 16.1011C14.1346 16.2177 14.2513 16.2927 14.393 16.2927C14.5346 16.2927 14.6513 16.2177 14.718 16.1011L15.143 15.3182L15.9263 14.8934C16.043 14.8268 16.118 14.7102 16.118 14.5686C16.118 14.427 16.043 14.3104 15.9263 14.2437Z" fill="#F45F36"/>
</g>
<defs>
<clipPath id="clip0_5382_6212">
<rect width="16.6667" height="16.6667" fill="white" transform="translate(1.66797 1.66669)"/>
</clipPath>
</defs>
</svg>
