<svg width="20" height="20" viewBox="0 0 20 20" fill="none" xmlns="http://www.w3.org/2000/svg">
<path d="M1.67973 10.008C1.67973 8.10579 1.71004 6.20257 1.66843 4.30085C1.64223 3.10811 2.73276 2.23903 3.9774 2.57364C5.16809 2.89382 6.37369 3.17871 7.58955 3.391C10.028 3.81659 12.4376 3.61871 14.8072 2.92813C15.232 2.80433 15.6589 2.68799 16.0862 2.57264C17.2641 2.25444 18.3284 3.01712 18.33 4.19992C18.3361 8.06253 18.3356 11.9256 18.33 15.7883C18.3284 16.9875 17.2713 17.7382 16.0734 17.429C14.9531 17.1401 13.8374 16.8169 12.6996 16.6131C10.4574 16.2114 8.22651 16.362 6.02336 16.9238C5.32219 17.1028 4.61743 17.2694 3.91319 17.4369C2.68448 17.7302 1.68179 16.9691 1.68025 15.74C1.67819 13.8294 1.67973 11.9187 1.67973 10.008V10.008ZM6.53446 9.15186C6.54371 9.11357 6.56118 9.07579 6.56118 9.03751C6.56272 7.71401 6.56529 6.39001 6.55553 5.06651C6.55553 5.00386 6.45844 4.90294 6.3891 4.88553C5.47219 4.65584 4.55168 4.43757 3.63221 4.21782C3.56235 4.20091 3.48941 4.19743 3.41133 4.18699V9.15186H6.53446V9.15186ZM3.40722 15.826C3.50584 15.8062 3.58752 15.7922 3.66816 15.7728C4.55477 15.5615 5.4388 15.3413 6.32848 15.1429C6.5206 15.1002 6.56785 15.0276 6.56683 14.8481C6.55912 13.5907 6.56323 12.3333 6.5622 11.0765C6.5622 11.0044 6.55347 10.9328 6.54833 10.8557H3.40722V15.8265V15.826ZM16.5979 15.831V10.8577H13.4495C13.4495 12.222 13.4475 13.5673 13.4572 14.9132C13.4572 14.9659 13.56 15.0479 13.6288 15.0658C14.2868 15.2374 14.949 15.396 15.6085 15.5635C15.9357 15.6466 16.2604 15.7395 16.5984 15.8315L16.5979 15.831ZM16.6045 4.17357C16.473 4.20738 16.36 4.23671 16.247 4.26604C15.3907 4.4858 14.536 4.71351 13.6761 4.91934C13.4983 4.9616 13.4444 5.01729 13.4454 5.1923C13.4531 6.44022 13.4495 7.68766 13.4501 8.93558C13.4501 9.00668 13.4593 9.07828 13.4644 9.1454H16.605V4.17357H16.6045ZM11.7113 9.15484V5.23356H8.29791V9.15484H11.7113ZM8.29431 14.769H11.7164V10.8532H8.29431V14.769Z" fill="#FFB133"/>
<path d="M6.5335 9.15175H3.41036V4.18689C3.48844 4.19733 3.56138 4.2013 3.63124 4.21771C4.55123 4.43697 5.47122 4.65573 6.38813 4.88543C6.45747 4.90283 6.55404 5.00376 6.55456 5.0664C6.5638 6.3899 6.56175 7.7134 6.56021 9.0374C6.56021 9.07568 6.54274 9.11397 6.5335 9.15175Z" fill="#F45F37"/>
<path d="M3.40625 15.8264V10.8556H6.54737C6.5525 10.9327 6.56124 11.0048 6.56124 11.0763C6.56226 12.3337 6.55815 13.5911 6.56586 14.848C6.56689 15.0275 6.51963 15.0995 6.32751 15.1428C5.43783 15.3412 4.5538 15.5614 3.6672 15.7727C3.58655 15.7921 3.50436 15.8065 3.40625 15.8264Z" fill="#F45F37"/>
<path d="M16.5969 15.8309C16.2589 15.7389 15.9342 15.6459 15.607 15.5629C14.9475 15.3959 14.2854 15.2373 13.6273 15.0652C13.5585 15.0473 13.4563 14.9653 13.4558 14.9126C13.446 13.5672 13.4481 12.2214 13.4481 10.8571H16.5964L16.5969 15.8309Z" fill="#F45F37"/>
<path d="M16.6036 4.17346V9.14529H13.463C13.4583 9.07817 13.4486 9.00657 13.4486 8.93548C13.4476 7.68755 13.4517 6.44012 13.444 5.19219C13.4429 5.01718 13.4969 4.9615 13.6746 4.91924C14.5345 4.7134 15.3892 4.48619 16.2455 4.26594C16.3585 4.2371 16.4721 4.20777 16.6036 4.17346Z" fill="#F45F37"/>
<path d="M11.7108 9.15473H8.29745V5.23346H11.7108V9.15473Z" fill="#F45F37"/>
<path d="M8.29386 14.7689V10.8531H11.716V14.7689H8.29386Z" fill="#F45F37"/>
</svg>
