<svg width="24" height="24" viewBox="0 0 24 24" fill="none" xmlns="http://www.w3.org/2000/svg">
<path d="M18 7.99999H5.5V7.49999L16.5 6.61999V7.49999H18V5.99999C18 4.89999 17.109 4.12799 16.021 4.28299L5.98 5.71699C4.891 5.87299 4 6.89999 4 7.99999V18C4 18.5304 4.21071 19.0391 4.58579 19.4142C4.96086 19.7893 5.46957 20 6 20H18C18.5304 20 19.0391 19.7893 19.4142 19.4142C19.7893 19.0391 20 18.5304 20 18V9.99999C20 9.46955 19.7893 8.96085 19.4142 8.58577C19.0391 8.2107 18.5304 7.99999 18 7.99999ZM16.5 15.006C16.303 15.0059 16.1078 14.967 15.9258 14.8916C15.7438 14.8161 15.5784 14.7055 15.4391 14.5661C15.2998 14.4268 15.1894 14.2613 15.114 14.0792C15.0387 13.8972 14.9999 13.702 15 13.505C15.0001 13.3079 15.0389 13.1128 15.1144 12.9308C15.1899 12.7488 15.3005 12.5834 15.4398 12.4441C15.5792 12.3048 15.7447 12.1944 15.9267 12.119C16.1088 12.0437 16.304 12.0049 16.501 12.005C16.899 12.0051 17.2806 12.1633 17.5619 12.4448C17.8432 12.7263 18.0011 13.108 18.001 13.506C18.0009 13.9039 17.8427 14.2855 17.5612 14.5669C17.2797 14.8482 16.898 15.0061 16.5 15.006Z" fill="#3D3D3D"/>
</svg>
