    <svg width="25" height="24" viewBox="0 0 25 24" fill="#A39EAA" xmlns="http://www.w3.org/2000/svg">
        <path
            fillRule="evenodd"
            clipRule="evenodd"
            d="M5.84171 5.34171C6.29732 4.8861 7.03601 4.8861 7.49162 5.34171L19.1583 17.0084C19.6139 17.464 19.6139 18.2027 19.1583 18.6583C18.7027 19.1139 17.964 19.1139 17.5084 18.6583L5.84171 6.99163C5.3861 6.53601 5.3861 5.79732 5.84171 5.34171Z"
        />
        <path
            fillRule="evenodd"
            clipRule="evenodd"
            d="M5.84171 18.6583C5.3861 18.2027 5.3861 17.464 5.84171 17.0084L17.5084 5.34171C17.964 4.8861 18.7027 4.8861 19.1583 5.34171C19.6139 5.79732 19.6139 6.53601 19.1583 6.99162L7.49162 18.6583C7.03601 19.1139 6.29732 19.1139 5.84171 18.6583Z"
        />
    </svg>