<svg width="24" height="24" viewBox="0 0 24 24" fill="242424" xmlns="http://www.w3.org/2000/svg">
<path d="M19.5292 6.22389C19.0182 5.84419 18.3028 5.95917 17.9302 6.4799L12.5206 14.0491L8.9343 10.4312C8.90682 10.4035 8.87546 10.3824 8.84604 10.3585C8.81594 10.3338 8.78789 10.3055 8.75619 10.2842C8.72483 10.2632 8.69085 10.2492 8.65812 10.2319C8.62414 10.2139 8.59175 10.1926 8.55674 10.1782C8.52436 10.1648 8.49072 10.1585 8.45765 10.1485C8.41968 10.1369 8.38273 10.1221 8.34419 10.1148C8.31374 10.1088 8.28307 10.1095 8.25262 10.1061C8.21009 10.1014 8.1679 10.0941 8.12513 10.0945C8.09731 10.0945 8.0696 10.1005 8.04143 10.1025C7.99628 10.1062 7.95123 10.1075 7.90642 10.1164C7.88031 10.1218 7.8551 10.1327 7.82922 10.1398C7.78406 10.1525 7.73868 10.1628 7.69489 10.1812C7.66843 10.1922 7.64426 10.2092 7.61872 10.2222C7.57755 10.2433 7.5357 10.2622 7.49681 10.2886C7.46739 10.3086 7.44151 10.335 7.4138 10.3579C7.38244 10.384 7.34903 10.4066 7.31995 10.4363L7.3163 10.44L4.33461 13.485C3.88794 13.9406 3.88864 14.6797 4.33564 15.1347C4.55926 15.3623 4.85152 15.4757 5.14423 15.4757C5.43718 15.4757 5.73047 15.3614 5.95408 15.1333L8.13448 12.9066L11.8576 16.6626C11.8789 16.684 11.9034 16.6992 11.9256 16.719C11.9472 16.7377 11.9652 16.759 11.9884 16.7763C11.9972 16.7829 12.007 16.7874 12.0163 16.7936C12.0372 16.8083 12.0588 16.8206 12.0803 16.8336C12.1196 16.8574 12.1591 16.879 12.2 16.8973C12.2225 16.9073 12.2448 16.917 12.2677 16.9257C12.3125 16.9423 12.3576 16.9557 12.4037 16.9664C12.4237 16.9711 12.4426 16.9767 12.4629 16.9807C12.5286 16.9923 12.595 17 12.6613 17H12.6617H12.6624C12.7441 17 12.8255 16.989 12.9056 16.9713C12.9301 16.9656 12.9534 16.9563 12.9772 16.9497C13.0322 16.9334 13.0861 16.915 13.1385 16.8904C13.1666 16.8773 13.1931 16.8617 13.2199 16.8464C13.2656 16.8204 13.3092 16.7914 13.3516 16.7584C13.3784 16.7374 13.4039 16.7164 13.4291 16.6931C13.4442 16.6791 13.4615 16.6691 13.4759 16.6541C13.5023 16.6268 13.5219 16.5958 13.5452 16.5665C13.5583 16.5502 13.575 16.5381 13.5874 16.5204L19.7808 7.85392C20.1525 7.3332 20.0401 6.60355 19.5295 6.22384L19.5292 6.22389Z" />
</svg>
