<svg width="24" height="24" viewBox="0 0 24 24" fill="242424" xmlns="http://www.w3.org/2000/svg">
<path fill-rule="evenodd" clip-rule="evenodd" d="M20 7.1C20 7.70741 19.4785 8.2 18.8346 8.2H5.16545C4.52189 8.2 4 7.70741 4 7.1C4 6.49259 4.52155 6 5.16545 6H18.8349C19.4785 6 20 6.49259 20 7.1ZM18.4001 11.5C18.4001 12.1074 17.8497 12.6 17.1702 12.6H6.83002C6.15086 12.6 5.6001 12.1078 5.6001 11.5C5.6001 10.8923 6.1505 10.4 6.83002 10.4H17.1705C17.8497 10.4 18.4001 10.8926 18.4001 11.5ZM14.0203 17C14.6721 17 15.2 16.5075 15.2 15.9C15.2 15.2926 14.6721 14.8 14.0207 14.8H9.97978C9.32799 14.8 8.80005 15.2923 8.80005 15.9C8.80005 16.5078 9.32834 17 9.97978 17H14.0203Z" />
</svg>
