<svg width="24" height="24" viewBox="0 0 24 24" fill="242424" xmlns="http://www.w3.org/2000/svg">
<path d="M12.5159 14.6431C12.1371 14.4538 11.548 14.096 10.9377 13.6752C10.4538 13.7804 9.86458 13.6752 9.27539 13.2333C9.12809 13.1281 8.9808 13.0018 8.8335 12.8545C8.47578 12.4968 8.09702 12.0129 7.67617 11.4868C7.63409 11.4447 7.61305 11.4026 7.57096 11.3605C7.46575 11.2343 7.48679 11.0239 7.61305 10.9186C7.76034 10.7924 7.97077 10.8134 8.09702 10.9607C8.1391 11.0028 8.16015 11.0449 8.20223 11.087C8.74933 11.7603 9.25435 12.4127 9.6752 12.7072C10.4538 13.2754 11.064 13.065 11.3796 12.6862C11.6321 12.3706 11.7163 11.9076 11.3586 11.592C10.8536 11.1291 10.3696 10.5399 9.88562 9.9507C9.33852 9.27735 8.74933 8.58295 8.24432 8.18314C7.94972 7.97272 7.36054 7.69917 6.72927 7.42562C6.58197 7.36249 6.28738 7.23624 6.28738 7.23624L5.06692 6.07891C4.96171 5.9737 4.81441 5.9737 4.73024 6.07891L2.07891 8.7092C1.9737 8.81441 1.9737 8.96171 2.07891 9.04588L3.25728 10.2243C3.84647 11.4657 4.60399 12.9387 5.21422 13.6542C6.45572 15.1061 10.58 16.2003 11.8215 16.4738C13.0841 16.7263 13.6101 15.1902 12.5159 14.6431Z" />
<path d="M21.9429 15.0429L20.7645 13.8646C20.1753 12.6231 19.4178 11.1501 18.8076 10.4347C17.5661 9.0038 13.4207 7.88855 12.1792 7.63604C10.9377 7.38353 10.3906 8.91963 11.5059 9.46673C11.8846 9.65611 12.4738 10.0138 13.0841 10.4347C13.568 10.3295 14.1572 10.4347 14.7464 10.8766C14.8937 10.9818 15.041 11.108 15.1883 11.2553C15.546 11.613 15.9248 12.097 16.3456 12.6231C16.3877 12.6652 16.4087 12.7072 16.4508 12.7493C16.556 12.8756 16.535 13.086 16.4087 13.1912C16.2614 13.3175 16.051 13.2964 15.9248 13.1491C15.8827 13.1071 15.8616 13.065 15.8196 13.0229C15.2725 12.3495 14.7674 11.6972 14.3466 11.4026C13.568 10.8345 12.9578 11.0449 12.6422 11.4237C12.3897 11.7393 12.3055 12.2022 12.6632 12.5179C13.1682 12.9808 13.6522 13.57 14.1362 14.1592C14.6833 14.8325 15.2725 15.5269 15.7775 15.9267C16.0721 16.1372 16.6613 16.4107 17.2925 16.6843C17.4398 16.7474 17.7344 16.8736 17.7344 16.8736L18.9128 18.052C19.018 18.1572 19.1653 18.1572 19.2495 18.052L21.8798 15.4217C22.0271 15.2955 22.0271 15.1482 21.9429 15.0429Z" />
</svg>
