<svg width="24" height="24" viewBox="0 0 24 24"  fill="#242424" xmlns="http://www.w3.org/2000/svg">
<path d="M17.6476 6.35324C16.8086 5.5077 15.7901 4.8612 14.6674 4.46148C13.5446 4.06175 12.3463 3.919 11.161 4.04379C7.48722 4.4137 4.46414 7.39299 4.05372 11.0621C3.50316 15.911 7.25699 20 11.9918 20C13.5035 20 14.9841 19.5716 16.2617 18.7646C17.5393 17.9576 18.5613 16.8052 19.2092 15.4411C19.5295 14.7712 19.049 14.0014 18.3083 14.0014C17.9379 14.0014 17.5875 14.2014 17.4274 14.5313C16.8462 15.78 15.8521 16.7907 14.6124 17.3934C13.3727 17.9961 11.963 18.154 10.6204 17.8405C8.39815 17.3506 6.60633 15.5411 6.13584 13.3216C5.93807 12.4441 5.94036 11.5333 6.14255 10.6568C6.34473 9.78029 6.74163 8.96037 7.30389 8.25771C7.86615 7.55505 8.57938 6.98762 9.39084 6.5974C10.2023 6.20718 11.0912 6.00415 11.9918 6.00332C13.6535 6.00332 15.135 6.69316 16.2161 7.7829L14.7046 9.29254C14.0739 9.92239 14.5144 11.0021 15.4053 11.0021H18.999C19.5495 11.0021 20 10.5522 20 10.0024V6.41322C20 5.52343 18.9189 5.07354 18.2883 5.70339L17.6476 6.35324Z"/>
</svg>
