<svg width="24" height="24" viewBox="0 0 24 24" fill="242424" xmlns="http://www.w3.org/2000/svg">
<path d="M7.86139 21C6.56573 21 5.34503 20.4964 4.42415 19.575C3.50327 18.6536 3 17.4321 3 16.1357C3 14.8393 3.50327 13.6179 4.42415 12.6964L7.17609 9.94286C8.09697 9.02143 9.31767 8.51786 10.6133 8.51786C11.909 8.51786 13.1297 9.02143 14.0506 9.94286C14.4253 10.3179 14.4253 10.9286 14.0506 11.3036C13.6758 11.6786 13.0654 11.6786 12.6907 11.3036C11.577 10.2 9.64961 10.2 8.53599 11.3036L5.78406 14.0571C5.22725 14.6143 4.92742 15.3536 4.92742 16.1357C4.92742 16.9179 5.23795 17.6571 5.78406 18.2143C6.88697 19.3286 8.8251 19.3286 9.93873 18.2143L11.32 16.8321C11.6948 16.4571 12.3052 16.4571 12.68 16.8321C13.0547 17.2071 13.0547 17.8179 12.68 18.1929L11.2986 19.575C10.3778 20.4964 9.15705 21 7.86139 21ZM13.376 15.4821C12.0803 15.4821 10.8596 14.9786 9.93873 14.0571C9.56395 13.6821 9.56395 13.0714 9.93873 12.6964C10.3135 12.3214 10.9239 12.3214 11.2986 12.6964C12.3908 13.7893 14.3504 13.7893 15.4533 12.6964L18.2052 9.94286C18.762 9.38572 19.0619 8.64643 19.0619 7.86429C19.0619 7.08214 18.7513 6.34286 18.2052 5.78571C17.1023 4.68214 15.1642 4.68214 14.0613 5.78571L12.68 7.16786C12.3052 7.54286 11.6948 7.54286 11.32 7.16786C10.9453 6.79286 10.9453 6.18214 11.32 5.80714L12.7014 4.425C13.6222 3.50357 14.843 3 16.1386 3C17.4343 3 18.655 3.50357 19.5758 4.425C20.4967 5.34643 21 6.56786 21 7.86429C21 9.16071 20.4967 10.3821 19.5758 11.3036L16.8239 14.0571C15.903 14.9786 14.6823 15.4821 13.3867 15.4821H13.376Z" />
</svg>
