<svg width="24" height="24" viewBox="0 0 24 24" fill="none" xmlns="http://www.w3.org/2000/svg">
<path d="M11.67 2.60999L4.39 18.36C4.39 18.36 2 16.47 2 11.74L11.67 2.60999Z" fill="#86C2AC"/>
<path d="M12.71 2L5.80005 17.18L18.42 4.41L12.71 2Z" fill="#61B496"/>
<path d="M12.1699 11.62L18.9699 4.83997C18.9699 4.83997 25.7399 11.24 19.0299 19.13L12.1699 11.62Z" fill="#86C2AC"/>
<path d="M18.54 19.47L11.75 12.12L5.01001 18.92L11.77 22L18.53 19.47H18.54Z" fill="#61B496"/>
<path d="M5.80005 17.18L11.56 4.52002L8.34005 14.61L5.80005 17.18Z" fill="#2A9670"/>
<path d="M12.1699 12.58L18.5299 19.47L15.8999 20.46L12.1699 12.58Z" fill="#2A9670"/>
</svg>
