<svg width="24" height="24" viewBox="0 0 24 24" fill="none" xmlns="http://www.w3.org/2000/svg">
<rect width="24" height="24" rx="12" fill="#F2F1F4"/>
<path d="M9.9609 5.35962L12.6614 3.76698L17.0533 5.55251L17.2109 5.53687L18.3112 6.68508L18.4205 17.2249L17.2721 18.3627L6.66793 18.3744L5.55986 17.2484L4.93225 11.7393L9.9609 5.35962Z" fill="white"/>
<path d="M9.74735 15.3025C8.74475 16.3426 7.70308 17.3435 6.66793 18.3744C9.93095 21.2026 14.832 20.7634 17.2721 18.3627L11.9049 12.941C11.1809 13.7373 10.4856 14.5414 9.74735 15.3025Z" fill="white"/>
<path d="M9.74735 15.3025C8.74475 16.3426 7.70308 17.3435 6.66793 18.3744C9.93095 21.2026 14.832 20.7634 17.2721 18.3627L11.9049 12.941C11.1809 13.7373 10.4856 14.5414 9.74735 15.3025Z" fill="url(#paint0_linear_3559_4502)"/>
<path d="M13.3802 12.0808L18.4205 17.2249C21.0911 14.4424 20.8828 9.17831 18.3112 6.68508L13.3802 12.0808Z" fill="white"/>
<path d="M13.3802 12.0808L18.4205 17.2249C21.0911 14.4424 20.8828 9.17831 18.3112 6.68508L13.3802 12.0808Z" fill="url(#paint1_linear_3559_4502)"/>
<path d="M17.2083 5.53687C16.2526 4.5229 14.1979 3.59886 12.9661 3.67054C12.812 3.69435 12.6651 3.7525 12.5365 3.8407C12.4078 3.9289 12.3005 4.0449 12.2226 4.18013C11.7018 5.37266 11.2395 6.59385 10.7708 7.81114C9.92314 10.0137 9.0859 12.2189 8.26558 14.3694L17.2083 5.53687Z" fill="white"/>
<path d="M17.2083 5.53687C16.2526 4.5229 14.1979 3.59886 12.9661 3.67054C12.812 3.69435 12.6651 3.7525 12.5365 3.8407C12.4078 3.9289 12.3005 4.0449 12.2226 4.18013C11.7018 5.37266 11.2395 6.59385 10.7708 7.81114C9.92314 10.0137 9.0859 12.2189 8.26558 14.3694L17.2083 5.53687Z" fill="url(#paint2_linear_3559_4502)"/>
<path d="M3.90361 11.1789C3.72913 11.3574 3.66663 11.7184 3.66663 11.9921C3.7148 13.921 4.27079 15.6727 5.56116 17.2484C7.05074 13.2368 8.51949 9.28518 9.98824 5.33356C7.86454 7.21814 5.86975 9.18482 3.90361 11.1789Z" fill="white"/>
<path d="M3.90361 11.1789C3.72913 11.3574 3.66663 11.7184 3.66663 11.9921C3.7148 13.921 4.27079 15.6727 5.56116 17.2484C7.05074 13.2368 8.51949 9.28518 9.98824 5.33356C7.86454 7.21814 5.86975 9.18482 3.90361 11.1789Z" fill="url(#paint3_linear_3559_4502)"/>
<defs>
<linearGradient id="paint0_linear_3559_4502" x1="4.2683" y1="12.0001" x2="19.6888" y2="12.0001" gradientUnits="userSpaceOnUse">
<stop stop-color="#7B0000"/>
<stop offset="0.35" stop-color="#B70719"/>
<stop offset="0.58" stop-color="#C20439"/>
<stop offset="1" stop-color="#D50070"/>
</linearGradient>
<linearGradient id="paint1_linear_3559_4502" x1="11.9998" y1="20.333" x2="11.9998" y2="3.66663" gradientUnits="userSpaceOnUse">
<stop stop-color="#EE004E"/>
<stop offset="0.5" stop-color="#F93A10"/>
<stop offset="0.67" stop-color="#FB5A0A"/>
<stop offset="1" stop-color="#FF9100"/>
</linearGradient>
<linearGradient id="paint2_linear_3559_4502" x1="-0.861669" y1="16.2375" x2="17.184" y2="3.78085" gradientUnits="userSpaceOnUse">
<stop offset="0.2" stop-color="#FF0E00"/>
<stop offset="0.54" stop-color="#FF5900"/>
<stop offset="1" stop-color="#FF8E00"/>
</linearGradient>
<linearGradient id="paint3_linear_3559_4502" x1="3.87105" y1="16.6333" x2="8.32634" y2="4.40181" gradientUnits="userSpaceOnUse">
<stop offset="0.04" stop-color="#7C0000"/>
<stop offset="0.39" stop-color="#CC1400"/>
<stop offset="1" stop-color="#FF3800"/>
</linearGradient>
</defs>
</svg>
