<svg width="24" height="24" viewBox="0 0 24 24" fill="none" xmlns="http://www.w3.org/2000/svg">
<path d="M21.0126 2L13.2017 7.93833L14.6532 4.43765L21.0126 2Z" fill="#E17726" stroke="#E17726" stroke-width="0.25" stroke-linecap="round" stroke-linejoin="round"/>
<path d="M2.99341 2L10.7389 7.99332L9.35278 4.43765L2.99341 2Z" fill="#E27625" stroke="#E27625" stroke-width="0.25" stroke-linecap="round" stroke-linejoin="round"/>
<path d="M18.1987 15.7705L16.1226 19.0329L20.5723 20.2915L21.8454 15.8438L18.1987 15.7705Z" fill="#E27625" stroke="#E27625" stroke-width="0.25" stroke-linecap="round" stroke-linejoin="round"/>
<path d="M2.1665 15.8438L3.43362 20.2915L7.87744 19.0329L5.80723 15.7705L2.1665 15.8438Z" fill="#E27625" stroke="#E27625" stroke-width="0.25" stroke-linecap="round" stroke-linejoin="round"/>
<path d="M7.63947 10.2598L6.4021 12.1782L10.8043 12.3859L10.6556 7.51672L7.63352 10.266L7.63947 10.2598Z" fill="#E27625" stroke="#E27625" stroke-width="0.25" stroke-linecap="round" stroke-linejoin="round"/>
<path d="M16.3724 10.2599L13.3028 7.45569L13.2017 12.3799L17.6038 12.1721L16.3665 10.2538L16.3724 10.2599Z" fill="#E27625" stroke="#E27625" stroke-width="0.25" stroke-linecap="round" stroke-linejoin="round"/>
<path d="M7.87744 19.0328L10.5425 17.7132L8.24627 15.8743L7.87744 19.0328Z" fill="#E27625" stroke="#E27625" stroke-width="0.25" stroke-linecap="round" stroke-linejoin="round"/>
<path d="M13.4634 17.7072L16.1225 19.0268L15.7597 15.8683L13.4634 17.7072Z" fill="#E27625" stroke="#E27625" stroke-width="0.25" stroke-linecap="round" stroke-linejoin="round"/>
<path d="M16.1225 19.0326L13.4634 17.713L13.6775 19.4847L13.6537 20.2362L16.1166 19.0326H16.1225Z" fill="#D5BFB2" stroke="#D5BFB2" stroke-width="0.25" stroke-linecap="round" stroke-linejoin="round"/>
<path d="M7.87744 19.0326L10.3522 20.2362L10.3343 19.4847L10.5425 17.713L7.87744 19.0326Z" fill="#D5BFB2" stroke="#D5BFB2" stroke-width="0.25" stroke-linecap="round" stroke-linejoin="round"/>
<path d="M10.3939 14.7014L8.18091 14.0355L9.73952 13.2963L10.3879 14.6953L10.3939 14.7014Z" fill="#233447" stroke="#233447" stroke-width="0.25" stroke-linecap="round" stroke-linejoin="round"/>
<path d="M13.6121 14.7013L14.2605 13.3022L15.831 14.0415L13.6121 14.7074V14.7013Z" fill="#233447" stroke="#233447" stroke-width="0.25" stroke-linecap="round" stroke-linejoin="round"/>
<path d="M7.87759 19.0329L8.26427 15.7705L5.80737 15.8438L7.87759 19.0329Z" fill="#CC6228" stroke="#CC6228" stroke-width="0.25" stroke-linecap="round" stroke-linejoin="round"/>
<path d="M15.7417 15.7705L16.1224 19.0329L18.1986 15.8438L15.7417 15.7705Z" fill="#CC6228" stroke="#CC6228" stroke-width="0.25" stroke-linecap="round" stroke-linejoin="round"/>
<path d="M17.6038 12.1781L13.2017 12.3858L13.6121 14.7074L14.2606 13.3083L15.8311 14.0476L17.6098 12.1842L17.6038 12.1781Z" fill="#CC6228" stroke="#CC6228" stroke-width="0.25" stroke-linecap="round" stroke-linejoin="round"/>
<path d="M8.18677 14.0354L9.74538 13.2961L10.3938 14.6952L10.8043 12.3736L6.4021 12.1659L8.18677 14.0293V14.0354Z" fill="#CC6228" stroke="#CC6228" stroke-width="0.25" stroke-linecap="round" stroke-linejoin="round"/>
<path d="M6.4021 12.1781L8.24626 15.8743L8.18677 14.0354L6.4021 12.172V12.1781Z" fill="#E27525" stroke="#E27525" stroke-width="0.25" stroke-linecap="round" stroke-linejoin="round"/>
<path d="M15.8309 14.0354L15.7595 15.8743L17.6037 12.1781L15.825 14.0415L15.8309 14.0354Z" fill="#E27525" stroke="#E27525" stroke-width="0.25" stroke-linecap="round" stroke-linejoin="round"/>
<path d="M10.8043 12.3799L10.3938 14.7015L10.9114 17.4385L11.0244 13.8278L10.7983 12.3799H10.8043Z" fill="#E27525" stroke="#E27525" stroke-width="0.25" stroke-linecap="round" stroke-linejoin="round"/>
<path d="M13.2015 12.3799L12.9873 13.8217L13.0944 17.4385L13.6119 14.7015L13.2015 12.3799Z" fill="#E27525" stroke="#E27525" stroke-width="0.25" stroke-linecap="round" stroke-linejoin="round"/>
<path d="M13.612 14.7012L13.0945 17.4382L13.4633 17.707L15.7596 15.8681L15.831 14.0292L13.612 14.6951V14.7012Z" fill="#F5841F" stroke="#F5841F" stroke-width="0.25" stroke-linecap="round" stroke-linejoin="round"/>
<path d="M8.18686 14.0354L8.24635 15.8743L10.5426 17.7133L10.9115 17.4444L10.3939 14.7074L8.18091 14.0415L8.18686 14.0354Z" fill="#F5841F" stroke="#F5841F" stroke-width="0.25" stroke-linecap="round" stroke-linejoin="round"/>
<path d="M13.6597 20.2363L13.6835 19.4848L13.4812 19.3076H10.5306L10.3402 19.4848L10.358 20.2363L7.8833 19.0327L8.75184 19.7597L10.5068 20.9999H13.511L15.2718 19.7597L16.1285 19.0327L13.6656 20.2363H13.6597Z" fill="#C0AC9D" stroke="#C0AC9D" stroke-width="0.25" stroke-linecap="round" stroke-linejoin="round"/>
<path d="M13.4633 17.7072L13.0944 17.4384H10.9171L10.5483 17.7072L10.3401 19.4789L10.5305 19.3017H13.4811L13.6834 19.4789L13.4692 17.7072H13.4633Z" fill="#161616" stroke="#161616" stroke-width="0.25" stroke-linecap="round" stroke-linejoin="round"/>
<path d="M21.3457 8.32933L22 5.0547L21.0125 2L13.4634 7.73672L16.3664 10.2538L20.4712 11.4818L21.3754 10.3943L20.9828 10.1011L21.6074 9.51456L21.1256 9.13578L21.7502 8.64702L21.3397 8.32323L21.3457 8.32933Z" fill="#763E1A" stroke="#763E1A" stroke-width="0.25" stroke-linecap="round" stroke-linejoin="round"/>
<path d="M2 5.04859L2.66628 8.32323L2.2439 8.64702L2.88044 9.13578L2.39858 9.51456L3.02321 10.1011L2.63058 10.3943L3.53482 11.4818L7.63955 10.2538L10.5426 7.73672L2.99347 2L2 5.04859Z" fill="#763E1A" stroke="#763E1A" stroke-width="0.25" stroke-linecap="round" stroke-linejoin="round"/>
<path d="M20.471 11.4878L16.3663 10.2598L17.6037 12.1781L15.7595 15.8743L18.2045 15.8438H21.8512L20.477 11.4878H20.471Z" fill="#F5841F" stroke="#F5841F" stroke-width="0.25" stroke-linecap="round" stroke-linejoin="round"/>
<path d="M7.63949 10.2598L3.53475 11.4878L2.1665 15.8438H5.80723L8.25222 15.8743L6.40807 12.1781L7.64544 10.2598H7.63949Z" fill="#F5841F" stroke="#F5841F" stroke-width="0.25" stroke-linecap="round" stroke-linejoin="round"/>
<path d="M13.202 12.3798L13.4637 7.7428L14.6535 4.44373H9.35303L10.5428 7.7428L10.8046 12.3798L10.9057 13.8339V17.4384H13.0949V13.8339L13.202 12.3798Z" fill="#F5841F" stroke="#F5841F" stroke-width="0.25" stroke-linecap="round" stroke-linejoin="round"/>
</svg>
