<svg width="42" height="24" viewBox="0 0 42 24" fill="white" xmlns="http://www.w3.org/2000/svg">
<path fill-rule="evenodd" clip-rule="evenodd" d="M39.8673 6.46205L39.8177 6.21184C39.2972 3.60967 37.1656 2 34.2325 2H7.79322C4.85185 2 2.70367 3.66806 2.18315 6.23686L2.13357 6.48707C2.03565 7.09072 1.99141 7.70199 2.00138 8.31359V15.6197C1.99775 16.1382 2.02812 16.6565 2.09226 17.171C2.43928 20.1818 4.57094 21.975 7.79322 21.975H26.9038C26.9857 21.9728 27.0634 21.9385 27.1205 21.8793C27.1776 21.8201 27.2096 21.7407 27.2095 21.658V9.86489C27.2154 9.8206 27.2119 9.77557 27.1992 9.73275C27.1866 9.68993 27.1652 9.65029 27.1363 9.61642C27.1074 9.58256 27.0718 9.55523 27.0317 9.53625C26.9917 9.51726 26.9481 9.50704 26.9038 9.50625H25.7967C25.7565 9.50734 25.717 9.51639 25.6803 9.53291C25.6436 9.54942 25.6105 9.57307 25.5829 9.6025C25.5553 9.63194 25.5337 9.66658 25.5193 9.70444C25.505 9.74231 25.4981 9.78266 25.4992 9.82319V20.2319H8.22286C5.35585 20.2319 3.71993 18.4053 3.71166 15.6864V8.29691C3.71166 5.55296 5.36412 3.78482 8.2146 3.78482H33.8276C36.6863 3.78482 38.314 5.53628 38.314 8.28023V15.6697C38.314 18.3887 36.6616 20.2235 33.8276 20.2235H32.1917C32.1504 20.2246 32.1098 20.2339 32.0721 20.2508C32.0345 20.2677 32.0004 20.292 31.9721 20.3222C31.9437 20.3524 31.9214 20.388 31.9067 20.4269C31.8919 20.4657 31.8849 20.5072 31.886 20.5488V21.6831C31.8859 21.7657 31.9179 21.8451 31.975 21.9043C32.0321 21.9635 32.1098 21.9978 32.1917 22H34.2325C37.4547 22 39.5616 20.1985 39.9086 17.196C39.9086 17.0959 39.9912 16.4787 39.9995 15.6447V8.29691C40.0052 7.68267 39.961 7.069 39.8673 6.46205ZM17.8153 14.9441C17.7874 15.1974 17.8128 15.4537 17.8898 15.6963C17.9668 15.939 18.0937 16.1625 18.2621 16.3522C18.4306 16.542 18.6368 16.6937 18.8674 16.7974C19.0979 16.9011 19.3476 16.9545 19.6 16.9541H20.0709C20.1118 16.9541 20.1522 16.9459 20.1899 16.9299C20.2275 16.9138 20.2616 16.8904 20.2901 16.8608C20.3186 16.8313 20.3409 16.7963 20.3558 16.7579C20.3707 16.7194 20.3777 16.6784 20.3766 16.6372V15.6364C20.3794 15.5533 20.3498 15.4724 20.294 15.4112C20.2662 15.3821 20.2328 15.3589 20.1959 15.3432C20.159 15.3274 20.1193 15.3193 20.0792 15.3194H19.5256V7.3211C19.5267 7.27988 19.5196 7.23885 19.5048 7.20045C19.4899 7.16204 19.4676 7.12703 19.4391 7.09748C19.4106 7.06794 19.3765 7.04446 19.3389 7.02843C19.3012 7.0124 19.2608 7.00416 19.2199 7.00417H18.121C18.0802 7.00416 18.0398 7.0124 18.0021 7.02843C17.9645 7.04446 17.9304 7.06794 17.9019 7.09748C17.8734 7.12703 17.8511 7.16204 17.8362 7.20045C17.8213 7.23885 17.8142 7.27988 17.8153 7.3211V14.9441ZM21.6573 10.5071C21.6562 10.4659 21.6633 10.4248 21.6781 10.3864C21.693 10.348 21.7154 10.313 21.7439 10.2835C21.7724 10.2539 21.8064 10.2304 21.8441 10.2144C21.8817 10.1984 21.9221 10.1901 21.963 10.1902H23.0619C23.1437 10.1923 23.2215 10.2267 23.2786 10.2859C23.3357 10.3451 23.3676 10.4245 23.3676 10.5071V15.3445H23.9046C23.9852 15.3461 24.0622 15.3789 24.1194 15.4362C24.1443 15.4676 24.1664 15.501 24.1855 15.5363C24.1896 15.5779 24.1896 15.6198 24.1855 15.6614V16.6622C24.1866 16.7027 24.1798 16.7431 24.1655 16.781C24.1511 16.8188 24.1295 16.8535 24.1019 16.8829C24.0743 16.9123 24.0412 16.936 24.0045 16.9525C23.9678 16.969 23.9283 16.9781 23.8881 16.9791H23.4254C23.1738 16.9794 22.9249 16.9262 22.695 16.823C22.4651 16.7198 22.2593 16.5688 22.0909 16.38C21.9226 16.1912 21.7955 15.9688 21.718 15.7271C21.6404 15.4855 21.6141 15.2301 21.6408 14.9775L21.6573 10.5071ZM16.5016 7.45455C16.5052 7.43525 16.5052 7.41546 16.5016 7.39616C16.5016 7.39616 16.5016 7.30442 16.5016 7.28774C16.4919 7.25139 16.475 7.21736 16.4521 7.18766H14.8657C14.8263 7.20272 14.7919 7.22875 14.7666 7.26272L10.8916 10.749C10.6803 10.9695 10.5548 11.2595 10.5381 11.5659C10.5214 11.8722 10.6146 12.1744 10.8007 12.417L14.7253 17.0042L14.8079 17.0626C14.8432 17.0711 14.88 17.0711 14.9153 17.0626H16.2125C16.2422 17.0711 16.2736 17.0711 16.3033 17.0626H16.3612L16.4108 16.9791C16.4148 16.9515 16.4148 16.9234 16.4108 16.8957C16.4132 16.8271 16.3928 16.7596 16.3529 16.7039L12.2218 11.6997L16.3529 7.8382C16.3981 7.84072 16.4429 7.82878 16.4809 7.80409C16.519 7.7794 16.5483 7.74322 16.5648 7.7007C16.5813 7.65818 16.5841 7.61149 16.5727 7.56729C16.5614 7.52309 16.5365 7.48364 16.5016 7.45455ZM23.0619 8.75563H21.9547C21.893 8.75174 21.8337 8.73002 21.7839 8.69305C21.7341 8.65607 21.6959 8.60542 21.6738 8.54712C21.6691 8.51114 21.6691 8.47469 21.6738 8.4387V7.3211C21.6734 7.24252 21.7019 7.16658 21.7538 7.10801C21.8057 7.04945 21.8773 7.01244 21.9547 7.00417H23.0619C23.1211 7.00512 23.1786 7.02388 23.2272 7.05806C23.2758 7.09223 23.3132 7.14026 23.3345 7.196C23.343 7.23726 23.343 7.27984 23.3345 7.3211V8.4387C23.343 8.47996 23.343 8.52254 23.3345 8.5638C23.3141 8.6202 23.277 8.66888 23.2282 8.7032C23.1794 8.73753 23.1214 8.75584 23.0619 8.75563ZM9.7018 7.30442C9.69971 7.22545 9.66771 7.1503 9.61237 7.09444C9.55704 7.03859 9.48259 7.00628 9.40436 7.00417H8.20633C8.18724 7.00035 8.16759 7.00035 8.1485 7.00417C8.1265 7.02995 8.10713 7.05789 8.09066 7.08757C8.08284 7.1289 8.08284 7.17135 8.09066 7.21268V16.6122C8.08115 16.6533 8.08115 16.6961 8.09066 16.7373C8.10967 16.7952 8.14619 16.8457 8.1951 16.8816C8.24401 16.9175 8.30284 16.9371 8.36332 16.9374H9.47046C9.51061 16.9364 9.55016 16.9273 9.58684 16.9108C9.62352 16.8943 9.65661 16.8706 9.68424 16.8412C9.71186 16.8118 9.73347 16.7771 9.74782 16.7393C9.76218 16.7014 9.769 16.661 9.7679 16.6205V7.31276L9.7018 7.30442ZM33.9267 13.7264V13.7848C33.8067 14.4325 33.455 15.013 32.9386 15.4159C32.4221 15.8188 31.777 16.016 31.1258 15.97H28.3497C28.3089 15.97 28.2684 15.9617 28.2308 15.9457C28.1932 15.9297 28.1591 15.9062 28.1306 15.8767C28.1021 15.8471 28.0797 15.8121 28.0649 15.7737C28.05 15.7353 28.0429 15.6943 28.044 15.653V14.4687C28.0402 14.4523 28.0402 14.4351 28.044 14.4187C28.0555 14.3881 28.0723 14.3599 28.0936 14.3353L28.1762 14.2769H30.8449C31.8612 14.2769 32.3734 13.7932 32.3734 12.8424V12.8007C32.3734 11.8749 31.8612 11.3912 30.8449 11.3912H28.2919C28.2538 11.3998 28.2143 11.3998 28.1762 11.3912C28.1024 11.3584 28.0434 11.2989 28.011 11.2244C28.0032 11.183 28.0032 11.1406 28.011 11.0992V9.86489C28.0153 9.81987 28.0294 9.77636 28.0522 9.73744C28.0751 9.69853 28.1061 9.66516 28.1432 9.6397C28.1657 9.60519 28.1948 9.57559 28.2289 9.55267C28.263 9.52975 28.3012 9.51396 28.3415 9.50625H31.0763C31.7884 9.45105 32.4931 9.68362 33.0354 10.1528C33.5777 10.6221 33.9132 11.2895 33.9681 12.0083C34.0489 12.5614 34.0489 13.1234 33.9681 13.6764L33.9267 13.7264Z"/>
</svg>
