<svg width="169" height="32" viewBox="0 0 169 32" fill="none" xmlns="http://www.w3.org/2000/svg">
<path d="M3.5613 25.1133C2.758 26.836 3.50331 28.8838 5.226 29.6871C6.9487 30.4904 8.99642 29.7451 9.79973 28.0224L15.5713 15.6452C16.3746 13.9225 15.6293 11.8748 13.9066 11.0715C12.1839 10.2682 10.1362 11.0135 9.33286 12.7362L3.5613 25.1133Z" fill="url(#paint0_linear_3782_5298)"/>
<path d="M13.416 3.97807C12.6127 5.70077 13.358 7.74849 15.0807 8.5518C16.8034 9.3551 18.8512 8.60979 19.6545 6.8871C20.4578 5.16441 19.7125 3.11668 17.9898 2.31337C16.2671 1.51007 14.2193 2.25538 13.416 3.97807Z" fill="url(#paint1_linear_3782_5298)"/>
<path d="M17.9827 25.1149C17.1794 26.8376 17.9247 28.8854 19.6474 29.6887C21.3701 30.492 23.4178 29.7467 24.2211 28.024L34.0765 6.88902C34.8798 5.16633 34.1345 3.1186 32.4118 2.3153C30.6891 1.51199 28.6414 2.2573 27.8381 3.98L17.9827 25.1149Z" fill="url(#paint2_linear_3782_5298)"/>
<path d="M32.4055 25.1144C31.6022 26.837 32.3475 28.8848 34.0702 29.6881C35.7929 30.4914 37.8407 29.7461 38.644 28.0234L48.4993 6.88844C49.3027 5.16575 48.5573 3.11802 46.8346 2.31472C45.112 1.51141 43.0642 2.25672 42.2609 3.97942L32.4055 25.1144Z" fill="url(#paint3_linear_3782_5298)"/>
<path d="M63.3289 21.6733C62.4687 21.1601 61.8065 20.4234 61.3402 19.4631C60.8739 18.5029 60.6418 17.368 60.6418 16.0606C60.6418 14.7533 60.8739 13.6355 61.3402 12.6752C61.8065 11.7149 62.4687 10.9782 63.3289 10.4651C64.1891 9.95192 65.209 9.69642 66.3865 9.69642C67.1764 9.69642 67.9216 9.82417 68.6222 10.0754C69.3227 10.3288 69.9338 10.6908 70.4512 11.1634C70.6385 11.3402 70.7343 11.5467 70.7343 11.7831C70.7343 11.9491 70.6875 12.0918 70.5938 12.2153C70.5001 12.3388 70.3873 12.4005 70.2574 12.4005C70.1169 12.4005 69.9444 12.3366 69.7442 12.2068C69.1438 11.7362 68.5987 11.4062 68.109 11.2167C67.6193 11.0293 67.0572 10.9335 66.4205 10.9335C65.0536 10.9335 64.0018 11.3785 63.265 12.2685C62.5283 13.1585 62.16 14.4212 62.16 16.0606C62.16 17.7001 62.5283 18.9798 63.265 19.8698C64.0018 20.7598 65.0536 21.2048 66.4205 21.2048C67.0444 21.2048 67.6044 21.1112 68.1005 20.9217C68.5945 20.7343 69.1438 20.4043 69.7442 19.9316C69.9444 19.8017 70.1147 19.7378 70.2574 19.7378C70.3873 19.7378 70.498 19.7974 70.5938 19.9145C70.6875 20.0316 70.7343 20.1807 70.7343 20.3574C70.7343 20.5938 70.6407 20.8003 70.4512 20.977C69.9316 21.4476 69.3227 21.8117 68.6222 22.065C67.9216 22.3184 67.1764 22.444 66.3865 22.444C65.2069 22.444 64.1891 22.1885 63.3289 21.6754V21.6733Z" fill="url(#paint4_linear_3782_5298)"/>
<path d="M83.2029 9.95621C83.3264 10.0925 83.3882 10.2713 83.3882 10.4949V21.6477C83.3882 21.8713 83.3264 22.0523 83.2029 22.1864C83.0794 22.3206 82.9048 22.3887 82.6813 22.3887C82.4577 22.3887 82.281 22.3206 82.1511 22.1864C82.0212 22.0502 81.9573 21.8713 81.9573 21.6477V16.593H74.4987V21.6477C74.4987 21.8713 74.4348 22.0523 74.3049 22.1864C74.1751 22.3227 73.9983 22.3887 73.7748 22.3887C73.5512 22.3887 73.3766 22.3206 73.2531 22.1864C73.1296 22.0523 73.0679 21.8713 73.0679 21.6477V10.4949C73.0679 10.2713 73.1296 10.0904 73.2531 9.95621C73.3766 9.81994 73.5512 9.75394 73.7748 9.75394C73.9983 9.75394 74.1751 9.82207 74.3049 9.95621C74.4348 10.0925 74.4987 10.2713 74.4987 10.4949V15.3559H81.9573V10.4949C81.9573 10.2713 82.0212 10.0904 82.1511 9.95621C82.281 9.81994 82.4577 9.75394 82.6813 9.75394C82.9048 9.75394 83.0794 9.82207 83.2029 9.95621V9.95621Z" fill="url(#paint5_linear_3782_5298)"/>
<path d="M97.2644 21.7711C97.2644 21.9478 97.1963 22.0948 97.0621 22.214C96.9258 22.3311 96.764 22.3907 96.5766 22.3907C96.2828 22.3907 96.0763 22.2502 95.957 21.967L94.7029 19.1032H88.0385L86.7652 21.967C86.6481 22.2502 86.4416 22.3907 86.1456 22.3907C85.9561 22.3907 85.7922 22.329 85.6516 22.2055C85.5111 22.082 85.4387 21.9308 85.4387 21.7541C85.4387 21.6604 85.4621 21.5667 85.509 21.4709L90.5637 10.2286C90.634 10.0647 90.7405 9.93906 90.881 9.85815C91.0215 9.77511 91.1748 9.73466 91.3409 9.73466C91.5176 9.73466 91.6773 9.77937 91.8178 9.86667C91.9584 9.95397 92.0648 10.0753 92.1351 10.2286L97.1899 21.4709C97.2367 21.5646 97.2601 21.6647 97.2601 21.7711H97.2644ZM88.5687 17.9002H94.1728L91.3622 11.5551L88.5687 17.9002Z" fill="url(#paint6_linear_3782_5298)"/>
<path d="M109.124 9.95621C109.241 10.0925 109.301 10.2713 109.301 10.4949V21.6477C109.301 21.8713 109.239 22.0523 109.116 22.1864C108.992 22.3206 108.818 22.3887 108.594 22.3887C108.37 22.3887 108.177 22.2886 108.011 22.0885L100.675 12.2792V21.6477C100.675 21.8713 100.614 22.0523 100.49 22.1864C100.367 22.3206 100.198 22.3887 99.9856 22.3887C99.7727 22.3887 99.6087 22.3206 99.4895 22.1864C99.3724 22.0502 99.3127 21.8713 99.3127 21.6477V10.4949C99.3127 10.2713 99.3745 10.0904 99.498 9.95621C99.6215 9.81994 99.7961 9.75394 100.02 9.75394C100.256 9.75394 100.456 9.85401 100.62 10.0542L107.938 19.8635V10.4949C107.938 10.2713 108 10.0904 108.123 9.95621C108.247 9.81994 108.415 9.75394 108.628 9.75394C108.841 9.75394 109.005 9.82207 109.122 9.95621H109.124Z" fill="url(#paint7_linear_3782_5298)"/>
<path d="M122.187 9.95621C122.304 10.0925 122.363 10.2713 122.363 10.4949V21.6477C122.363 21.8713 122.302 22.0523 122.178 22.1864C122.055 22.3206 121.88 22.3887 121.656 22.3887C121.433 22.3887 121.239 22.2886 121.073 22.0885L113.738 12.2792V21.6477C113.738 21.8713 113.676 22.0523 113.553 22.1864C113.429 22.3206 113.261 22.3887 113.048 22.3887C112.835 22.3887 112.671 22.3206 112.552 22.1864C112.435 22.0502 112.375 21.8713 112.375 21.6477V10.4949C112.375 10.2713 112.437 10.0904 112.56 9.95621C112.684 9.81994 112.859 9.75394 113.082 9.75394C113.318 9.75394 113.519 9.85401 113.683 10.0542L121.001 19.8635V10.4949C121.001 10.2713 121.062 10.0904 121.186 9.95621C121.309 9.81994 121.478 9.75394 121.691 9.75394C121.903 9.75394 122.067 9.82207 122.185 9.95621H122.187Z" fill="url(#paint8_linear_3782_5298)"/>
<path d="M125.643 22.1075C125.506 21.9777 125.438 21.8073 125.438 21.5944V10.548C125.438 10.3351 125.506 10.1648 125.643 10.0349C125.779 9.905 125.958 9.84112 126.181 9.84112H132.793C133.005 9.84112 133.169 9.89435 133.289 10.0008C133.406 10.1073 133.465 10.2542 133.465 10.4437C133.465 10.6332 133.406 10.7801 133.289 10.8866C133.172 10.993 133.005 11.0463 132.793 11.0463H126.871V15.3771H132.439C132.652 15.3771 132.816 15.4303 132.933 15.5368C133.05 15.6432 133.11 15.7902 133.11 15.9797C133.11 16.1692 133.05 16.3161 132.933 16.4225C132.816 16.529 132.65 16.5822 132.439 16.5822H126.871V21.1068H132.793C133.005 21.1068 133.169 21.1579 133.289 21.258C133.406 21.3581 133.465 21.5092 133.465 21.7094C133.465 21.8989 133.406 22.0458 133.289 22.1523C133.172 22.2587 133.005 22.3119 132.793 22.3119H126.181C125.958 22.3119 125.777 22.2481 125.643 22.1182V22.1075Z" fill="url(#paint9_linear_3782_5298)"/>
<path d="M135.929 22.1162C135.793 21.9927 135.724 21.8309 135.724 21.6307V10.4949C135.724 10.2713 135.788 10.0904 135.918 9.95621C136.048 9.81994 136.225 9.75394 136.448 9.75394C136.672 9.75394 136.849 9.82207 136.978 9.95621C137.108 10.0925 137.172 10.2713 137.172 10.4949V21.0643H142.881C143.094 21.0643 143.258 21.1176 143.377 21.224C143.494 21.3305 143.553 21.4838 143.553 21.6839C143.553 21.8841 143.494 22.0374 143.377 22.1438C143.26 22.2503 143.094 22.3035 142.881 22.3035H136.429C136.229 22.3035 136.061 22.2418 135.925 22.1183L135.929 22.1162Z" fill="url(#paint10_linear_3782_5298)"/>
<path d="M148.523 22.1417C148.344 21.9649 148.287 21.6988 148.353 21.3453L149.726 14.5042C149.79 14.1635 149.943 13.9058 150.188 13.7355C150.433 13.5652 150.714 13.48 151.031 13.48C151.348 13.48 151.595 13.5652 151.77 13.7355C151.945 13.9058 152 14.1635 151.936 14.5042L150.563 21.3453C150.497 21.6988 150.341 21.9649 150.097 22.1417C149.852 22.3184 149.577 22.4078 149.27 22.4078C148.964 22.4078 148.704 22.3184 148.523 22.1417ZM150.514 11.5807C150.303 11.3636 150.22 11.0761 150.26 10.7227C150.303 10.3692 150.454 10.086 150.714 9.87524C150.974 9.66232 151.306 9.55798 151.706 9.55798C152.106 9.55798 152.398 9.66444 152.615 9.87524C152.83 10.0882 152.92 10.3692 152.877 10.7227C152.835 11.0761 152.683 11.3614 152.422 11.5807C152.16 11.7979 151.83 11.9086 151.429 11.9086C151.029 11.9086 150.722 11.8 150.514 11.5807Z" fill="url(#paint11_linear_3782_5298)"/>
<path d="M165.487 10.0605C165.651 10.2671 165.695 10.5353 165.621 10.8654L163.577 21.2751C163.513 21.6179 163.366 21.8905 163.134 22.097C162.904 22.3035 162.629 22.4057 162.31 22.4057C161.933 22.4057 161.654 22.2652 161.475 21.982L156.712 13.6738L155.194 21.2922C155.13 21.635 154.983 21.9054 154.753 22.1055C154.523 22.3057 154.244 22.4057 153.914 22.4057C153.608 22.4057 153.376 22.2993 153.218 22.0885C153.061 21.8756 153.014 21.5988 153.078 21.2581L155.12 10.8654C155.181 10.5353 155.335 10.2671 155.577 10.0605C155.82 9.854 156.095 9.7518 156.401 9.7518C156.791 9.7518 157.061 9.89233 157.217 10.1755L161.997 18.4837L163.5 10.8483C163.562 10.5183 163.711 10.2543 163.947 10.052C164.184 9.85187 164.454 9.7518 164.761 9.7518C165.067 9.7518 165.321 9.854 165.485 10.0605H165.487Z" fill="url(#paint12_linear_3782_5298)"/>
<defs>
<linearGradient id="paint0_linear_3782_5298" x1="-0.30317" y1="26.2349" x2="50.4363" y2="-3.87136" gradientUnits="userSpaceOnUse">
<stop stop-color="#7AB6EF"/>
<stop offset="1" stop-color="#455FEC"/>
</linearGradient>
<linearGradient id="paint1_linear_3782_5298" x1="-5.04435" y1="18.2372" x2="45.6932" y2="-11.8671" gradientUnits="userSpaceOnUse">
<stop stop-color="#7AB6EF"/>
<stop offset="1" stop-color="#455FEC"/>
</linearGradient>
<linearGradient id="paint2_linear_3782_5298" x1="2.0626" y1="30.2204" x2="52.8021" y2="0.116003" gradientUnits="userSpaceOnUse">
<stop stop-color="#7AB6EF"/>
<stop offset="1" stop-color="#455FEC"/>
</linearGradient>
<linearGradient id="paint3_linear_3782_5298" x1="5.81892" y1="36.5514" x2="56.5584" y2="6.44515" gradientUnits="userSpaceOnUse">
<stop stop-color="#7AB6EF"/>
<stop offset="1" stop-color="#455FEC"/>
</linearGradient>
<linearGradient id="paint4_linear_3782_5298" x1="59.7242" y1="16.9102" x2="165.227" y2="3.57491" gradientUnits="userSpaceOnUse">
<stop stop-color="#7AB6EF"/>
<stop offset="1" stop-color="#455FEC"/>
</linearGradient>
<linearGradient id="paint5_linear_3782_5298" x1="59.9093" y1="18.3858" x2="165.412" y2="5.0505" gradientUnits="userSpaceOnUse">
<stop stop-color="#7AB6EF"/>
<stop offset="1" stop-color="#455FEC"/>
</linearGradient>
<linearGradient id="paint6_linear_3782_5298" x1="60.1564" y1="20.3339" x2="165.659" y2="6.99864" gradientUnits="userSpaceOnUse">
<stop stop-color="#7AB6EF"/>
<stop offset="1" stop-color="#455FEC"/>
</linearGradient>
<linearGradient id="paint7_linear_3782_5298" x1="60.3204" y1="21.6307" x2="165.823" y2="8.29539" gradientUnits="userSpaceOnUse">
<stop stop-color="#7AB6EF"/>
<stop offset="1" stop-color="#455FEC"/>
</linearGradient>
<linearGradient id="paint8_linear_3782_5298" x1="60.5246" y1="23.2553" x2="166.029" y2="9.92003" gradientUnits="userSpaceOnUse">
<stop stop-color="#7AB6EF"/>
<stop offset="1" stop-color="#455FEC"/>
</linearGradient>
<linearGradient id="paint9_linear_3782_5298" x1="60.7164" y1="24.7627" x2="166.219" y2="11.4274" gradientUnits="userSpaceOnUse">
<stop stop-color="#7AB6EF"/>
<stop offset="1" stop-color="#455FEC"/>
</linearGradient>
<linearGradient id="paint10_linear_3782_5298" x1="60.8696" y1="25.9871" x2="166.374" y2="12.6518" gradientUnits="userSpaceOnUse">
<stop stop-color="#7AB6EF"/>
<stop offset="1" stop-color="#455FEC"/>
</linearGradient>
<linearGradient id="paint11_linear_3782_5298" x1="61.0356" y1="27.288" x2="166.538" y2="13.9505" gradientUnits="userSpaceOnUse">
<stop stop-color="#7AB6EF"/>
<stop offset="1" stop-color="#455FEC"/>
</linearGradient>
<linearGradient id="paint12_linear_3782_5298" x1="61.1871" y1="28.4889" x2="166.69" y2="15.1536" gradientUnits="userSpaceOnUse">
<stop stop-color="#7AB6EF"/>
<stop offset="1" stop-color="#455FEC"/>
</linearGradient>
</defs>
</svg>
