<svg width="19" height="18" viewBox="0 0 19 18" fill="none" xmlns="http://www.w3.org/2000/svg">
<path d="M4.65771 6.53231C4.64856 4.37733 6.35129 2.49629 8.49276 2.27455C9.49566 2.17068 10.4178 2.39888 11.2716 2.91233C12.4618 3.62868 13.6429 4.36118 14.8289 5.08453C15.6956 5.61305 15.7333 6.79873 14.8811 7.34232C14.4057 7.64533 13.9029 7.59366 13.4298 7.30787C12.2557 6.59797 11.088 5.87785 9.91448 5.16742C9.18989 4.72878 8.45023 4.77829 7.87153 5.28905C6.99244 6.06461 7.12164 7.38591 8.138 8.00862C8.5046 8.23359 8.87605 8.45102 9.23942 8.68138C9.72553 8.98977 9.96078 9.52098 9.85257 10.0377C9.73091 10.62 9.33578 11.0263 8.74469 11.0909C8.49976 11.1178 8.20744 11.0818 7.99481 10.9671C7.43602 10.6657 6.89016 10.3321 6.3739 9.96231C5.41353 9.27394 4.88919 8.3084 4.70885 7.14856C4.6884 7.01562 4.67171 6.88215 4.65933 6.74813C4.65287 6.67709 4.65825 6.60497 4.65825 6.53285L4.65771 6.53231Z" fill="#00AD93"/>
<path d="M14.3018 10.725C14.3018 13.332 12.0107 15.3148 9.42837 14.9585C8.68709 14.8562 8.04379 14.5398 7.41987 14.1593C6.37067 13.5193 5.32577 12.8719 4.26958 12.2432C3.77162 11.9462 3.46316 11.5414 3.50354 10.9548C3.5746 9.91335 4.65879 9.40151 5.55349 9.95694C6.70389 10.6717 7.86883 11.3627 9.01655 12.0818C10.2472 12.853 11.3879 12.1028 11.6544 11.1442C11.8525 10.4322 11.5397 9.66147 10.8646 9.24705C10.4824 9.01239 10.091 8.79172 9.71583 8.54684C9.09622 8.14157 8.93311 7.37085 9.32124 6.75192C9.6943 6.15773 10.4797 5.96344 11.0934 6.35149C11.7432 6.76214 12.4199 7.15234 12.9948 7.65449C13.9062 8.44996 14.3045 9.51454 14.3018 10.725Z" fill="#ABABAA"/>
</svg>
