<svg width="24" height="24" viewBox="0 0 24 24" fill="none" xmlns="http://www.w3.org/2000/svg">
<rect width="24" height="24" rx="12" fill="#F2F1F4"/>
<path d="M11.7115 18.9232C16.1546 18.9232 19.7565 15.3214 19.7565 10.8783C19.7565 6.43521 16.1546 2.83337 11.7115 2.83337C7.26846 2.83337 3.66663 6.43521 3.66663 10.8783C3.66663 15.3214 7.26846 18.9232 11.7115 18.9232Z" fill="url(#paint0_linear_3559_4504)"/>
<path d="M11.7115 18.9232C16.1546 18.9232 19.7565 15.3214 19.7565 10.8783C19.7565 6.43521 16.1546 2.83337 11.7115 2.83337C7.26846 2.83337 3.66663 6.43521 3.66663 10.8783C3.66663 15.3214 7.26846 18.9232 11.7115 18.9232Z" fill="url(#paint1_linear_3559_4504)"/>
<path opacity="0.3" d="M3.70337 10.1038C4.84776 9.2084 6.12674 8.49985 7.49277 8.00451C9.57374 7.24296 11.9795 6.90347 13.8806 7.89991C14.3353 8.13536 14.7325 8.46804 15.0441 8.87433C15.3627 9.22873 15.5951 9.65204 15.723 10.1112C15.8322 10.5933 15.844 11.0924 15.7579 11.5792C15.6759 12.052 15.4952 12.5022 15.2276 12.9005C14.677 13.7519 13.8733 14.3447 12.9154 14.7814C12.112 15.1276 11.2759 15.3926 10.4197 15.5723V9.88361C10.4218 9.75496 10.3982 9.62718 10.3503 9.50776C10.3024 9.38833 10.2312 9.27967 10.1408 9.18813C9.96804 9.01282 9.73964 8.90317 9.49483 8.878H8.99753V20.6756H9.02689C9.2079 20.6849 9.3889 20.657 9.55869 20.5935C9.72848 20.5301 9.88345 20.4325 10.014 20.3067C10.1446 20.181 10.2479 20.0298 10.3177 19.8625C10.3875 19.6953 10.4222 19.5154 10.4197 19.3342V17.3303C11.4675 17.0495 12.719 16.7119 13.6292 16.2293C14.1923 15.9276 14.7162 15.5578 15.189 15.1282C15.4316 14.9104 15.655 14.6722 15.857 14.4162C16.0455 14.1955 16.2074 13.9534 16.3396 13.695C16.5415 13.3005 16.7488 13.0179 16.8351 11.9829C16.8901 11.3315 16.8883 10.4525 16.6919 9.81939C16.4956 9.18629 16.3029 8.58439 15.8588 8.11278C15.4108 7.64865 14.8674 7.28737 14.266 7.05395C13.6987 6.81719 13.1016 6.65913 12.4915 6.58417C11.8912 6.5181 11.2852 6.52179 10.6858 6.59518C9.5194 6.75508 8.38292 7.08588 7.31294 7.57694C6.01133 8.15185 4.80377 8.91956 3.7309 9.85425L3.70337 10.1038Z" fill="white"/>
<path d="M16.4901 9.35875C16.2995 8.75277 15.9745 8.19763 15.5395 7.73472C15.107 7.28751 14.5831 6.93887 14.0035 6.71259C13.4562 6.48411 12.8801 6.33161 12.2914 6.25933C11.7119 6.19507 11.1268 6.19876 10.5481 6.27034C9.42317 6.42534 8.327 6.74436 7.29456 7.21723C5.96695 7.82627 4.76461 8.67762 3.74921 9.7276L3.71802 9.96799C4.80528 8.95337 6.07912 8.1594 7.46889 7.63012C9.47644 6.89609 11.796 6.56395 13.631 7.52919C14.2246 7.87255 14.702 8.38553 15.0018 9.00224C15.3017 9.61894 15.4103 10.3112 15.3138 10.9901C15.2553 11.4198 15.1003 11.8307 14.8605 12.1921C14.3247 13.0142 13.5429 13.4216 12.6199 13.8436C11.796 14.2107 10.9463 14.3942 10.0215 14.5777V9.89459C10.0273 9.75708 10.0052 9.61982 9.95665 9.49105C9.90805 9.36229 9.83391 9.24469 9.73868 9.14533C9.64344 9.04597 9.52909 8.9669 9.4025 8.91289C9.27592 8.85888 9.13971 8.83103 9.00208 8.83103C8.86445 8.83103 8.72825 8.85888 8.60166 8.91289C8.47507 8.9669 8.36072 9.04597 8.26549 9.14533C8.17025 9.24469 8.09611 9.36229 8.04751 9.49105C7.99891 9.61982 7.97687 9.75708 7.9827 9.89459V19.6553C7.97687 19.7928 7.99891 19.9301 8.04751 20.0588C8.09611 20.1876 8.17025 20.3052 8.26549 20.4045C8.36072 20.5039 8.47507 20.583 8.60166 20.637C8.72825 20.691 8.86445 20.7188 9.00208 20.7188C9.13971 20.7188 9.27592 20.691 9.4025 20.637C9.52909 20.583 9.64344 20.5039 9.73868 20.4045C9.83391 20.3052 9.90805 20.1876 9.95665 20.0588C10.0052 19.9301 10.0273 19.7928 10.0215 19.6553V16.6972C11.0766 16.4127 12.4291 16.0696 13.3925 15.5539C13.9355 15.2668 14.4409 14.9136 14.8972 14.5024C15.1311 14.2912 15.3471 14.061 15.5432 13.8143C15.737 13.5721 15.9124 13.3157 16.068 13.0472C16.3927 12.4922 16.5972 11.8751 16.6681 11.236C16.7375 10.6047 16.6769 9.96579 16.4901 9.35875Z" fill="url(#paint2_linear_3559_4504)"/>
<defs>
<linearGradient id="paint0_linear_3559_4504" x1="6.38435" y1="16.2073" x2="16.6625" y2="5.92913" gradientUnits="userSpaceOnUse">
<stop stop-color="#FFB200"/>
<stop offset="1" stop-color="#FC210D"/>
</linearGradient>
<linearGradient id="paint1_linear_3559_4504" x1="6.38435" y1="16.2073" x2="16.6625" y2="5.92913" gradientUnits="userSpaceOnUse">
<stop stop-color="#FFB200"/>
<stop offset="1" stop-color="#FC210D"/>
</linearGradient>
<linearGradient id="paint2_linear_3559_4504" x1="6.28344" y1="20.0186" x2="9.27092" y2="12.9408" gradientUnits="userSpaceOnUse">
<stop stop-color="#FFB200"/>
<stop offset="0.47" stop-color="white"/>
</linearGradient>
</defs>
</svg>
