<svg width="24" height="24" viewBox="0 0 24 24" fill="none" xmlns="http://www.w3.org/2000/svg">
<g clip-path="url(#clip0_6_284)">
<path d="M9.55002 4.03L12.79 2.12L18.06 4.26L18.25 4.24L19.57 5.62L19.7 18.27L18.32 19.64H5.60002L4.27002 18.3L3.52002 11.69L9.55002 4.03Z" fill="white"/>
<path d="M9.3001 15.96C8.1001 17.21 6.8501 18.41 5.6001 19.65C9.5201 23.04 15.4001 22.52 18.3301 19.64L11.8901 13.13C11.0201 14.09 10.1901 15.05 9.3001 15.96Z" fill="white"/>
<path d="M9.3001 15.96C8.1001 17.21 6.8501 18.41 5.6001 19.65C9.5201 23.04 15.4001 22.52 18.3301 19.64L11.8901 13.13C11.0201 14.09 10.1901 15.05 9.3001 15.96Z" fill="url(#paint0_linear_6_284)"/>
<path d="M13.6599 12.1L19.7099 18.27C22.9099 14.93 22.6599 8.61 19.5799 5.62L13.6599 12.09V12.1Z" fill="white"/>
<path d="M13.6599 12.1L19.7099 18.27C22.9099 14.93 22.6599 8.61 19.5799 5.62L13.6599 12.09V12.1Z" fill="url(#paint1_linear_6_284)"/>
<path d="M18.25 4.24005C17.1 3.03005 14.64 1.92005 13.16 2.00005C12.97 2.03005 12.8 2.10005 12.64 2.20005C12.49 2.31005 12.36 2.45005 12.26 2.61005C11.63 4.04005 11.08 5.51005 10.52 6.97005C9.50001 9.61005 8.50001 12.26 7.51001 14.84L18.25 4.24005Z" fill="white"/>
<path d="M18.25 4.24005C17.1 3.03005 14.64 1.92005 13.16 2.00005C12.97 2.03005 12.8 2.10005 12.64 2.20005C12.49 2.31005 12.36 2.45005 12.26 2.61005C11.63 4.04005 11.08 5.51005 10.52 6.97005C9.50001 9.61005 8.50001 12.26 7.51001 14.84L18.25 4.24005Z" fill="url(#paint2_linear_6_284)"/>
<path d="M2.28 11.01C2.07 11.22 2 11.66 2 11.99C2.06 14.3 2.73 16.41 4.27 18.3C6.06 13.49 7.82 8.74 9.58 4C7.04 6.26 4.64 8.62 2.28 11.01Z" fill="white"/>
<path d="M2.28 11.01C2.07 11.22 2 11.66 2 11.99C2.06 14.3 2.73 16.41 4.27 18.3C6.06 13.49 7.82 8.74 9.58 4C7.04 6.26 4.64 8.62 2.28 11.01Z" fill="url(#paint3_linear_6_284)"/>
</g>
<defs>
<linearGradient id="paint0_linear_6_284" x1="2.7201" y1="17.56" x2="21.2301" y2="17.56" gradientUnits="userSpaceOnUse">
<stop stop-color="#75161B"/>
<stop offset="0.35" stop-color="#AD1F24"/>
<stop offset="0.58" stop-color="#B71A39"/>
<stop offset="1" stop-color="#C6126A"/>
</linearGradient>
<linearGradient id="paint1_linear_6_284" x1="17.8299" y1="22" x2="17.8299" y2="2" gradientUnits="userSpaceOnUse">
<stop stop-color="#DE144B"/>
<stop offset="0.5" stop-color="#E83F1B"/>
<stop offset="0.67" stop-color="#EB5A19"/>
<stop offset="1" stop-color="#F18C1A"/>
</linearGradient>
<linearGradient id="paint2_linear_6_284" x1="-3.06999" y1="17.61" x2="18.58" y2="2.66005" gradientUnits="userSpaceOnUse">
<stop offset="0.2" stop-color="#E72518"/>
<stop offset="0.54" stop-color="#EB5919"/>
<stop offset="1" stop-color="#F18A1A"/>
</linearGradient>
<linearGradient id="paint3_linear_6_284" x1="2.24" y1="17.56" x2="7.59" y2="2.88" gradientUnits="userSpaceOnUse">
<stop offset="0.04" stop-color="#76161B"/>
<stop offset="0.39" stop-color="#C01E20"/>
<stop offset="1" stop-color="#E83E18"/>
</linearGradient>
<clipPath id="clip0_6_284">
<rect width="20" height="20" fill="white" transform="translate(2 2)"/>
</clipPath>
</defs>
</svg>
