<svg width="88" height="14" viewBox="0 0 88 14" fill="none" xmlns="http://www.w3.org/2000/svg">
<g clip-path="url(#clip0_3617_36047)">
<path d="M8.62649 3.4065H10.469L11.6738 8.13482L13.013 3.4065H14.4942L15.8263 8.12L17.0449 3.4065H18.8874L16.6974 10.9522H15.1457L13.7498 6.00467L12.361 10.9522H10.8021L8.62649 3.4065Z" fill="#14B8A6"/>
<path d="M26.8035 3.40701H28.7068V4.01146C29.2356 3.36204 30.0741 3.09737 30.8594 3.09737C32.9517 3.09737 34.0922 4.94037 34.0922 7.02504C34.0922 9.10971 32.9517 10.9527 30.8293 10.9527C30.0209 10.9527 29.2356 10.6957 28.7068 10.0463V13.9285H26.8035V3.40701ZM32.2344 7.02555C32.2344 5.77168 31.6677 4.7973 30.399 4.7973C29.1304 4.7973 28.5407 5.75635 28.5407 7.02555C28.5407 8.29475 29.1298 9.28394 30.399 9.28394C31.6682 9.28394 32.2344 8.27942 32.2344 7.02555Z" fill="#14B8A6"/>
<path d="M22.3547 3.09686C20.8668 3.09686 19.9077 3.76161 19.1827 4.7508L20.5965 5.76861C20.9215 5.21832 21.5029 4.70584 22.37 4.70584C23.5707 4.70584 23.9483 5.18153 23.9861 6.29949H21.8938C20.202 6.29949 18.8874 6.84314 18.8874 8.48226C18.8874 10.1214 20.0809 10.9522 21.6291 10.9522C22.4901 10.9522 23.4946 10.5746 23.9856 9.79642V10.9522H25.8286V6.22387C25.8286 4.38088 24.4087 3.09686 22.3547 3.09686ZM21.9996 9.39635C21.1764 9.39635 20.7758 9.04124 20.7758 8.54307C20.7758 8.04489 21.1611 7.62898 21.9996 7.62898H23.9856C23.8722 8.52058 23.1323 9.39635 21.9996 9.39635Z" fill="#14B8A6"/>
<path d="M3.45978 2.84803C3.45978 2.16847 4.0489 1.70759 4.80408 1.70759C5.55926 1.70759 6.15605 2.12299 6.52598 2.84803L8.3281 2.3565C7.74153 0.698467 6.2935 0 4.87204 0C3.07452 0 1.54116 1.05766 1.54116 2.94562C1.54116 6.42007 6.70788 5.67971 6.70788 7.89314C6.70788 8.64832 6.08861 9.25277 4.94817 9.25277C3.80773 9.25277 2.87116 8.66365 2.73525 7.33416L0.837585 7.85175C1.19218 9.92876 3.03977 10.9527 4.91751 10.9527C6.95671 10.9527 8.62598 9.73664 8.62598 7.71993C8.62649 4.17701 3.45978 4.85708 3.45978 2.84803Z" fill="#14B8A6"/>
<path d="M81.054 7.00781C81.054 5.32321 80.2007 3.20073 77.5571 3.20073C74.9134 3.20073 73.8558 5.19496 73.8558 7.15854C73.8558 9.12212 75.0315 10.9794 77.5228 11.0525V11.0561H80.0791V9.38168H77.5228C76.455 9.32036 75.8495 8.66175 75.6988 7.72109L80.9861 7.73285C81.0239 7.62708 81.054 7.31744 81.054 7.00781ZM75.6988 6.40387C75.8725 5.45963 76.4539 4.74993 77.5417 4.74993C78.3424 4.74993 78.9617 5.15 79.1507 5.92817C79.1962 6.07941 79.211 6.23781 79.211 6.40387H75.6988Z" fill="#9FA8B7"/>
<path d="M73.1246 6.37679C73.1246 4.79796 72.3464 3.20431 70.3675 3.20431C69.6271 3.20431 68.7585 3.49912 68.1546 4.23898V3.51343H66.3116V11.0561H68.1546V6.77686C68.1546 5.4627 68.804 4.90372 69.8392 4.90372C70.7834 4.90372 71.2821 5.62109 71.2821 6.6108V11.0561H73.1251V6.37679H73.1246Z" fill="#9FA8B7"/>
<path d="M65.3367 6.37679C65.3367 4.79796 64.5585 3.20431 62.5796 3.20431C61.8393 3.20431 60.9707 3.49912 60.3667 4.23898V3.51343H58.5237V11.0561H60.3667V6.77686C60.3667 5.4627 61.0161 4.90372 62.0513 4.90372C62.9955 4.90372 63.4942 5.62109 63.4942 6.6108V11.0561H65.3372V6.37679H65.3367Z" fill="#9FA8B7"/>
<path d="M54.0805 3.20124C52.5926 3.20124 51.6336 3.86598 50.9085 4.85518L52.3223 5.87299C52.6473 5.3227 53.2288 4.81022 54.0958 4.81022C55.2966 4.81022 55.6742 5.28591 55.712 6.40387H53.6201C51.9284 6.40387 50.6137 6.94752 50.6137 8.58664C50.6137 10.2258 51.8073 11.0566 53.3555 11.0566C54.2164 11.0566 55.2209 10.679 55.712 9.9008V11.0566H57.555V6.32825C57.555 4.48525 56.135 3.20124 54.0805 3.20124ZM53.7254 9.50073C52.9023 9.50073 52.5017 9.14562 52.5017 8.64744C52.5017 8.14927 52.8869 7.73336 53.7254 7.73336H55.7115C55.5985 8.62445 54.8587 9.50073 53.7254 9.50073Z" fill="#9FA8B7"/>
<path d="M86.3086 5.23533L87.1624 3.74182C86.7879 3.37292 86.2498 3.19971 85.7358 3.19971C84.8616 3.19971 83.9792 3.71321 83.6435 4.6273V3.50883H81.7852V11.0561H83.6282V7.7165C83.6277 5.79788 84.5566 4.99723 85.4466 4.99723C85.7512 4.99723 86.0398 5.08766 86.2979 5.25423L86.3086 5.23533Z" fill="#9FA8B7"/>
<path d="M48.5975 8.33168C48.3666 8.96219 47.8224 9.3873 47.1342 9.3873C45.8501 9.3873 45.3668 8.29182 45.3668 7.14372C45.3668 5.99562 45.8655 4.87 47.1342 4.87C47.8352 4.87 48.3671 5.31248 48.597 5.95628L50.1268 4.85518C49.4901 3.74131 48.4248 3.20073 47.1342 3.20073C44.6719 3.20073 43.4937 5.16482 43.4937 7.14372C43.4937 9.12263 44.6872 11.0566 47.1495 11.0566C48.4304 11.0566 49.4784 10.4465 50.066 9.38883L48.5975 8.33168Z" fill="#9FA8B7"/>
<path fill-rule="evenodd" clip-rule="evenodd" d="M37.2498 8.23838C33.9052 6.23137 36.8079 1.2021 40.219 3.09517L40.2307 3.10181L42.8703 4.62546C43.2443 4.84108 43.372 5.31933 43.1564 5.69283C42.9408 6.06684 42.4625 6.19458 42.089 5.97896L39.4556 4.45889C37.84 3.56933 36.4706 5.94115 38.049 6.8956L39.4643 7.71261C39.8383 7.92823 39.966 8.40648 39.7504 8.77998C39.5348 9.154 39.0566 9.28174 38.683 9.06612L37.2616 8.24553L37.2504 8.23889L37.2498 8.23838Z" fill="#14B8A6"/>
<path fill-rule="evenodd" clip-rule="evenodd" d="M38.1026 5.30246C38.3182 4.92845 38.7965 4.80071 39.17 5.01633L40.5914 5.83692L40.6027 5.84356C43.9474 7.85057 41.0447 12.8798 37.6336 10.9868L37.6218 10.9801L34.9823 9.45648C34.6082 9.24086 34.4805 8.76261 34.6961 8.38911C34.9117 8.01509 35.39 7.88736 35.7635 8.10298L38.3969 9.62305C40.0125 10.5126 41.3819 8.14079 39.8036 7.18684L38.3882 6.36984C38.0142 6.15422 37.8865 5.67597 38.1021 5.30246H38.1026Z" fill="#9FA8B7"/>
</g>
<defs>
<clipPath id="clip0_3617_36047">
<rect width="86.3248" height="14" fill="white" transform="translate(0.837585)"/>
</clipPath>
</defs>
</svg>
