<svg width="190" height="30" viewBox="0 0 190 30" fill="none" xmlns="http://www.w3.org/2000/svg">
<g clip-path="url(#clip0_1311_361)">
<path d="M79.7215 13.8907L76.0697 17.9255V22.8874H73.4065V2.70107H76.0697V14.3437L86.501 2.70107H89.8247L81.4473 11.9771L90.3957 22.8874H86.9867L79.7215 13.8907Z" fill="white"/>
<path d="M92.9864 22.8874V2.07448H95.5985V22.8874H92.9864Z" fill="white"/>
<path d="M102.459 22.2565C101.374 21.5986 100.49 20.6588 99.9023 19.5385C99.2705 18.3508 98.9483 17.0248 98.9648 15.6816C98.9483 14.3384 99.2705 13.0124 99.9023 11.8247C100.494 10.6929 101.39 9.7469 102.492 9.09266C103.594 8.43841 104.857 8.1017 106.141 8.1202C107.251 8.09146 108.351 8.34349 109.336 8.85264C110.137 9.25234 110.813 9.8612 111.292 10.6139V8.46737H113.904V22.8874H111.292V20.7451C110.815 21.5 110.138 22.1106 109.336 22.5105C108.351 23.0197 107.251 23.2717 106.141 23.243C104.845 23.2621 103.569 22.9204 102.459 22.2565ZM108.927 20.254C109.678 19.796 110.288 19.1431 110.691 18.3658C111.124 17.5312 111.342 16.6033 111.326 15.6647C111.34 14.7317 111.122 13.8098 110.691 12.9805C110.288 12.2018 109.678 11.5475 108.927 11.088C108.157 10.6239 107.271 10.3848 106.371 10.3979C105.482 10.3807 104.606 10.6173 103.848 11.0796C103.111 11.5356 102.52 12.1905 102.144 12.9678C101.742 13.8109 101.534 14.732 101.534 15.6647C101.534 16.5973 101.742 17.5184 102.144 18.3615C102.521 19.138 103.112 19.7926 103.848 20.2498C104.607 20.7101 105.482 20.9465 106.371 20.9314C107.27 20.9484 108.156 20.7136 108.927 20.254Z" fill="white"/>
<path d="M131.541 8.46737L122.486 29.0135H119.849L122.721 22.5868L116.499 8.46737H119.363L124.05 19.8095L128.827 8.46737H131.541Z" fill="white"/>
<path d="M136.612 2.70107L144.452 16.4098L152.284 2.70107H154.62V22.8874H151.956V7.99319L145.411 19.475H143.485L136.94 7.99319V22.8874H134.277V2.70107H136.612Z" fill="white"/>
<path d="M161.378 2.31157C161.54 2.47099 161.668 2.66186 161.753 2.87234C161.838 3.08281 161.878 3.3084 161.872 3.53511C161.878 3.76182 161.838 3.98741 161.753 4.19788C161.668 4.40835 161.54 4.59922 161.378 4.75865C161.213 4.92076 161.018 5.04792 160.802 5.13235C160.587 5.21679 160.356 5.25674 160.125 5.24976C159.899 5.24977 159.676 5.20528 159.468 5.11885C159.26 5.03243 159.071 4.90579 158.912 4.74629C158.754 4.58678 158.628 4.39759 158.544 4.18968C158.46 3.98177 158.418 3.75927 158.421 3.53511C158.425 3.19383 158.53 2.86141 158.723 2.57903C158.916 2.29664 159.188 2.0767 159.506 1.94646C159.824 1.81621 160.173 1.78138 160.51 1.84628C160.847 1.91118 161.158 2.07295 161.403 2.31157H161.378ZM158.821 22.9128V8.46737H161.433V22.9128H158.821Z" fill="white"/>
<path d="M168.161 8.46737V10.6604C168.62 9.92409 169.26 9.31526 170.019 8.89074C170.952 8.34807 172.02 8.07669 173.1 8.1075C174.157 8.09274 175.198 8.36345 176.113 8.89074C177.002 9.4114 177.721 10.1758 178.184 11.0923C178.693 12.1317 178.944 13.2771 178.917 14.4327V22.8874H176.305V14.8984C176.305 13.4561 175.971 12.344 175.303 11.5622C174.96 11.1699 174.532 10.8604 174.05 10.6572C173.569 10.454 173.047 10.3624 172.525 10.3895C171.725 10.3793 170.943 10.6225 170.292 11.0838C169.627 11.5613 169.093 12.1976 168.741 12.9339C168.36 13.7105 168.165 14.5638 168.17 15.4276V22.8874H165.558V8.46737H168.161Z" fill="white"/>
<path d="M190 10.7663H186.778V22.8874H184.166V10.7663H180.945V8.46737H184.166V4.08972H186.778V8.46737H190V10.7663Z" fill="white"/>
<path d="M62.7836 15.0001C62.783 12.2787 62.0373 9.60867 60.6264 7.27612C59.2154 4.94356 57.1923 3.03633 54.7739 1.75874C52.3554 0.48115 49.6327 -0.118665 46.8974 0.0235512C44.1621 0.165767 41.5172 1.04465 39.2462 2.56607C36.9752 4.08748 35.1635 6.19408 34.0053 8.66022C32.8471 11.1264 32.3859 13.8591 32.6713 16.5657C32.9566 19.2723 33.9777 21.8508 35.6251 24.0249C37.2725 26.1991 39.4842 27.887 42.0233 28.9078V20.7198C42.0349 20.5936 42.0936 20.4763 42.1878 20.3909C42.282 20.3055 42.4049 20.2581 42.5325 20.2581C42.66 20.2581 42.783 20.3055 42.8772 20.3909C42.9714 20.4763 43.0301 20.5936 43.0417 20.7198V29.2761C46.0619 30.2415 49.3108 30.2415 52.331 29.2761V20.7198C52.3426 20.5936 52.4013 20.4763 52.4955 20.3909C52.5897 20.3055 52.7126 20.2581 52.8402 20.2581C52.9677 20.2581 53.0907 20.3055 53.1849 20.3909C53.2791 20.4763 53.3378 20.5936 53.3494 20.7198V28.9078C56.137 27.7864 58.5241 25.8637 60.2049 23.3859C61.8857 20.9081 62.7836 17.9881 62.7836 15.0001Z" fill="#F45F37"/>
<path d="M50.0001 10.0678C49.4369 10.0686 48.8813 10.1976 48.3761 10.4449C47.8708 10.6922 47.4293 11.0513 47.0855 11.4946C46.6521 11.0997 46.1124 10.8386 45.5322 10.7432C44.952 10.6479 44.3565 10.7223 43.8182 10.9575C43.2798 11.1927 42.8221 11.5785 42.5006 12.0678C42.1792 12.5571 42.0081 13.1288 42.0081 13.713C42.0081 14.2973 42.1792 14.869 42.5006 15.3583C42.8221 15.8475 43.2798 16.2333 43.8182 16.4685C44.3565 16.7037 44.952 16.7782 45.5322 16.6828C46.1124 16.5875 46.6521 16.3264 47.0855 15.9315C47.4647 16.4251 47.9644 16.8144 48.5374 17.0626C49.1103 17.3108 49.7375 17.4096 50.3596 17.3497C50.9817 17.2898 51.5781 17.0732 52.0924 16.7203C52.6067 16.3675 53.0219 15.89 53.2987 15.3333C53.5754 14.7765 53.7046 14.1587 53.674 13.5385C53.6434 12.9183 53.454 12.316 53.1237 11.7888C52.7934 11.2616 52.3332 10.8269 51.7866 10.5257C51.24 10.2245 50.6251 10.0669 50.0001 10.0678Z" fill="white"/>
<path d="M50.0001 15.0509C50.372 15.0509 50.6734 14.7514 50.6734 14.382C50.6734 14.0125 50.372 13.713 50.0001 13.713C49.6283 13.713 49.3269 14.0125 49.3269 14.382C49.3269 14.7514 49.6283 15.0509 50.0001 15.0509Z" fill="black"/>
<path d="M45.0444 15.0509C45.4163 15.0509 45.7177 14.7514 45.7177 14.382C45.7177 14.0125 45.4163 13.713 45.0444 13.713C44.6726 13.713 44.3712 14.0125 44.3712 14.382C44.3712 14.7514 44.6726 15.0509 45.0444 15.0509Z" fill="black"/>
<path d="M15.0844 15.5035C15.0844 15.3384 15.0844 15.169 15.0844 14.9997C15.0844 14.8303 15.0844 14.661 15.0844 14.4959H30.1859C30.0991 11.9069 29.3388 9.38443 27.9791 7.17423C26.6194 4.96403 24.7066 3.14148 22.4271 1.88416C20.1476 0.626847 17.5792 -0.0223539 14.9721 -0.000183023C12.3651 0.0219878 9.80822 0.714775 7.55074 2.01067C5.2558 0.691816 2.65118 -0.00188092 0 -0.00033352V29.9997C2.65147 30.0034 5.25666 29.3096 7.55074 27.9887C9.80822 29.2846 12.3651 29.9773 14.9721 29.9995C17.5792 30.0217 20.1476 29.3725 22.4271 28.1152C24.7066 26.8578 26.6194 25.0353 27.9791 22.8251C29.3388 20.6149 30.0991 18.0924 30.1859 15.5035H15.0844Z" fill="#FFB133"/>
<path d="M13.3246 9.6144C13.195 8.95861 13.2756 8.27896 13.555 7.67104C13.8344 7.06312 14.2986 6.55749 14.8822 6.22527C15.4658 5.89304 16.1396 5.75092 16.8088 5.8189C17.4779 5.88688 18.1088 6.16153 18.6127 6.60424C19.0083 6.07884 19.5874 5.71943 20.2362 5.59662C20.9278 5.46412 21.6441 5.61003 22.2274 6.00226C22.8108 6.39448 23.2134 7.00088 23.3468 7.68807C23.4801 8.37525 23.3333 9.08692 22.9385 9.66652C22.5438 10.2461 21.9334 10.6462 21.2418 10.7787C20.5954 10.9067 19.9241 10.7873 19.3626 10.4442C19.1398 10.8787 18.8202 11.2571 18.4281 11.5506C18.0361 11.844 17.5818 12.0448 17.1 12.1377C16.8962 12.1761 16.6894 12.1959 16.4821 12.197C15.7353 12.195 15.0123 11.9357 14.4364 11.4631C13.8606 10.9906 13.4676 10.3342 13.3246 9.60593V9.6144Z" fill="white"/>
<path d="M17.5815 9.52549C17.9886 9.52549 18.3186 9.19757 18.3186 8.79306C18.3186 8.38855 17.9886 8.06063 17.5815 8.06063C17.1743 8.06063 16.8443 8.38855 16.8443 8.79306C16.8443 9.19757 17.1743 9.52549 17.5815 9.52549Z" fill="black"/>
<path d="M22.0045 9.12329C22.3293 9.12329 22.5926 8.86171 22.5926 8.53904C22.5926 8.21637 22.3293 7.95479 22.0045 7.95479C21.6798 7.95479 21.4165 8.21637 21.4165 8.53904C21.4165 8.86171 21.6798 9.12329 22.0045 9.12329Z" fill="black"/>
</g>
<defs>
<clipPath id="clip0_1311_361">
<rect width="190" height="30" fill="white"/>
</clipPath>
</defs>
</svg>
