<svg width="210" height="180" viewBox="0 0 210 180" fill="#F0F1F3" xmlns="http://www.w3.org/2000/svg">
<g clip-path="url(#clip0_345_853)">
<path d="M33.0915 140.979H45.1829L40.4087 74.386H27.7922L23.0181 140.93L33.0915 140.979Z" />
<path d="M26.0693 68.3812V71.6625L27.71 73.6805H40.4905L42.1311 71.6625V68.3812H26.0693Z" />
<path d="M43.4929 66.5602C43.4929 66.2426 43.3667 65.9379 43.1421 65.7133C42.9175 65.4887 42.6129 65.3625 42.2953 65.3625H25.889C25.5714 65.3625 25.2668 65.4887 25.0422 65.7133C24.8176 65.9379 24.6914 66.2426 24.6914 66.5602C24.6914 66.8778 24.8176 67.1825 25.0422 67.4071C25.2668 67.6317 25.5714 67.7579 25.889 67.7579H42.2953C42.6129 67.7579 42.9175 67.6317 43.1421 67.4071C43.3667 67.1825 43.4929 66.8778 43.4929 66.5602V66.5602Z" />
<path d="M19.9829 143.571V146.213C19.9829 146.697 20.1742 147.162 20.5152 147.506C20.8563 147.85 21.3195 148.046 21.804 148.05H46.4134C46.9007 148.05 47.368 147.856 47.7126 147.512C48.0572 147.167 48.2508 146.7 48.2508 146.213V143.571C48.2508 143.33 48.2033 143.091 48.111 142.868C48.0186 142.645 47.8832 142.442 47.7126 142.272C47.542 142.101 47.3394 141.966 47.1165 141.874C46.8936 141.781 46.6547 141.734 46.4134 141.734H21.804C21.3195 141.738 20.8563 141.933 20.5152 142.278C20.1742 142.622 19.9829 143.087 19.9829 143.571V143.571Z" />
<path d="M80.3582 140.979H92.4496L87.6753 74.386H75.1082L70.334 140.93L80.3582 140.979Z" />
<path d="M73.3359 68.3812V71.6625L74.9766 73.6805H87.7571L89.3977 71.6625V68.3812H73.3359Z" />
<path d="M90.7595 66.5602C90.7595 66.2426 90.6333 65.9379 90.4087 65.7133C90.1841 65.4887 89.8795 65.3625 89.5619 65.3625H73.1556C72.838 65.3625 72.5334 65.4887 72.3088 65.7133C72.0842 65.9379 71.958 66.2426 71.958 66.5602C71.958 66.8778 72.0842 67.1825 72.3088 67.4071C72.5334 67.6317 72.838 67.7579 73.1556 67.7579H89.5619C89.8795 67.7579 90.1841 67.6317 90.4087 67.4071C90.6333 67.1825 90.7595 66.8778 90.7595 66.5602V66.5602Z" />
<path d="M67.249 143.571V146.213C67.249 146.697 67.4403 147.162 67.7813 147.506C68.1224 147.85 68.5856 148.046 69.0701 148.05H93.6795C94.1668 148.05 94.6341 147.856 94.9787 147.512C95.3233 147.167 95.517 146.7 95.517 146.213V143.571C95.517 143.33 95.4694 143.091 95.3771 142.868C95.2847 142.645 95.1494 142.442 94.9787 142.272C94.8081 142.101 94.6056 141.966 94.3826 141.874C94.1597 141.781 93.9208 141.734 93.6795 141.734H69.0701C68.5856 141.738 68.1224 141.933 67.7813 142.278C67.4403 142.622 67.249 143.087 67.249 143.571V143.571Z" />
<path d="M127.608 140.979H139.699L134.925 74.386H122.325L117.534 140.93L127.608 140.979Z" />
<path d="M120.586 68.3812V71.6625L122.227 73.6805H135.024L136.664 71.6625V68.3812H120.586Z" />
<path d="M138.026 66.5602C138.026 66.2426 137.899 65.9379 137.675 65.7133C137.45 65.4887 137.146 65.3625 136.828 65.3625H120.422C120.104 65.3625 119.8 65.4887 119.575 65.7133C119.35 65.9379 119.224 66.2426 119.224 66.5602C119.224 66.8778 119.35 67.1825 119.575 67.4071C119.8 67.6317 120.104 67.7579 120.422 67.7579H136.828C137.146 67.7579 137.45 67.6317 137.675 67.4071C137.899 67.1825 138.026 66.8778 138.026 66.5602V66.5602Z" />
<path d="M114.483 143.571V146.213C114.483 146.697 114.674 147.162 115.015 147.506C115.356 147.85 115.82 148.046 116.304 148.05H140.913C141.398 148.046 141.861 147.85 142.202 147.506C142.543 147.162 142.735 146.697 142.734 146.213V143.571C142.735 143.087 142.543 142.622 142.202 142.278C141.861 141.933 141.398 141.738 140.913 141.734H116.304C116.064 141.734 115.825 141.781 115.603 141.874C115.381 141.966 115.18 142.102 115.01 142.273C114.841 142.444 114.707 142.646 114.617 142.869C114.526 143.092 114.481 143.331 114.483 143.571Z" />
<path d="M174.891 140.979H186.982L182.191 74.386H169.591L164.801 140.93L174.891 140.979Z" />
<path d="M167.853 68.3812V71.6625L169.493 73.6805H182.29L183.931 71.6625V68.3812H167.853Z" />
<path d="M185.276 66.5601C185.278 66.4022 185.249 66.2455 185.189 66.0992C185.13 65.9529 185.042 65.82 184.93 65.7084C184.818 65.5967 184.685 65.5086 184.539 65.4491C184.393 65.3897 184.236 65.3603 184.078 65.3625H167.672C167.514 65.3603 167.357 65.3897 167.211 65.4491C167.065 65.5086 166.932 65.5967 166.82 65.7084C166.708 65.82 166.62 65.9529 166.561 66.0992C166.501 66.2455 166.472 66.4022 166.474 66.5601C166.474 66.7174 166.505 66.8732 166.565 67.0185C166.626 67.1638 166.714 67.2958 166.825 67.407C166.936 67.5182 167.068 67.6065 167.214 67.6666C167.359 67.7268 167.515 67.7578 167.672 67.7578H184.078C184.396 67.7578 184.7 67.6316 184.925 67.407C185.15 67.1824 185.276 66.8778 185.276 66.5601V66.5601Z" />
<path d="M161.766 143.571V146.213C161.766 146.7 161.959 147.167 162.304 147.512C162.649 147.856 163.116 148.05 163.603 148.05H188.213C188.683 148.025 189.125 147.82 189.449 147.478C189.772 147.136 189.953 146.683 189.952 146.213V143.571C189.952 143.33 189.904 143.091 189.812 142.868C189.72 142.645 189.584 142.442 189.414 142.272C189.243 142.101 189.04 141.966 188.818 141.874C188.595 141.781 188.356 141.734 188.114 141.734H163.505C163.264 141.734 163.025 141.781 162.802 141.874C162.579 141.966 162.376 142.101 162.206 142.272C162.035 142.442 161.9 142.645 161.807 142.868C161.715 143.091 161.667 143.33 161.667 143.571H161.766Z" />
<path d="M202.962 169.723V160.388H198.155V151.069H11.8454V160.388H7.03835V169.723H0V179.041H210V169.723H202.962Z" />
<path d="M201.272 62.4094V43.493L105 0L8.72803 43.493V62.4094H201.272Z" />
</g>
<defs>
<clipPath id="clip0_345_853">
<rect width="210" height="179.041" fill="white"/>
</clipPath>
</defs>
</svg>
