<svg width="202" height="40" viewBox="0 0 202 40" fill="none" xmlns="http://www.w3.org/2000/svg">
<g clip-path="url(#clip0_389_1761)">
<path d="M49.8003 6.60108H56.8339C61.5842 6.60108 65.2311 8.24798 65.2311 13.314C65.2311 18.192 61.5528 20.3894 56.9505 20.3894H54.0841V27.9974H49.8003V6.60108ZM56.6634 16.9971C59.615 16.9971 61.0325 15.753 61.0325 13.3006C61.0325 10.8481 59.467 9.97991 56.5154 9.97991H54.0841V16.9971H56.6634Z" fill="#2A2B2B"/>
<path d="M68.4115 6.60108H81.5546V10.1544H72.6953V15.0772H80.2223V18.6575H72.6953V24.3769H81.873V27.9571H68.4159L68.4115 6.60108Z" fill="#2A2B2B"/>
<path d="M97.1872 27.9705L92.7867 19.8837H89.7858V27.9705H85.502V6.60108H92.9707C97.4564 6.60108 101.018 8.15847 101.018 13.0678C101.018 16.2766 99.3987 18.2681 96.936 19.2213L101.942 27.9705H97.1872ZM89.7858 16.5049H92.5669C95.3167 16.5049 96.8194 15.3502 96.8194 13.0678C96.8194 10.7855 95.3167 9.97991 92.5669 9.97991H89.7858V16.5049Z" fill="#2A2B2B"/>
<path d="M110.617 6.71744H117.072C121.818 6.71744 125.205 8.33301 125.205 13.126C125.205 17.7758 121.818 19.915 117.189 19.915H113.973V27.9705H110.617V6.71744ZM116.87 17.2299C120.284 17.2299 121.903 15.9275 121.903 13.126C121.903 10.3245 120.141 9.4026 116.754 9.4026H113.973V17.2299H116.87Z" fill="#2A2B2B"/>
<path d="M128.363 12.0878H131.086L131.346 14.9475H131.431C132.561 12.8978 134.239 11.685 135.948 11.685C136.565 11.6581 137.18 11.7761 137.742 12.0296L137.137 14.9161C136.625 14.7406 136.086 14.6528 135.544 14.6566C134.239 14.6566 132.678 15.5516 131.664 18.0667V27.9705H128.363V12.0878Z" fill="#2A2B2B"/>
<path d="M138.056 20.0582C138.056 14.7461 141.618 11.685 145.552 11.685C149.486 11.685 153.034 14.7461 153.034 20.0582C153.034 25.3704 149.473 28.3464 145.534 28.3464C141.596 28.3464 138.056 25.3122 138.056 20.0582ZM149.634 20.0582C149.634 16.6794 148.073 14.4283 145.552 14.4283C143.031 14.4283 141.515 16.666 141.515 20.0582C141.515 23.4505 143.08 25.6299 145.552 25.6299C148.024 25.6299 149.634 23.4057 149.634 20.0582Z" fill="#2A2B2B"/>
<path d="M152.357 34.3836L152.962 31.8998C153.423 32.0474 153.901 32.1347 154.384 32.1594C155.887 32.1594 156.291 31.0898 156.291 29.2146V12.0878H159.624V29.1565C159.624 32.4771 158.35 34.8132 154.815 34.8132C153.976 34.8262 153.142 34.6804 152.357 34.3836ZM155.829 7.14706C155.829 5.96559 156.726 5.18689 157.942 5.18689C159.157 5.18689 160.086 5.96559 160.086 7.14706C160.086 8.32853 159.157 9.11171 157.942 9.11171C157.671 9.13143 157.4 9.09522 157.144 9.00536C156.888 8.91549 156.654 8.7739 156.455 8.58947C156.257 8.40503 156.099 8.18171 155.991 7.93351C155.883 7.68531 155.828 7.41757 155.829 7.14706Z" fill="#2A2B2B"/>
<path d="M162.777 20.0582C162.777 14.8893 166.307 11.685 170.044 11.685C174.269 11.685 176.526 14.7147 176.526 19.2213C176.532 19.7826 176.484 20.3431 176.382 20.8951H166.043C166.303 23.9293 168.214 25.7463 170.977 25.7463C172.332 25.7387 173.653 25.3272 174.772 24.5648L175.929 26.6727C174.341 27.7514 172.467 28.334 170.546 28.3464C166.222 28.3464 162.777 25.2854 162.777 20.0582ZM173.668 18.6127C173.668 15.8694 172.426 14.2806 170.111 14.2806C168.111 14.2806 166.348 15.8112 166.029 18.6127H173.668Z" fill="#2A2B2B"/>
<path d="M178.437 20.0582C178.437 14.7461 182.115 11.685 186.309 11.685C188.037 11.6804 189.703 12.3297 190.97 13.5019L189.319 15.668C188.561 14.8992 187.533 14.4546 186.453 14.4283C183.793 14.4283 181.882 16.666 181.882 20.0582C181.882 23.4505 183.703 25.6299 186.367 25.6299C187.659 25.5757 188.89 25.065 189.839 24.1889L191.185 26.3818C189.767 27.6455 187.932 28.3448 186.031 28.3464C181.743 28.3464 178.437 25.3122 178.437 20.0582Z" fill="#2A2B2B"/>
<path d="M194.038 22.7747V14.7461H191.723V12.2623L194.181 12.0878L194.558 7.69752H197.366V12.0878H201.507V14.7461H197.366V22.8016C197.366 24.708 198.035 25.6881 199.685 25.6881C200.272 25.671 200.851 25.5435 201.39 25.3122L202 27.7691C200.99 28.1238 199.931 28.3186 198.86 28.3464C195.285 28.3464 194.038 26.1222 194.038 22.7747Z" fill="#2A2B2B"/>
<path fill-rule="evenodd" clip-rule="evenodd" d="M36.1458 18.0309C36.1458 27.9891 28.0543 36.0618 18.0729 36.0618C8.09151 36.0618 0 27.9891 0 18.0309C0 8.0727 8.09151 0 18.0729 0C28.0543 0 36.1458 8.0727 36.1458 18.0309Z" fill="url(#paint0_linear_389_1761)"/>
<path opacity="0.3" d="M0.0717773 16.2944C2.64611 14.2877 5.52266 12.7002 8.59461 11.5909C13.2687 9.88137 18.674 9.11609 22.9488 11.3537C23.9695 11.8832 24.862 12.6285 25.564 13.5377C26.2804 14.3326 26.8024 15.2823 27.0891 16.3123C27.3322 17.3869 27.3581 18.4991 27.1654 19.5838C26.9785 20.6497 26.5672 21.664 25.9587 22.5598C24.6711 24.4373 22.8651 25.9017 20.7598 26.7755C18.9632 27.5577 17.0922 28.1574 15.1751 28.5656V15.7932C15.1793 15.5047 15.1263 15.2183 15.0194 14.9503C14.9124 14.6823 14.7534 14.438 14.5516 14.2313C14.1562 13.8374 13.6363 13.5923 13.0803 13.5377H11.9589V39.9865H12.0262C12.4337 40.0086 12.8415 39.947 13.2241 39.8053C13.6068 39.6636 13.9562 39.445 14.2506 39.163C14.5451 38.881 14.7783 38.5416 14.9358 38.166C15.0933 37.7903 15.1717 37.3863 15.1662 36.9791V32.4815C17.5211 31.855 20.3337 31.0942 22.3747 30.0022C23.6387 29.3327 24.8153 28.5105 25.878 27.5542C26.4219 27.0652 26.9244 26.5323 27.3807 25.961C27.8024 25.465 28.1665 24.923 28.4663 24.3454C29.1598 23.1814 29.5428 21.8594 29.5787 20.5057C29.6998 19.0467 29.6953 17.0776 29.2557 15.6545C28.8161 14.2313 28.381 12.8888 27.3852 11.8326C26.3754 10.7919 25.1509 9.98264 23.7966 9.46069C22.522 8.92841 21.1803 8.57304 19.8089 8.40452C18.4592 8.25676 17.0969 8.26577 15.7493 8.43137C13.1298 8.79057 10.5772 9.53089 8.17295 10.6287C5.24985 11.9176 2.53838 13.6391 0.130091 15.735L0.0717773 16.2944Z" fill="white"/>
<path d="M28.8072 14.6296C28.3769 13.2716 27.6474 12.0268 26.672 10.9868C25.6995 9.9849 24.5212 9.20478 23.218 8.69989C21.9851 8.18484 20.6871 7.84149 19.3603 7.67953C18.06 7.53721 16.7475 7.54472 15.4488 7.7019C9.62894 8.50329 4.24801 11.2332 0.170527 15.4531L0.116699 15.9722C2.55692 13.6961 5.41828 11.916 8.54084 10.7317C13.0265 9.08476 18.2613 8.34634 22.3837 10.5034C23.7169 11.2731 24.7891 12.4226 25.4629 13.8045C26.1367 15.1864 26.3812 16.7376 26.1651 18.2591C26.0311 19.2209 25.6782 20.1394 25.1334 20.9442C23.9268 22.7925 22.1774 23.7055 20.1005 24.6453C18.2264 25.4186 16.2699 25.9756 14.2691 26.3056V15.7887C14.2828 15.4802 14.2337 15.1721 14.1248 14.883C14.0159 14.5939 13.8494 14.3298 13.6354 14.1067C13.4214 13.8835 13.1643 13.7059 12.8797 13.5846C12.595 13.4633 12.2887 13.4007 11.9791 13.4007C11.6696 13.4007 11.3632 13.4633 11.0786 13.5846C10.7939 13.7059 10.5368 13.8835 10.3228 14.1067C10.1089 14.3298 9.94239 14.5939 9.83348 14.883C9.72458 15.1721 9.67549 15.4802 9.68918 15.7887V37.6639C9.67549 37.9724 9.72458 38.2805 9.83348 38.5696C9.94239 38.8587 10.1089 39.1228 10.3228 39.3459C10.5368 39.5691 10.7939 39.7467 11.0786 39.868C11.3632 39.9893 11.6696 40.0519 11.9791 40.0519C12.2887 40.0519 12.595 39.9893 12.8797 39.868C13.1643 39.7467 13.4214 39.5691 13.6354 39.3459C13.8494 39.1228 14.0159 38.8587 14.1248 38.5696C14.2337 38.2805 14.2828 37.9724 14.2691 37.6639V31.0673C16.651 30.4318 19.6878 29.6621 21.8409 28.5119C23.0598 27.8651 24.1955 27.0732 25.2232 26.1535C25.7469 25.6785 26.2314 25.1621 26.672 24.6095C27.107 24.0657 27.4999 23.4897 27.8473 22.8865C28.5767 21.6444 29.0352 20.2628 29.193 18.8319C29.3538 17.4196 29.2225 15.9893 28.8072 14.6296V14.6296Z" fill="url(#paint1_linear_389_1761)"/>
</g>
<defs>
<linearGradient id="paint0_linear_389_1761" x1="6.10504" y1="29.9709" x2="29.1392" y2="6.88308" gradientUnits="userSpaceOnUse">
<stop stop-color="#FFB200"/>
<stop offset="1" stop-color="#FC210D"/>
</linearGradient>
<linearGradient id="paint1_linear_389_1761" x1="5.88082" y1="38.5142" x2="12.565" y2="22.6382" gradientUnits="userSpaceOnUse">
<stop stop-color="#FFB200"/>
<stop offset="0.47" stop-color="white"/>
</linearGradient>
<clipPath id="clip0_389_1761">
<rect width="202" height="40" fill="white"/>
</clipPath>
</defs>
</svg>
