<svg width="100" height="100" viewBox="0 0 100 100" fill="none" xmlns="http://www.w3.org/2000/svg">
<path d="M81.9336 0H18.0664C8.08861 0 0 8.08861 0 18.0664V81.9336C0 91.9114 8.08861 100 18.0664 100H81.9336C91.9114 100 100 91.9114 100 81.9336V18.0664C100 8.08861 91.9114 0 81.9336 0Z" fill="url(#paint0_linear_1923_1852)"/>
<path d="M41.2187 37.8809C41.039 32.5313 34.4492 31.9453 34.4492 31.9453C25.3515 31.2637 19.1055 36.2461 19.1055 36.2461C29.8984 27.5625 39.1191 29.4473 39.1191 29.4473C47.5176 30.7852 47.5918 37.7657 47.5918 37.7657C47.9101 46.1973 39.2598 51.1719 39.2598 51.1719L36.9336 44.9414C41.8047 41.2442 41.2187 37.8809 41.2187 37.8809Z" fill="white"/>
<path d="M73.6406 44.1406C74.3075 44.1369 74.9722 44.217 75.6191 44.3789L66.8066 68.7891C66.6257 69.2911 66.3104 69.7338 65.8951 70.0689C65.4797 70.404 64.9804 70.6186 64.4514 70.6894C63.9225 70.7601 63.3843 70.6842 62.8955 70.47C62.4067 70.2558 61.9862 69.9115 61.6797 69.4746L56.2285 61.7012C56.2056 61.6717 56.1813 61.6436 56.1571 61.6156C56.1235 61.5768 56.09 61.5381 56.0606 61.4961L51.7188 55.2735L48.752 59.6485L42.1113 69.3711C41.7893 69.848 41.3419 70.2268 40.8183 70.4656C40.2947 70.7044 39.7154 70.794 39.1441 70.7245C38.5729 70.655 38.0319 70.4291 37.5809 70.0718C37.1298 69.7144 36.7862 69.2395 36.5879 68.6992L27.9824 45.6133C27.6185 44.6443 27.4516 43.6124 27.4915 42.5781C27.5314 41.5438 27.7773 40.5279 28.2149 39.5898C28.9759 37.9401 30.2881 36.6071 31.9258 35.8203L34.5215 42.6914L34.5996 42.8711C34.6445 42.9688 34.6875 43.0645 34.7266 43.1641L40.5859 58.8633L49.9219 45.1797C50.1126 44.8944 50.371 44.6608 50.674 44.4996C50.9769 44.3384 51.315 44.2547 51.6582 44.2559C52.0011 44.2518 52.3397 44.3321 52.6443 44.4898C52.9488 44.6475 53.2098 44.8777 53.4043 45.1602L62.832 58.6699L66.1719 49.4141C66.7299 47.878 67.7446 46.5493 69.0797 45.6067C70.4148 44.664 72.0063 44.1524 73.6406 44.1406Z" fill="white"/>
<defs>
<linearGradient id="paint0_linear_1923_1852" x1="7.58594" y1="92.4141" x2="86.1699" y2="13.8301" gradientUnits="userSpaceOnUse">
<stop stop-color="#FFB200"/>
<stop offset="0.13" stop-color="#FFAC01"/>
<stop offset="0.31" stop-color="#FF9B02"/>
<stop offset="0.52" stop-color="#FE7F05"/>
<stop offset="0.74" stop-color="#FD5808"/>
<stop offset="0.98" stop-color="#FC260D"/>
<stop offset="1" stop-color="#FC210D"/>
</linearGradient>
</defs>
</svg>
