<svg width="20" height="20" viewBox="0 0 20 20" fill="none" xmlns="http://www.w3.org/2000/svg">
<path d="M11.5 7H4C3.17275 7 2.5 7.67275 2.5 8.5V16C2.5 16.8273 3.17275 17.5 4 17.5H11.5C12.3273 17.5 13 16.8273 13 16V8.5C13 7.67275 12.3273 7 11.5 7Z" fill="#C0C2C9"/>
<path d="M16 2.5H8.5C8.10218 2.5 7.72064 2.65804 7.43934 2.93934C7.15804 3.22064 7 3.60218 7 4V5.5H13C13.3978 5.5 13.7794 5.65804 14.0607 5.93934C14.342 6.22064 14.5 6.60218 14.5 7V13H16C16.3978 13 16.7794 12.842 17.0607 12.5607C17.342 12.2794 17.5 11.8978 17.5 11.5V4C17.5 3.60218 17.342 3.22064 17.0607 2.93934C16.7794 2.65804 16.3978 2.5 16 2.5Z" fill="#C0C2C9"/>
</svg>
