<svg width="24" height="24" viewBox="0 0 24 24" fill="242424" xmlns="http://www.w3.org/2000/svg">
<path fill-rule="evenodd" clip-rule="evenodd" d="M5.72458 5H10.2754C10.6756 5 11 5.3244 11 5.72458V10.2754C11 10.6756 10.6756 11 10.2754 11H5.72458C5.3244 11 5 10.6756 5 10.2754V5.72458C5 5.3244 5.3244 5 5.72458 5ZM5.72458 13H10.2754C10.6756 13 11 13.3244 11 13.7246V18.2754C11 18.6756 10.6756 19 10.2754 19H5.72458C5.3244 19 5 18.6756 5 18.2754V13.7246C5 13.3244 5.3244 13 5.72458 13ZM18.2754 5H13.7246C13.3244 5 13 5.3244 13 5.72458V10.2754C13 10.6756 13.3244 11 13.7246 11H18.2754C18.6756 11 19 10.6756 19 10.2754V5.72458C19 5.3244 18.6756 5 18.2754 5ZM13.7246 13H18.2754C18.6756 13 19 13.3244 19 13.7246V18.2754C19 18.6756 18.6756 19 18.2754 19H13.7246C13.3244 19 13 18.6756 13 18.2754V13.7246C13 13.3244 13.3244 13 13.7246 13Z" />
</svg>
