<svg width="120" height="120" viewBox="0 0 120 120" fill="#E2E4E7" xmlns="http://www.w3.org/2000/svg">
<path d="M60 0C26.7188 0 0 26.9531 0 60C0 93.2812 26.7188 120 60 120C93.0469 120 120 93.2812 120 60C120 26.9531 93.0469 0 60 0ZM54.375 35.625C54.375 32.5781 56.7188 30 60 30C63.0469 30 65.625 32.5781 65.625 35.625V65.625C65.625 68.9062 63.0469 71.25 60 71.25C56.7188 71.25 54.375 68.9062 54.375 65.625V35.625ZM60 93.75C55.7812 93.75 52.5 90.4688 52.5 86.4844C52.5 82.5 55.7812 79.2188 60 79.2188C63.9844 79.2188 67.2656 82.5 67.2656 86.4844C67.2656 90.4688 63.9844 93.75 60 93.75Z"/>
</svg>
