<svg width="20" height="20" viewBox="0 0 20 20" fill="none" xmlns="http://www.w3.org/2000/svg">
<path d="M2.60457 6.15112C1.78758 7.7183 1.51975 9.44733 1.7439 11.107C3.43311 10.7126 5.83205 11.3067 8.10125 12.829C10.3692 14.3518 11.8284 16.3487 12.1027 18.0597C13.7232 17.6378 15.2242 16.7353 16.3636 15.3865C14.5344 13.8605 12.2151 12.1359 9.70118 10.448C7.177 8.75174 4.71897 7.26742 2.60457 6.15112Z" fill="#FFB133"/>
<path d="M18.2585 8.8911C16.568 9.28546 14.169 8.69263 11.8998 7.16977C9.63257 5.64755 8.1733 3.65069 7.8984 1.93835C6.0422 2.42007 4.34656 3.53957 3.16797 5.22878C5.30228 6.36113 7.77059 7.85316 10.3018 9.55265C12.8215 11.2431 15.1511 12.9754 17.0028 14.5175C18.121 12.7859 18.5135 10.7929 18.2585 8.8911V8.8911Z" fill="#FFB133"/>
<path d="M7.4999 13.7237C5.50111 12.3807 3.31798 11.8174 1.95312 12.1571C2.45539 14.0384 3.60958 15.7514 5.35274 16.9223C7.09526 18.0919 9.11975 18.5093 11.0511 18.2621C10.8481 16.8728 9.4987 15.0654 7.4999 13.7237V13.7237Z" fill="#F45F37"/>
<path d="M12.5004 6.2731C14.4992 7.61483 16.6823 8.17812 18.0459 7.84027C17.5424 5.95902 16.3901 4.24476 14.6482 3.07516C12.9025 1.90556 10.8806 1.48807 8.94922 1.73471C9.15218 3.12397 10.4997 4.93265 12.4998 6.2731H12.5004Z" fill="#F45F37"/>
</svg>
