<svg width="24" height="24" viewBox="0 0 24 24" fill="none" xmlns="http://www.w3.org/2000/svg">
<path d="M15.9317 9.60723L12.3184 5.14905C12.1573 4.95032 11.8425 4.95032 11.6814 5.14905L8.06852 9.60723C7.98816 9.70635 7.97805 9.80361 8.04049 9.88052C8.10256 9.95773 8.22589 10 8.38697 10H15.6132C15.7743 10 15.8972 9.95764 15.9597 9.88052C16.0217 9.80362 16.012 9.70635 15.9317 9.60723H15.9317Z" fill="#242424"/>
<path d="M8.06827 14.3928L11.6816 18.851C11.8427 19.0497 12.1575 19.0497 12.3186 18.851L15.9315 14.3928C16.0118 14.2937 16.0219 14.1964 15.9595 14.1195C15.8974 14.0423 15.7741 14 15.613 14L8.38679 14C8.22571 14 8.1028 14.0424 8.04031 14.1195C7.9783 14.1964 7.98798 14.2936 8.06833 14.3928L8.06827 14.3928Z" fill="#BFBBC3"/>
</svg>
