<svg width="24" height="24" viewBox="0 0 24 24" fill="#242424" xmlns="http://www.w3.org/2000/svg">
<path d="M14.8333 4.24841C14.6351 4.60349 14.4584 4.97018 14.3042 5.34651C12.7896 5.10698 11.2468 5.10698 9.73217 5.34651C9.57802 4.97018 9.40134 4.60349 9.20308 4.24841C7.77634 4.49219 6.38936 4.92877 5.08023 5.54616C2.73922 8.9246 1.67756 13.0262 2.08541 17.1161C3.61101 18.263 5.32326 19.1377 7.14665 19.7016C7.56184 19.1532 7.93239 18.5723 8.25473 17.9647C7.65983 17.7453 7.08804 17.4678 6.54768 17.1361C6.69589 17.0375 6.83608 16.9273 6.96696 16.8067C8.54269 17.5657 10.2692 17.9598 12.0182 17.9598C13.7672 17.9598 15.4937 17.5657 17.0695 16.8067C17.2092 16.9264 17.349 17.0363 17.4887 17.1361C16.9454 17.4652 16.3742 17.7458 15.7817 17.9746C16.0907 18.5961 16.4513 19.1905 16.8598 19.7516C18.6809 19.1896 20.3902 18.3146 21.9111 17.166C22.3287 13.0753 21.2662 8.97042 18.9163 5.59608C17.6218 4.96591 16.2486 4.51263 14.8333 4.24841ZM8.70395 14.7802C8.2044 14.7443 7.73816 14.5163 7.40312 14.144C7.06808 13.7718 6.89029 13.2842 6.90706 12.7836C6.88775 12.2824 7.06467 11.7934 7.40022 11.4206C7.73576 11.0478 8.20347 10.8205 8.70395 10.7871C9.20442 10.8205 9.67213 11.0478 10.0077 11.4206C10.3432 11.7934 10.5201 12.2824 10.5008 12.7836C10.5201 13.2848 10.3432 13.7738 10.0077 14.1467C9.67213 14.5195 9.20442 14.7468 8.70395 14.7802ZM15.3325 14.7802C14.8329 14.7443 14.3667 14.5163 14.0316 14.144C13.6966 13.7718 13.5188 13.2842 13.5356 12.7836C13.5163 12.2824 13.6932 11.7934 14.0287 11.4206C14.3643 11.0478 14.832 10.8205 15.3325 10.7871C15.8339 10.818 16.3031 11.0445 16.6391 11.4179C16.9752 11.7913 17.1512 12.2817 17.1294 12.7836C17.1512 13.2855 16.9752 13.7759 16.6391 14.1493C16.3031 14.5227 15.8339 14.7492 15.3325 14.7802Z" fill="#242424"/>
</svg>
