<svg width="24" height="24" viewBox="0 0 24 24" fill="242424" xmlns="http://www.w3.org/2000/svg">
<path fill-rule="evenodd" clip-rule="evenodd" d="M4.23695 9.07112C3.92102 8.7557 3.92102 8.2443 4.23695 7.92888L6.93358 5.23657C7.24951 4.92114 7.76173 4.92114 8.07766 5.23657C8.39359 5.55199 8.39359 6.06339 8.07766 6.37882L6.76206 7.69231H10.2022C10.649 7.69231 11.0112 8.05392 11.0112 8.5C11.0112 8.94608 10.649 9.30769 10.2022 9.30769H6.76206L8.07766 10.6212C8.39359 10.9366 8.39359 11.448 8.07766 11.7634C7.76173 12.0789 7.24951 12.0789 6.93358 11.7634L4.23695 9.07112ZM13.7978 7.69231H14.6966C15.1434 7.69231 15.5056 8.05392 15.5056 8.5C15.5056 8.94608 15.1434 9.30769 14.6966 9.30769H13.7978C13.351 9.30769 12.9888 8.94608 12.9888 8.5C12.9888 8.05392 13.351 7.69231 13.7978 7.69231ZM18.2921 7.69231H19.191C19.6378 7.69231 20 8.05392 20 8.5C20 8.94608 19.6378 9.30769 19.191 9.30769H18.2921C17.8453 9.30769 17.4831 8.94608 17.4831 8.5C17.4831 8.05392 17.8453 7.69231 18.2921 7.69231Z" />
<path fill-rule="evenodd" clip-rule="evenodd" d="M19.7631 14.9289C20.079 15.2443 20.079 15.7557 19.7631 16.0711L17.0664 18.7634C16.7505 19.0789 16.2383 19.0789 15.9223 18.7634C15.6064 18.448 15.6064 17.9366 15.9223 17.6212L17.2379 16.3077H13.7978C13.351 16.3077 12.9888 15.9461 12.9888 15.5C12.9888 15.0539 13.351 14.6923 13.7978 14.6923H17.2379L15.9223 13.3788C15.6064 13.0634 15.6064 12.552 15.9223 12.2366C16.2383 11.9211 16.7505 11.9211 17.0664 12.2366L19.7631 14.9289ZM10.2022 16.3077H9.30337C8.85658 16.3077 8.49438 15.9461 8.49438 15.5C8.49438 15.0539 8.85658 14.6923 9.30337 14.6923H10.2022C10.649 14.6923 11.0112 15.0539 11.0112 15.5C11.0112 15.9461 10.649 16.3077 10.2022 16.3077ZM5.70787 16.3077H4.80899C4.3622 16.3077 4 15.9461 4 15.5C4 15.0539 4.3622 14.6923 4.80899 14.6923H5.70787C6.15466 14.6923 6.51685 15.0539 6.51685 15.5C6.51685 15.9461 6.15466 16.3077 5.70787 16.3077Z" />
</svg>
