<svg width="24" height="24" viewBox="0 0 24 24" fill="242424" xmlns="http://www.w3.org/2000/svg">
<path d="M11.3333 12.9003V21H7.77778C7.3984 21 7.02274 20.9243 6.67225 20.7774C6.32175 20.6304 6.00328 20.4149 5.73502 20.1433C5.46677 19.8717 5.25397 19.5493 5.10879 19.1944C4.96361 18.8395 4.88889 18.4592 4.88889 18.0751V12.9003H11.3333ZM19.1111 12.9003V18.0751C19.1111 18.4592 19.0364 18.8395 18.8912 19.1944C18.746 19.5493 18.5332 19.8717 18.265 20.1433C17.9967 20.4149 17.6782 20.6304 17.3278 20.7774C16.9773 20.9243 16.6016 21 16.2222 21H12.6667V12.9003H19.1111ZM14.2222 3.00059C14.7406 3.00048 15.2494 3.14158 15.6954 3.40911C16.1414 3.67663 16.508 4.06072 16.7569 4.52109C17.0058 4.98145 17.1278 5.50115 17.11 6.02566C17.0923 6.55018 16.9354 7.0602 16.656 7.50224L18.8889 7.50044C19.5022 7.50044 20 7.91983 20 8.43821V11.0625C20 11.5809 19.5022 12.0003 18.8889 12.0003L12.6667 11.9994V7.50044H11.3333V11.9994L5.11111 12.0003C4.49778 12.0003 4 11.5809 4 11.0625V8.43821C4 7.91983 4.49778 7.50044 5.11111 7.50044L7.344 7.50224C6.9474 6.87519 6.80194 6.11861 6.93726 5.38672C7.07258 4.65484 7.4785 4.00276 8.07226 3.56342C8.66603 3.12408 9.40294 2.93055 10.1328 3.02229C10.8626 3.11404 11.5304 3.48414 12 4.05715C12.2706 3.72614 12.6102 3.45977 12.9943 3.27712C13.3785 3.09446 13.7978 3.00003 14.2222 3.00059ZM9.77778 4.35054C9.37643 4.35072 8.99068 4.50796 8.70117 4.78938C8.41165 5.0708 8.24077 5.45463 8.22424 5.86064C8.20771 6.26664 8.34682 6.6634 8.61248 6.96799C8.87815 7.27258 9.24981 7.46142 9.64978 7.49504L9.77778 7.50044H11.3333V5.92549L11.328 5.79589C11.2959 5.40198 11.1186 5.03469 10.8315 4.76694C10.5443 4.49919 10.1682 4.35056 9.77778 4.35054ZM14.2222 4.35054C13.8097 4.35054 13.414 4.51647 13.1223 4.81183C12.8306 5.10719 12.6667 5.50779 12.6667 5.92549V7.50044H14.2222C14.6348 7.50044 15.0304 7.33451 15.3222 7.03915C15.6139 6.74379 15.7778 6.34319 15.7778 5.92549C15.7778 5.50779 15.6139 5.10719 15.3222 4.81183C15.0304 4.51647 14.6348 4.35054 14.2222 4.35054Z" />
</svg>
