<svg width="32" height="32" viewBox="0 0 32 32" fill="none" xmlns="http://www.w3.org/2000/svg">
<rect width="32" height="32" rx="16" fill="#CE0F3D"/>
<path d="M16 18.6667C16.35 18.6667 16.7 18.5333 16.95 18.2833C17.2 18.0333 17.3333 17.7 17.3333 17.3333V9.33333C17.3333 8.98333 17.2 8.63333 16.95 8.38333C16.7 8.13333 16.3667 8 16 8C15.6333 8 15.3 8.13333 15.05 8.38333C14.8 8.63333 14.6667 8.96667 14.6667 9.33333V17.3333C14.6667 17.6833 14.8 18.0333 15.05 18.2833C15.3 18.5333 15.6333 18.6667 16 18.6667Z" fill="white"/>
<path d="M16 20C15.4667 20 14.9667 20.2167 14.5833 20.5833C14.2 20.95 14 21.4667 14 22C14 22.5333 14.2167 23.0333 14.5833 23.4167C14.95 23.8 15.4667 24 16 24C16.5333 24 17.0333 23.7833 17.4167 23.4167C17.8 23.0333 18 22.5333 18 22C18 21.4667 17.7833 20.9667 17.4167 20.5833C17.0333 20.2 16.5333 20 16 20Z" fill="white"/>
</svg>
