<svg width="32" height="32" viewBox="0 0 32 32" fill="none" xmlns="http://www.w3.org/2000/svg">
<rect width="32" height="32" rx="16" fill="#03A66D"/>
<path d="M14.309 21C14.1514 21.0003 13.9953 20.9692 13.8496 20.9084C13.7039 20.8477 13.5716 20.7585 13.4601 20.6459L8.36713 15.5007C8.25239 15.3889 8.16083 15.2552 8.0978 15.1073C8.03478 14.9594 8.00155 14.8003 8.00005 14.6393C7.99856 14.4783 8.02882 14.3186 8.08909 14.1695C8.14935 14.0205 8.2384 13.885 8.35105 13.7711C8.4637 13.6571 8.59769 13.567 8.74519 13.5059C8.8927 13.4448 9.05077 13.414 9.21019 13.4153C9.36961 13.4166 9.52717 13.4499 9.6737 13.5134C9.82022 13.5768 9.95277 13.6691 10.0636 13.7849L14.3078 18.0715L21.9497 10.3555C22.1748 10.128 22.4802 10.0001 22.7987 10C23.1172 9.99989 23.4227 10.1276 23.648 10.3549C23.8733 10.5823 23.9999 10.8908 24 11.2124C24.0001 11.5341 23.8737 11.8427 23.6486 12.0702L15.1578 20.6459C15.0464 20.7585 14.914 20.8477 14.7684 20.9084C14.6227 20.9692 14.4666 21.0003 14.309 21Z" fill="white"/>
</svg>
