<svg width="106" height="110" viewBox="0 0 106 110" fill="none" xmlns="http://www.w3.org/2000/svg">
<g clip-path="url(#clip0_160_1172)">
<path d="M52.6765 0L0.178589 27.5021V82.5021L52.6765 110L105.179 82.481V27.5021L52.6765 0Z" fill="#1E1E1E"/>
<path d="M55.6385 4.91472L102.217 29.3108V77.5578L69.0666 60.126L55.6385 73.6362V4.91472Z" fill="#FFB200"/>
<path d="M86.0617 35.1891C86.0617 33.672 86.944 32.7931 88.2045 32.7931H88.2087C88.7936 32.8035 89.3683 32.948 89.8893 33.2156C91.9984 34.2552 93.7085 36.8288 93.7085 38.9417C93.7085 39.1443 93.6926 39.3356 93.6622 39.5149C93.5673 40.103 93.3126 40.597 92.8905 40.93C92.2018 41.4733 91.2055 41.4793 90.1741 41.0493C90.1486 41.0388 90.1233 41.028 90.098 41.0169C89.2038 40.6261 88.2882 39.9106 87.528 38.9358C87.2448 38.5726 87.0014 38.1969 86.7991 37.8185C86.3354 36.9534 86.0617 36.0344 86.0617 35.1891Z" fill="#1E1E1E"/>
<path d="M86.0617 54.5817C86.0617 53.0646 86.944 52.1856 88.2045 52.1856H88.2087C88.7936 52.196 89.3683 52.3405 89.8893 52.6082C91.9984 53.6477 93.7085 56.2213 93.7085 58.3343C93.7085 58.5011 93.6977 58.6602 93.677 58.8114C93.5949 59.4413 93.336 59.9707 92.8914 60.3216C92.2127 60.857 91.2352 60.8706 90.2198 60.4593C90.1375 60.4267 90.0561 60.3911 89.976 60.3527C89.6769 60.2124 89.3763 60.0362 89.0808 59.8265C87.3543 58.604 86.0617 56.4187 86.0617 54.5817Z" fill="#1E1E1E"/>
<path d="M79.167 27.2698C76.415 25.833 73.7261 24.654 70.6379 25.7147C67.4658 26.8049 65.344 29.5687 64.5794 32.7888C62.6677 40.818 68.6254 49.198 74.9865 53.3351C78.5032 55.6213 81.7636 49.9544 78.2637 47.6978C74.8437 45.4749 71.9194 41.7815 70.9993 37.7458C70.638 36.1611 70.4657 33.5537 71.8858 32.3662C73.2345 31.2379 75.2974 31.5802 76.6503 32.2817C80.3518 34.2129 82.8811 29.201 79.1712 27.2698H79.167Z" fill="#1E1E1E"/>
</g>
<defs>
<clipPath id="clip0_160_1172">
<rect width="105" height="110" fill="white" transform="translate(0.178589)"/>
</clipPath>
</defs>
</svg>
