<svg width="24" height="24" viewBox="0 0 24 24" fill="none" xmlns="http://www.w3.org/2000/svg">
<g clip-path="url(#clip0_3200_3614)">
<path d="M4.02177 16.8289C4.01557 13.5834 3.98462 10.3395 4.01093 7.09399C4.02641 5.26152 5.33885 4.01099 7.16821 4.00635C10.6969 3.99706 14.2257 4.00016 17.7544 4.00635C18.9724 4.0079 19.3655 4.65019 18.8316 5.76607C17.9664 7.57532 17.0796 9.37373 16.2175 11.1845C16.0891 11.4554 16.0349 11.7618 15.9467 12.0512C15.6573 12.5558 15.3307 13.0433 15.0877 13.5695C14.4903 14.8634 13.4766 15.4484 12.0821 15.4484C10.2543 15.4484 8.42494 15.5088 6.60021 15.4298C5.4023 15.3772 4.56036 15.7672 4.02331 16.8289H4.02177ZM12.7244 10.3039C13.3512 10.3008 13.9084 9.84268 13.9084 9.33194C13.9084 8.81347 13.3652 8.36773 12.7306 8.36154C12.0868 8.35535 11.5652 8.78561 11.5621 9.3273C11.559 9.85816 12.0945 10.3085 12.726 10.3039H12.7244Z" fill="#1C68FE"/>
<path d="M4.02156 16.8287C4.55861 15.767 5.40055 15.377 6.59846 15.4296C8.42319 15.5101 10.2526 15.4482 12.0804 15.4482C13.4748 15.4482 14.4886 14.8616 15.086 13.5693C15.329 13.0431 15.6555 12.5556 15.9449 12.051C16.1988 12.3652 16.4774 12.6639 16.7002 12.9982C17.7403 14.5598 18.7865 16.1168 19.7724 17.7109C19.9689 18.0297 20.0866 18.6148 19.9225 18.8841C19.7321 19.1952 19.1935 19.4521 18.8035 19.4552C14.713 19.4954 10.6225 19.4799 6.53036 19.4799C4.65456 19.4799 3.93334 18.7185 4.02156 16.8287Z" fill="#92B3FE"/>
<path d="M12.7242 10.3037C12.0927 10.3068 11.5572 9.85801 11.5603 9.32715C11.565 8.78546 12.085 8.3552 12.7288 8.36139C13.3634 8.36758 13.9066 8.81487 13.9066 9.33179C13.9066 9.84253 13.3494 10.3006 12.7226 10.3037H12.7242Z" fill="#C8F978"/>
</g>
<defs>
<clipPath id="clip0_3200_3614">
<rect width="16" height="15.4831" fill="white" transform="translate(4 4)"/>
</clipPath>
</defs>
</svg>
