<svg width="24" height="24" viewBox="0 0 24 24" fill="none" xmlns="http://www.w3.org/2000/svg">
<path fill-rule="evenodd" clip-rule="evenodd" d="M6.66667 4C5.19391 4 4 5.19391 4 6.66667V17.3333C4 18.8061 5.19391 20 6.66667 20H17.3333C18.8061 20 20 18.8061 20 17.3333V6.66667C20 5.19391 18.8061 4 17.3333 4H6.66667ZM8 9.33333H16C16.7333 9.33333 17.3333 9.93333 17.3333 10.6667V13.3333C17.3333 14.0667 16.7333 14.6667 16 14.6667H15.3333C15.1467 14.6667 15 14.52 15 14.3333C15 14.1467 15.1467 14 15.3333 14H16C16.3667 14 16.6667 13.7 16.6667 13.3333V10.6667C16.6667 10.3 16.3667 10 16 10H8C7.63333 10 7.33333 10.3 7.33333 10.6667V13.3333C7.33333 13.7 7.63333 14 8 14H12.6667C13.0333 14 13.3333 13.7 13.3333 13.3333V11.3333H14V13.3333C14 14.0667 13.4 14.6667 12.6667 14.6667H8C7.26667 14.6667 6.66667 14.0667 6.66667 13.3333V10.6667C6.66667 9.93333 7.26667 9.33333 8 9.33333Z" fill="#1F70F2"/>
</svg>
