<svg width="24" height="24" viewBox="0 0 24 24" fill="none" xmlns="http://www.w3.org/2000/svg">
<path d="M17.6094 16.6406C18.1172 17.1094 18.1172 17.9297 17.6094 18.3984C17.375 18.6328 17.0625 18.75 16.75 18.75C16.3984 18.75 16.0859 18.6328 15.8516 18.3984L11.75 14.2969L7.60938 18.3984C7.375 18.6328 7.0625 18.75 6.75 18.75C6.39844 18.75 6.08594 18.6328 5.85156 18.3984C5.34375 17.9297 5.34375 17.1094 5.85156 16.6406L9.95312 12.5L5.85156 8.39844C5.34375 7.92969 5.34375 7.10938 5.85156 6.64062C6.32031 6.13281 7.14062 6.13281 7.60938 6.64062L11.75 10.7422L15.8516 6.64062C16.3203 6.13281 17.1406 6.13281 17.6094 6.64062C18.1172 7.10938 18.1172 7.92969 17.6094 8.39844L13.5078 12.5391L17.6094 16.6406Z" fill="#6F6F6F"/>
</svg>
