<svg width="161" height="166" viewBox="0 0 161 166" fill="none" xmlns="http://www.w3.org/2000/svg">
<g clip-path="url(#clip0_3605_35546)">
<path d="M80.5 2.58066C36.3161 2.58066 0.5 38.3968 0.5 82.5807C0.5 126.765 36.3161 162.581 80.5 162.581C124.684 162.581 160.5 126.765 160.5 82.5807C160.5 38.3968 124.684 2.58066 80.5 2.58066ZM107.045 117.935C105.787 119.187 104.468 120.5 103.397 121.574C102.432 122.542 101.752 123.735 101.406 125.029C100.919 126.855 100.526 128.7 99.8677 130.471L94.2581 145.584C89.8194 146.552 85.2258 147.097 80.5 147.097V138.265C81.0452 134.194 78.0355 126.568 73.2 121.732C71.2645 119.797 70.1774 117.171 70.1774 114.432V104.106C70.1774 100.352 68.1548 96.9 64.8677 95.0839C60.2323 92.5194 53.6387 88.9355 49.1226 86.6613C45.4194 84.7968 41.9935 82.4226 38.9129 79.6452L38.6548 79.4129C36.4518 77.4243 34.4958 75.1781 32.829 72.7226C29.8032 68.2807 24.8742 60.9742 21.671 56.2258C28.2742 41.5484 40.1742 29.7613 54.9613 23.3581L62.7064 27.2323C66.1387 28.9484 70.1774 26.4549 70.1774 22.6161V18.971C72.7548 18.5549 75.3774 18.2903 78.0452 18.1903L87.1742 27.3194C89.1903 29.3355 89.1903 32.6032 87.1742 34.6194L85.6613 36.129L82.3258 39.4645C81.3194 40.471 81.3194 42.1065 82.3258 43.1129L83.8387 44.6258C84.8452 45.6323 84.8452 47.2677 83.8387 48.2742L81.2581 50.8548C80.7735 51.3384 80.1168 51.6099 79.4323 51.6097H76.5323C75.8613 51.6097 75.2161 51.871 74.7323 52.3419L71.5323 55.4548C71.14 55.8368 70.8793 56.3335 70.7876 56.8733C70.696 57.4131 70.7783 57.9681 71.0226 58.4581L76.0516 68.5194C76.9097 70.2355 75.6613 72.2549 73.7452 72.2549H71.9258C71.3032 72.2549 70.7032 72.029 70.2355 71.6226L67.2419 69.0226C66.5645 68.4349 65.7458 68.0337 64.8663 67.8583C63.9868 67.683 63.0768 67.7396 62.2258 68.0226L52.171 71.3742C51.4033 71.6302 50.7357 72.1212 50.2627 72.7778C49.7896 73.4343 49.5352 74.2231 49.5355 75.0323C49.5355 76.4936 50.3613 77.8258 51.6677 78.4807L55.2419 80.2678C58.2774 81.7871 61.6258 82.5774 65.0193 82.5774C68.4129 82.5774 72.3064 91.3807 75.3419 92.9H96.8742C99.6129 92.9 102.235 93.9871 104.174 95.9226L108.59 100.339C110.435 102.184 111.471 104.687 111.471 107.297C111.47 109.274 111.079 111.232 110.319 113.058C109.56 114.883 108.447 116.541 107.045 117.935ZM135.016 88.4678C133.148 88 131.519 86.8549 130.452 85.2516L124.652 76.5516C123.803 75.2805 123.35 73.7864 123.35 72.2581C123.35 70.7297 123.803 69.2356 124.652 67.9645L130.971 58.4871C131.719 57.3678 132.745 56.4581 133.952 55.8581L138.139 53.7645C142.5 62.4484 145.016 72.2161 145.016 82.5807C145.016 85.3774 144.777 88.1161 144.429 90.8194L135.016 88.4678Z" fill="#E9ECF4"/>
</g>
<defs>
<clipPath id="clip0_3605_35546">
<rect width="160" height="165.161" fill="white" transform="translate(0.5)"/>
</clipPath>
</defs>
</svg>
