<svg width="80" height="110" viewBox="0 0 80 110" fill="none" xmlns="http://www.w3.org/2000/svg">
<g clip-path="url(#clip0_1925_2021)">
<path d="M79.7857 37.7735C79.7831 31.823 78.3919 25.9573 75.7254 20.6538C73.0588 15.3502 69.1923 10.7589 64.4406 7.25346C59.6889 3.74803 54.1863 1.42762 48.3808 0.481128C42.5752 -0.465368 36.6309 -0.0111931 31.0316 1.80668C27.1494 2.89062 23.5252 4.76127 20.3789 7.30515C15.232 11.1467 11.1408 16.2558 8.49385 22.1472C6.51038 26.4123 4.94679 30.8647 3.82571 35.4399C1.59547 43.7481 0.58255 52.3425 0.819398 60.9483C1.80661 58.8714 2.97186 56.8862 4.30181 55.0153C9.12867 48.2319 15.8789 43.0263 23.1425 39.0489L22.0688 37.6318C19.0999 33.626 17.9141 32.0672 14.9359 28.5149L16.0843 28.3448C27.6706 27.5985 35.1396 26.7765 50.5071 26.6821L47.9863 36.3186C46.1751 43.442 44.9707 48.1469 43.6356 54.4201L41.2362 66.7019L37.5017 60.6932L31.069 51.8314C23.796 55.7994 16.355 63.1685 11.7708 70.1597C6.93465 77.5004 7.26142 85.0018 8.03633 92.3331C10.4921 97.6295 13.6316 102.573 17.3726 107.033L20.1735 110C20.9297 101.733 24.6176 92.7677 30.4434 86.9196C31.6196 85.7434 32.8668 84.6422 34.1779 83.6224C38.9488 80.0513 55.5487 73.1357 55.5487 73.1357C62.6642 70.4366 68.7967 65.6053 73.1274 59.2867C77.4582 52.9681 79.781 45.463 79.7857 37.7735Z" fill="url(#paint0_linear_1925_2021)"/>
<path d="M11.7989 70.1786C16.383 63.2157 23.824 55.8183 31.0969 51.8503L37.5297 60.7121L41.2642 66.7208L43.6636 54.439C44.9987 48.1658 46.203 43.4609 48.0143 36.3375L50.5351 26.701C35.1209 26.7954 27.7359 27.6457 16.1403 28.3637L14.9919 28.5338C17.9701 32.0861 19.1559 33.6449 22.1248 37.6507L23.1425 38.9922C15.8788 42.9696 9.13799 48.1752 4.3018 54.9586C2.97185 56.8295 1.80659 58.8148 0.819383 60.8916C1.04538 71.7761 3.49963 82.4949 8.02702 92.3709C7.25211 85.0207 6.92532 77.5193 11.7989 70.1786Z" fill="white"/>
</g>
<defs>
<linearGradient id="paint0_linear_1925_2021" x1="-1.73874" y1="73.8064" x2="15.7662" y2="62.0106" gradientUnits="userSpaceOnUse">
<stop stop-color="#F7931E"/>
<stop offset="1" stop-color="#FFB200"/>
</linearGradient>
<clipPath id="clip0_1925_2021">
<rect width="79" height="110" fill="white" transform="translate(0.785706)"/>
</clipPath>
</defs>
</svg>
