<svg width="78" height="37" viewBox="0 0 78 37" fill="none" xmlns="http://www.w3.org/2000/svg">
<g clip-path="url(#clip0_6_276)">
<g clip-path="url(#clip1_6_276)">
<path d="M75.2654 10.8638V8.21925H72.5231V5.57468H69.7734V2.9301H67.0311V0.285522H64.2814H61.5316H58.7818H56.0396V2.9301H53.2974H53.2898H50.5476V5.57468H47.8053V8.21925H45.0706V10.8638H42.3284V13.5084V16.153V18.7976V21.4497V24.0942V26.7388H45.0706V29.3834H47.8053V32.028H50.5476V34.6725H53.2898V37.3171H56.0396H58.7818H61.5316H64.2814H67.0311V34.6725H69.7734V32.028H72.5231V29.3834H75.2654V26.7388H78.0001V24.0942V21.4497V18.7976V16.153V13.5084V10.8638H75.2654Z" fill="#F45F37"/>
<path d="M35.6567 10.5783V7.93373H32.9145V5.28915H30.1647V2.64458H27.415V0H24.6727H21.9229H19.1732H16.4309V2.64458H13.6887H13.6812H10.9389V5.28915H8.21171V2.64458H5.46947V0.277981H2.74976H2.71971H0V2.85494V2.92256V5.4319V5.49952V8.00886V8.07648V10.5783V10.6534V13.2229V15.875V18.5196V21.1641V23.8087V26.4533V29.0979V31.7424V34.387V37.0316H2.74976V34.387H5.46947V31.7424H8.19669H8.21171H10.9389V34.387H13.6812V37.0316H16.4309H19.1732H21.9229H24.6727H27.415V34.387H30.1647V31.7424H32.9145V29.0979H35.6567V26.4533H38.3914V23.8087V21.1641V18.5196V15.875V13.2229V10.5783H35.6567Z" fill="#FFB133"/>
<path d="M67.0311 14.177V11.5325H64.2813H61.5316V14.177H58.7818H56.0396V15.4993H53.2898V18.1514V20.796H56.0396V22.1183H58.7818H61.5316H64.2813H67.0311V19.4662H69.7733V16.8216V14.177H67.0311Z" fill="white"/>
<path d="M59.6458 16.8217H56.896V19.4662H59.6458V16.8217Z" fill="black"/>
<path d="M65.6563 16.8217H62.9065V19.4662H65.6563V16.8217Z" fill="black"/>
<path d="M28.7899 15.4993V14.177H26.0477H23.2979V11.5325H20.5482H17.8059V14.177H15.0562V16.8216V19.4662H17.8059V22.1183H20.5482H23.2979H26.0477H28.7899V20.796H31.5397V18.1514V15.4993H28.7899Z" fill="white"/>
<path d="M25.176 19.4738H27.9258V16.8292H25.176V19.4738Z" fill="black"/>
<path d="M19.1731 19.4738H21.9229V16.8292H19.1731V19.4738Z" fill="black"/>
</g>
</g>
<defs>
<clipPath id="clip0_6_276">
<rect width="78" height="37" fill="white"/>
</clipPath>
<clipPath id="clip1_6_276">
<rect width="78" height="37.3171" fill="white"/>
</clipPath>
</defs>
</svg>
