<svg width="24" height="24" viewBox="0 0 24 24" fill="none" xmlns="http://www.w3.org/2000/svg">
<rect width="24" height="24" rx="12" fill="#F2F1F4"/>
<g clip-path="url(#clip0_3559_4503)">
<path d="M11.7251 4.17322L5.66048 17.3021C5.66048 17.3021 3.66663 15.7227 3.66663 11.7864L11.7251 4.17322Z" fill="#89C9B2"/>
<path d="M12.5917 3.66663L6.82947 16.3198L17.3521 5.6737L12.5917 3.66663Z" fill="#62BC9C"/>
<path d="M12.1431 11.6831L17.8117 6.03271C17.8117 6.03271 23.4513 11.3697 17.8631 17.9435L12.1431 11.6831Z" fill="#89C9B2"/>
<path d="M17.446 18.2208L11.7883 12.0951L6.1748 17.7638L11.8104 20.3333L17.446 18.2208Z" fill="#62BC9C"/>
<path d="M6.82959 16.3199L11.6346 5.76868L8.9474 14.1774L6.82959 16.3199Z" fill="#279C74"/>
<path d="M12.1431 12.4792L17.4459 18.2208L15.2518 19.0435L12.1431 12.4792Z" fill="#279C74"/>
</g>
<defs>
<clipPath id="clip0_3559_4503">
<rect width="16.6667" height="16.6667" fill="white" transform="translate(3.66663 3.66663)"/>
</clipPath>
</defs>
</svg>
