<svg width="66" height="50" viewBox="0 0 66 50" fill="none" xmlns="http://www.w3.org/2000/svg">
<path opacity="0.9" d="M46.5187 25.7008V24.2891C46.5187 20.4045 49.6754 17.2507 53.5636 17.2507H64.136V7.04846C64.136 3.1638 60.9794 0 57.0911 0H7.04494C3.1567 0 0 3.15378 0 7.04846V42.9515C0 46.8462 3.1567 49.99 7.04494 49.99H57.0911C60.9794 49.99 64.136 46.8362 64.136 42.9515V32.7393H53.5636C49.6654 32.7393 46.5187 29.5855 46.5187 25.7008Z" fill="url(#paint0_linear_5022_21161)"/>
<path d="M54.3161 17.2505C50.0069 17.2505 46.5195 20.4043 46.5195 24.2889V25.7006C46.5195 29.5853 50.0069 32.7391 54.3161 32.7391H66.0009V17.2505H54.3161Z" fill="url(#paint1_linear_5022_21161)"/>
<path d="M57.6232 25C57.6232 26.8022 56.1601 28.2539 54.3663 28.2539C52.5725 28.2539 51.1094 26.7921 51.1094 25C51.1094 23.2078 52.5725 21.7461 54.3663 21.7461C56.1601 21.7461 57.6232 23.2078 57.6232 25Z" fill="white"/>
<path opacity="0.2" d="M41.5481 0H7.04494C3.1567 0 0 3.15378 0 7.04846V35.6728C20.7139 34.8718 37.7601 19.7938 41.5481 0Z" fill="white"/>
<defs>
<linearGradient id="paint0_linear_5022_21161" x1="32.068" y1="44.7237" x2="32.068" y2="-9.34121" gradientUnits="userSpaceOnUse">
<stop stop-color="#8057E1"/>
<stop offset="1" stop-color="#E795EF"/>
</linearGradient>
<linearGradient id="paint1_linear_5022_21161" x1="68.406" y1="24.9998" x2="45.0264" y2="24.9998" gradientUnits="userSpaceOnUse">
<stop stop-color="#FFB133"/>
<stop offset="1" stop-color="#F5F221"/>
</linearGradient>
</defs>
</svg>
