<svg width="111" height="110" viewBox="0 0 111 110" fill="none" xmlns="http://www.w3.org/2000/svg">
<path fill-rule="evenodd" clip-rule="evenodd" d="M55.3328 110H55.1672C55.1948 110 55.2224 110 55.25 110C55.2776 110 55.3052 110 55.3328 110ZM28.2128 102.907C11.5184 93.4645 0.25 75.5482 0.25 55C0.25 24.6243 24.8743 0 55.25 0C85.6257 0 110.25 24.6243 110.25 55C110.25 76.429 97.9949 94.9957 80.1109 104.074C77.1898 89.3105 67.79 84.3413 67.79 84.3413C67.79 84.3413 91.5764 77.7281 90.67 52.4611C90.4698 46.8225 89.2422 41.5073 86.6946 36.8609C87.9244 32.8855 88.7076 27.8145 85.1788 25.2955C82.552 23.4189 79.9494 23.0009 75.4614 24.9127C70.034 21.4499 63.4582 19.4281 56.2466 19.4281C48.5158 19.4281 41.753 21.2277 36.2134 24.3407C32.975 21.5599 25.7854 21.0913 22.4436 25.2999C19.8586 28.5537 18.532 34.3199 23.031 38.1743C20.8783 42.6325 19.7728 47.5237 19.7992 52.4743C19.7992 65.6303 28.5376 77.1143 40.719 81.9917C33.1032 87.0191 29.7038 96.395 28.2128 102.907Z" fill="url(#paint0_linear_1925_1988)"/>
<path d="M40.5606 42.7284C43.5328 42.2466 55.921 40.997 62.2988 52.2258H65.15C65.15 52.2258 68.285 43.8482 81.9316 43.0056C82.0222 42.999 82.1133 43.0111 82.199 43.0413C82.2848 43.0715 82.3634 43.119 82.4299 43.181C82.4964 43.2429 82.5494 43.318 82.5855 43.4014C82.6217 43.4848 82.6402 43.5747 82.64 43.6656C82.6158 45.9866 82.189 53.4689 77.8484 57.6753C77.8484 57.6753 71.2814 63.5295 66.217 54.5513L64.9916 53.8385L61.6674 53.9572C61.6674 53.9572 58.5016 59.1801 54.821 59.3847C51.1404 59.5893 47.7018 59.3847 44.6152 55.8251C41.8014 52.58 40.07 46.2704 39.9116 43.5358C39.9009 43.3449 39.9614 43.1567 40.0812 43.0077C40.201 42.8586 40.3718 42.7591 40.5606 42.7284Z" fill="#3D3D3D"/>
<defs>
<linearGradient id="paint0_linear_1925_1988" x1="55.25" y1="-8.9056" x2="55.25" y2="112.598" gradientUnits="userSpaceOnUse">
<stop offset="0.05"/>
<stop offset="1" stop-color="white"/>
</linearGradient>
</defs>
</svg>
