<svg width="173" height="80" viewBox="0 0 173 80" fill="none" xmlns="http://www.w3.org/2000/svg">
<g clip-path="url(#clip0_1925_1957)">
<path d="M172.857 39.9609C172.857 34.7132 171.8 29.5168 169.746 24.6685C167.692 19.8203 164.681 15.415 160.885 11.7043C157.09 7.99357 152.584 5.05007 147.625 3.04185C142.666 1.03362 137.351 0 131.983 0C121.145 0.00345036 110.751 4.21514 103.089 11.7089C95.4264 19.2026 91.1218 29.3649 91.1218 39.9609C91.122 47.9188 93.5533 55.6954 98.104 62.2934C102.655 68.8915 109.117 74.0105 116.663 76.9941V55.1984C116.663 54.8533 116.804 54.5223 117.053 54.2783C117.303 54.0343 117.641 53.8972 117.994 53.8972C118.347 53.8972 118.686 54.0343 118.935 54.2783C119.185 54.5223 119.325 54.8533 119.325 55.1984V77.983C123.385 79.2626 127.624 79.9124 131.89 79.9089C136.159 79.9125 140.403 79.2627 144.467 77.983V55.1984C144.467 54.8533 144.608 54.5223 144.857 54.2783C145.107 54.0343 145.445 53.8972 145.798 53.8972C146.151 53.8972 146.49 54.0343 146.739 54.2783C146.989 54.5223 147.129 54.8533 147.129 55.1984V76.9941C154.71 74.039 161.212 68.9323 165.798 62.3319C170.383 55.7315 172.842 47.9398 172.857 39.9609Z" fill="#F45F37"/>
<path d="M138.252 26.8185C136.729 26.8213 135.227 27.1652 133.861 27.8239C132.495 28.4825 131.302 29.4384 130.372 30.6181C128.847 29.2536 126.85 28.505 124.782 28.5231C122.612 28.5265 120.532 29.3708 118.998 30.8708C117.464 32.3708 116.6 34.4043 116.597 36.5257C116.597 38.6493 117.459 40.6861 118.993 42.189C120.528 43.6918 122.61 44.5378 124.782 44.5413C126.834 44.5479 128.812 43.7947 130.319 42.4333C131.246 43.6168 132.438 44.5762 133.804 45.2373C135.171 45.8984 136.674 46.2435 138.198 46.2459C140.834 46.2425 143.361 45.2173 145.225 43.3951C147.089 41.573 148.137 39.1026 148.141 36.5257C148.134 33.96 147.091 31.5008 145.239 29.6829C143.387 27.8651 140.876 26.8356 138.252 26.8185Z" fill="white"/>
<path d="M138.252 40.0911C139.259 40.0911 140.075 39.2929 140.075 38.3084C140.075 37.3238 139.259 36.5257 138.252 36.5257C137.245 36.5257 136.428 37.3238 136.428 38.3084C136.428 39.2929 137.245 40.0911 138.252 40.0911Z" fill="black"/>
<path d="M124.835 40.0911C125.843 40.0911 126.659 39.2929 126.659 38.3084C126.659 37.3238 125.843 36.5257 124.835 36.5257C123.828 36.5257 123.012 37.3238 123.012 38.3084C123.012 39.2929 123.828 40.0911 124.835 40.0911Z" fill="black"/>
<path d="M43.7391 41.3012C43.7391 40.8588 43.7391 40.4034 43.7391 40C43.7391 39.5966 43.7391 39.1021 43.7391 38.6987H84.6134C84.2611 28.3413 79.8043 18.5234 72.1846 11.3192C64.5649 4.11499 54.379 0.0887446 43.779 0.091093C36.6043 0.0846237 29.5556 1.93424 23.3485 5.45217C17.1358 1.93605 10.0833 0.0866519 2.90472 0.091093V79.9999C10.0842 80.0106 17.1383 78.1607 23.3485 74.6388C29.5532 78.1626 36.6035 80.0126 43.779 79.9999C54.379 80.0023 64.5649 75.9761 72.1846 68.7718C79.8043 61.5676 84.2611 51.7497 84.6134 41.3923H43.7391V41.3012Z" fill="#FFB133"/>
<path d="M38.9742 25.6083C38.7534 24.5102 38.7573 23.3802 38.9857 22.2836C39.2142 21.187 39.6626 20.1455 40.3052 19.2193C40.9424 18.2896 41.7624 17.4933 42.7176 16.8767C43.6728 16.2602 44.7439 15.8356 45.8686 15.6278C47.1758 15.3811 48.5234 15.4299 49.8083 15.7704C51.0932 16.111 52.2815 16.7343 53.2822 17.5927C54.3485 16.1901 55.9172 15.2328 57.6744 14.9122C59.5253 14.5681 61.4402 14.9565 62.9983 15.9922C63.782 16.5078 64.4536 17.1699 64.9744 17.9404C65.4953 18.7109 65.855 19.5745 66.0329 20.4815C66.2133 21.3877 66.2086 22.3199 66.019 23.2243C65.8294 24.1288 65.4587 24.9876 64.9282 25.7515C64.4019 26.5186 63.725 27.1759 62.9367 27.6852C62.1485 28.1945 61.2646 28.5457 60.3364 28.7183C58.5821 29.0552 56.7624 28.7347 55.2387 27.8204C54.6385 28.9827 53.7751 29.9958 52.7142 30.7827C51.6533 31.5696 50.4228 32.1097 49.1162 32.3617C48.5635 32.4653 48.002 32.5175 47.4392 32.5179C45.7275 32.4838 44.0646 31.954 42.661 30.9954C40.7523 29.7465 39.4268 27.8097 38.9742 25.6083Z" fill="white"/>
<path d="M50.5004 25.3741C51.6031 25.3741 52.4969 24.5002 52.4969 23.4222C52.4969 22.3443 51.6031 21.4704 50.5004 21.4704C49.3978 21.4704 48.504 22.3443 48.504 23.4222C48.504 24.5002 49.3978 25.3741 50.5004 25.3741Z" fill="black"/>
<path d="M62.4659 24.2941C63.3407 24.2941 64.0498 23.6008 64.0498 22.7456C64.0498 21.8904 63.3407 21.1971 62.4659 21.1971C61.5912 21.1971 60.8821 21.8904 60.8821 22.7456C60.8821 23.6008 61.5912 24.2941 62.4659 24.2941Z" fill="black"/>
</g>
<defs>
<clipPath id="clip0_1925_1957">
<rect width="172" height="80" fill="white" transform="translate(0.857117)"/>
</clipPath>
</defs>
</svg>
