<svg width="24" height="24" viewBox="0 0 24 24" fill="none" xmlns="http://www.w3.org/2000/svg">
<path d="M12.0002 2C6.48619 2 2 6.48419 2 11.9998C2 17.5153 6.48419 22 12.0002 22C17.5163 22 22 17.5158 22 11.9998C22 6.48369 17.5138 2 12.0002 2ZM12.8019 16.2423C12.8017 16.4548 12.7171 16.6586 12.5668 16.8089C12.4165 16.9592 12.2128 17.0437 12.0002 17.044C11.7876 17.0438 11.5837 16.9593 11.4333 16.809C11.283 16.6587 11.1983 16.4549 11.1981 16.2423V11.1692C11.1983 10.9566 11.283 10.7527 11.4333 10.6024C11.5837 10.4521 11.7876 10.3676 12.0002 10.3675C12.2128 10.3678 12.4165 10.4523 12.5668 10.6026C12.7171 10.7529 12.8017 10.9566 12.8019 11.1692V16.2423ZM12.0002 8.57233C11.7708 8.5722 11.5509 8.48105 11.3886 8.31888C11.2263 8.15671 11.1351 7.93679 11.1348 7.70738C11.1351 7.47798 11.2263 7.25805 11.3886 7.09588C11.5509 6.93372 11.7708 6.84256 12.0002 6.84243C12.2296 6.84269 12.4494 6.93391 12.6116 7.09606C12.7737 7.25821 12.8649 7.47806 12.8652 7.70738C12.8649 7.9367 12.7737 8.15655 12.6116 8.3187C12.4494 8.48086 12.2296 8.57207 12.0002 8.57233V8.57233Z" fill="white"/>
</svg>
